<?xml version="1.0" standalone="no"?>
<!DOCTYPE svg PUBLIC "-//W3C//DTD SVG 1.1//EN" "http://www.w3.org/Graphics/SVG/1.1/DTD/svg11.dtd" >
<svg xmlns="http://www.w3.org/2000/svg" xmlns:xlink="http://www.w3.org/1999/xlink" version="1.1">
<metadata>
Created by FontForge 20170104 at Fri Jan  1 01:00:00 1904
 By myTaste
Copyright 1994 Bay Animation Inc. All Rights Reserved.
</metadata>
<defs>
<font id="MysticItalic" horiz-adv-x="908" >
  <font-face 
    font-family="Mystic"
    font-weight="400"
    font-style="italic"
    font-stretch="normal"
    units-per-em="2048"
    panose-1="2 11 5 0 0 0 0 0 0 0"
    ascent="1638"
    descent="-410"
    x-height="633"
    cap-height="1432"
    bbox="-350 -701 2177 1882"
    underline-thickness="20"
    underline-position="-143"
    unicode-range="U+0008-2219"
  />
<missing-glyph horiz-adv-x="1536" 
d="M256 0v1280h1024v-1280h-1024zM1248 32v1216h-960v-1216h960z" />
    <glyph glyph-name=".notdef" horiz-adv-x="1536" 
d="M256 0v1280h1024v-1280h-1024zM1248 32v1216h-960v-1216h960z" />
    <glyph glyph-name="glyph1" horiz-adv-x="0" 
 />
    <glyph glyph-name="glyph2" horiz-adv-x="475" 
 />
    <glyph glyph-name="space" unicode=" " horiz-adv-x="475" 
 />
    <glyph glyph-name="exclam" unicode="!" horiz-adv-x="680" 
d="M432 336q-4 -12 -90 -88q-39 -33 -65 -35q-4 2 -8 7.5t-4 7.5q2 20 4 28l12 43l21 66l10 67l41 119l47 133q6 17 12 35q4 19 17 74q4 18 10 35q6 14 23 45q6 16 16 41q10 22 12 30q8 37 8 54q0 8 -2 10q-10 6 -16 6l-14 6l-2 12q16 33 41 105q24 70 26 76q26 102 63 139
l33 18l37 15l84 65q39 23 69 23q25 0 25 -31l-4 -27q-6 -32 -34 -92l-35 -84q-101 -270 -140 -407q-10 -37 -57 -133.5t-60 -149.5q-8 -10 -18 -35q-12 -26 -27 -63zM152 -76l-8 31q-2 26 -2 41v12q43 78 127 123h12q55 0 86 -10q9 -14 9 -29q0 -8 -3 -16l-6 -14l-4 -15
l-10 -37q-7 -33 -19 -51.5t-31 -18.5l-75 -8z" />
    <glyph glyph-name="quotedbl" unicode="&#x22;" horiz-adv-x="832" 
d="M594 1288q2 7 2 11q0 12 -8 24v13l10 32v4q1 2 1 4t-1.5 2.5t-1.5 2.5q8 10 23 18q28 18 82 37q18 0 51 -21q29 -14 29 -34v-4q-7 -31 -9 -39l-20 -45l-27 -72q-18 -47 -30 -70q-5 -10 -15 -22q-4 -11 -8 -21t-18 -37l-29 -71v-13q-4 -16 -14 -30l-27 -19l-29 -16
l-28 -10q-13 4 -13 28q0 13 2 21l25 90l31 117q10 55 10 79v9zM893 1284l-4 31q0 27 6 51q4 25 25 37l78 33l65 -27q16 -6 16 -22q0 -4 -2 -10q-4 -15 -8 -27t-6 -19l-21 -53l-22 -53q-17 -45 -37 -82q-2 -6 -8 -14l-22 -54q-21 -38 -31 -71v-17q-2 -22 -21.5 -36.5
t-50.5 -26.5l-31 -12q-10 4 -10 22l4 27l33 119l32 112v33v27l9 16q0 8 2 12z" />
    <glyph glyph-name="numbersign" unicode="#" horiz-adv-x="1188" 
d="M744 537l94 239h-41t-78 -8h-55h-39q-21 4 -29 4q-67 -190 -91 -239l114 4h125zM834 420l-15 -4l-8 -12l-8 -15l-6 -16l-78 -193q-24 -73 -57 -79q-13 12 -13 20q-3 14 -3 25v6l2 26q2 7 2 15q-2 6 -2 8q-8 12 -10 30.5t-2 49.5q14 28 26 55q10 27 31 76l-60 -6l-51 -2
q-27 4 -68 6q-41 0 -61 2q-4 -6 -25 -57q-20 -52 -26 -68l-43 -107q-31 -73 -58 -79q-20 6 -20 51q2 8 2 28q0 23 -6 50q-4 20 -4 34v13l60 139l-157 -4q-65 0 -67 20q4 13 23 27l28 16l29 9q12 2 16 4l4 4q53 49 111 49l59 -4l50 131l45 108l-13 -4l-10 4l-111 -2l-67 -2
q-62 0 -67 21q8 18 22 26l31 17l26 8q12 2 16 4l4 4q52 47 109 47l108 -2l48 111l36 92q17 45 41 70q25 22 52 22t27 -39q0 -12 -8 -53q-19 -86 -78 -203h248l40 107l37 96q16 41 43 68q26 24 51 24q29 0 29 -43q0 -20 -6 -49q-16 -76 -80 -203h76l57 2q37 0 57 -14
q17 -12 17 -33v-8q-17 -68 -179 -68l-71 5q-41 -132 -92 -244h193q55 0 55 -31q0 -4 -2 -10q-2 -27 -62 -51q-31 -13 -70 -21t-84 -8q-16 4 -43 4h-20z" />
    <glyph glyph-name="dollar" unicode="$" horiz-adv-x="953" 
d="M376 -25q-99 -47 -155 -47q-92 0 -116 89q19 47 142 104q61 21 114 41q12 4 80 35l41 123q16 53 31 96q12 41 22 88v8q0 23 -18 39l-57 62q-17 16 -31 39q-17 22 -35 53l-16 30l-21 50l-8 57l10 74q37 125 145.5 215t290.5 196l20 76l21 70l24 51q21 4 33 4h29
q8 -2 14 -4l-4 -16q-4 -25 -20 -68l-21 -68l107 35q82 29 112 29q31 0 37 -19q6 -18 6 -38q0 -23 -4 -35q-12 -62 -67.5 -111t-128.5 -80q-33 -12 -70 -22t-70 -15q-20 -39 -71 -202l-64 -209q82 -88 123 -174q18 -39 27 -70q8 -33 8 -76q0 -16 -4 -45q30 0 30 -26
q0 -9 -2 -17l-4 -20l-18 -19l-23 -8l-30 -14q-27 -8 -164 -123q-39 -35 -84 -60l-82 -40l-19 -44l-16 -55l-18 -43h-25q-14 0 -27 4q-3 8 -3 16q10 27 18 48.5t11 35.5zM649 307q3 9 3 17q0 47 -58 121l-35 -107l-36 -115q111 23 126 84zM721 1096q-96 0 -139 -135v-62
q7 -30 9 -43l20 -35l20 -24l39 127z" />
    <glyph glyph-name="percent" unicode="%" horiz-adv-x="1405" 
d="M899 400q64 149 189 331q16 27 49 54q31 24 55 24q43 0 43 -37q55 56 86 56q119 0 119 -146q0 -47 -16 -123q-33 -151 -101 -278q-35 -76 -61 -109q-10 -10 -23 -24q-14 -17 -32 -43l-78 -88q-19 -21 -35 -34l-39 -26q-43 -25 -86 -25q-51 0 -102 35q-52 33 -52 84
q6 27 9 52q0 24 2 39q0 20 -7 26l13 25l10 22l4 58l21 32l18 52zM1247 637q-30 0 -77 -12q-47 -16 -49 -41q-62 -82 -111 -240l-4 -47l-4 -45l-20 -55q0 -21 -2 -29l11 -51q9 -14 13 -18.5t8 -6.5q25 0 78 43q139 117 189 310q20 90 20 123q0 12 -2 16q-15 43 -19 45
q-6 8 -31 8zM303 899q17 72 45 125l99 162q30 47 55 94q25 45 39 76q12 29 47 49q33 19 64 23l24 -2q8 -2 10 -4v-5l2 -8v-8l41 21q29 18 56 18q113 0 113 -145q0 -56 -13.5 -117.5t-39.5 -126.5q-27 -68 -69 -143l-28 -68l-21 -51q-18 -6 -75 -76l-97 -107q-37 -36 -76 -43
l-20 -8l-39 -10q-70 0 -108 47q-41 45 -48 105q5 8 11 30q6 23 12 49l8 62zM695 1252q-54 0 -91 -27q-36 -27 -61 -70q-8 -14 -14.5 -26.5t-28.5 -67.5l-31 -96l-4 -41l-14 -57l-12 -52q-3 -6 -3 -20q0 -12 11 -49q8 -37 20 -37q15 0 49 26q58 37 109 99q43 53 72 125
q28 63 45 137q8 33 8 74q0 20 -2 30q-8 52 -53 52zM260 -80q37 181 248 379q37 90 92 176q25 37 58 82q26 37 63 84l146 187q84 110 129 180l71 104l66 90l57 86l12 29q5 14 17 31q10 16 14 22l82 99l31 12q12 2 18 4q4 0 10 4q70 39 97 39q2 -22 2 -39l-12 -16l-16 -29
l-43 -76l-74 -139q-31 -57 -88 -137q-49 -72 -131 -176l-103 -131l-131 -172l-133 -170l-127 -166l-58 -82l-98 -148q-23 -32 -37 -62q-16 -30 -22 -41q-17 -36 -50 -73q-34 -31 -61 -31q-16 0 -25 18q-8 17 -8 37q0 8 4 25z" />
    <glyph glyph-name="ampersand" unicode="&#x26;" horiz-adv-x="1252" 
d="M422 -72q-26 0 -35 8t-9 43q6 15 26 66q15 37 25 68l33 72l38 92l-141 188q-8 10 -39 98q-10 39 -20 66t-17 45q-8 16 -8 47v55q-2 21 -2 45q-2 23 -2 35v76l12 33l9 22l12 21l2 31v45q18 24 34 63l31 70q16 33 35 51q69 72 172 72q88 0 198 -140q48 -51 74 -159
q19 -86 47 -93q15 0 39 25l82 86l80 82l57 55q27 31 47 37h13l8 -4q14 8 39 8l35 -6l8 -4q2 -4 4 -6q-4 -23 -38 -70l-76 -96l-47 -59q-7 -21 -29 -54q-8 -10 -31 -41l-53 -65q-25 -47 -43 -76t-39 -59l-59 -76q-4 -16 -9 -21l-4 -59l-26 -84q-13 -51 -35 -108l2 -5
q18 -26 71 -36l68 8l53 8q29 0 37 -4q37 6 61 16q109 56 131 56q15 0 15 -9q-6 -30 -18 -45q-15 -16 -39 -33l-35 -24q-65 -64 -149.5 -100.5t-176.5 -36.5q-100 0 -131 -13q-17 -6 -78 -88q-33 -49 -96 -84q-66 -35 -113 -35zM750 684h-12q-16 0 -41 -22l-29 -25q2 8 2 12
q0 7 -2 11l23 47l41 47l37 41q10 10 14 29q2 8 2 18q1 4 1 8q0 8 -3 17l-4 30q2 6 2 15q-2 6 -2 8q6 8 10 24v4q0 9 -14 17q-19 8 -19 26v7q0 24 -14 57q-8 18 -16 35q-11 14 -23 31l-25 34q-39 82 -108 82q-33 0 -58 -18q-24 -21 -43 -49q-6 -11 -12 -29t-12 -35l-22 -69
l-11 -103q-2 -20 -2 -39q-2 -20 -2 -45v-24q0 -19 4 -37q2 -21 11 -49q16 -58 52 -123q25 -43 38.5 -62.5t29.5 -40.5q37 -39 57 -39q21 9 41 35l33 53l29 58l25 24q20 29 22 39z" />
    <glyph glyph-name="quotesingle" unicode="'" horiz-adv-x="492" 
d="M520 981q-8 -22 -45 -45q-39 -22 -61 -24q-14 12 -14 20q57 82 96 178q21 45 39 96.5t26 94.5l11 32l22 52q12 16 49 32q35 15 62 15q20 -2 45 -19q20 -6 20 -24v-4l-14 -31l-12 -23q-31 -51 -62 -100q-30 -51 -53 -82l-55 -80z" />
    <glyph glyph-name="parenleft" unicode="(" horiz-adv-x="680" 
d="M350 -125q-28 4 -65 146q-23 80 -23 190q0 117 27 242q20 92 53 184t78 184q45 93 107 191q59 96 141 213q108 137 153 172q58 47 91 47q20 0 20 -12v-4q-4 -17 -22 -47l-134 -224l-151 -256q-60 -106 -109 -221q-51 -115 -75 -227l-11 -29q-8 -63 -8 -131q0 -53 6 -96
l29 -98q10 -25 19.5 -62t13.5 -50q2 -14 2 -43q0 -30 -4 -45q-11 -43 -58 -43q-49 0 -80 19z" />
    <glyph glyph-name="parenright" unicode=")" horiz-adv-x="680" 
d="M594 1432q39 -21 64 -88q14 -35 21.5 -70t15.5 -82q6 -63 6 -98v-14q0 -60 -6 -107t-23 -125q-51 -248 -201 -510q-149 -262 -352 -451q-10 -10 -20 -14q-11 -6 -37 -17l-13 -2l-12 -2q-12 15 -12 23l162 285l98 172q17 29 48 82q22 43 47 88q49 94 86 182q34 88 53 172
q18 82 18 164q0 39 -4 70q-4 28 -12 59q-10 29 -16 45l-31 123q-4 16 -6 45t-2 39q9 43 61 43q26 0 67 -12z" />
    <glyph glyph-name="asterisk" unicode="*" horiz-adv-x="873" 
d="M731 768q-18 -24 -65 -24q-29 0 -39 16q-10 14 -10 43l6 53l24 82l17 58l-80 -43l-84 -43q-12 -7 -33 -13q-22 -8 -35 -12q-22 0 -32 16q-13 15 -13 31q9 14 13 18.5t8 6.5l239 114q-20 23 -79 58q-31 16 -52.5 31.5t-36.5 29.5q-26 25 -26 74q6 24 24 49q17 23 31 23
q10 0 19 -9q30 -43 41 -55q24 -31 51 -57q49 -56 73 -66q7 29 7 39v4l26 131q8 35 8 54v24q5 8 29 23q23 12 35 12q37 0 49 -14q4 -5 4 -21q0 -14 -2 -24l-37 -113l-37 -105v-18q131 96 211 164q9 12 9 16l8 12l14 3q27 0 43 -19q10 -14 10 -31q0 -6 -2 -14q-6 -27 -39 -47
l-120 -76q-93 -55 -107 -69l74 -41l49 -31l35 -12q8 -2 28 -13q19 -10 19 -20v-2q-25 -45 -86 -53q-15 8 -29 8l-86 55l-59 33l-8 -23l-5 -43q0 -26 -4 -43l-6 -39l-6 -61q2 -14 4 -17.5t4 -5.5z" />
    <glyph glyph-name="plus" unicode="+" horiz-adv-x="1041" 
d="M613 848l65 311q10 39 35 58q25 16 57 16q39 0 49 -49q5 -12 5 -41q0 -37 -13 -90l-20 -74q-8 -18 -13 -33q-4 -16 -10 -38l-8 -60l172 -4l111 2l53 2q39 0 53 -22q10 -17 10 -33q0 -8 -2 -17q-18 -84 -198 -84q-54 0 -101 13q-32 -8 -123 -8q-12 -78 -34.5 -183.5
t-32.5 -160.5q-25 -113 -62 -113q-12 10 -15 24q-7 13 -21 21q2 10 2 18q0 15 -6 23l-18 37l-19 30q-4 9 -4 19q0 8 2 16l25 129l22 127l-158 4l-155 4q-60 0 -84 9q-23 6 -23 20v4q2 6 25 21q20 12 29 26q28 4 43 13l40 28l39 29l35 6l88 -2l72 -2z" />
    <glyph glyph-name="comma" unicode="," horiz-adv-x="475" 
d="M170 148l2 49l23 37q12 22 26 32q15 11 50 23q20 10 36 10q13 0 43 -18q27 -12 27 -25v-4l-29 -61q-24 -45 -65 -103l-64 -105q-22 -41 -47 -77q-24 -37 -41 -58q-43 -49 -98 -71h-8l-10 4l-5 6q5 16 13 38.5t18 39.5q8 16 28.5 51t29.5 55l30 70l17 60q12 36 24 47z" />
    <glyph glyph-name="hyphen" unicode="-" horiz-adv-x="643" 
d="M457 391h-8q-47 0 -133 -18q-80 8 -138 8h-49q-30 0 -35 23q19 51 70 90q49 39 100 39l99 4h223q18 0 27 -21q1 -6 1 -22q0 -8 -4 -29q-16 -84 -100 -84l-26 4z" />
    <glyph glyph-name="period" unicode="." horiz-adv-x="475" 
d="M445 113q-70 37 -70 67q12 60 76 97l22 18l31 27q16 10 31 10q14 0 22 -8q54 0 78 -31q20 -27 20 -49q0 -6 -2 -12q-4 -15 -43.5 -49.5t-62.5 -34.5q-29 -15 -53.5 -23t-48.5 -12z" />
    <glyph glyph-name="slash" unicode="/" horiz-adv-x="873" 
d="M146 13q-76 -60 -127 -60q-17 0 -17 37q0 6 4 35q25 76 72 148.5t137 187.5l105 131l121 157l149 181l123 153q41 54 100 164l92 156q13 22 29 45q17 20 45 57q17 0 39 4q21 2 51 11l64 12q26 0 35 -2q5 -2 5 -6v-4l-47 -91l-67 -118l-62 -95l-131 -157l-168 -209
l-169 -207q-25 -33 -74 -90q-35 -41 -68 -80q-221 -264 -241 -360z" />
    <glyph glyph-name="zero" unicode="0" horiz-adv-x="953" 
d="M113 209v6q0 13 -4 35q-2 8 -2 21q0 10 2 18l15 68q8 32 8 49q0 12 -4 18q49 139 59 197l49 137l60 137l71 154l51 98l72 125q14 21 32 43q13 14 35 39q23 23 47 23q13 0 25 -13q2 -6 2 -22q0 -13 -2 -19l-16 -43l92 68q57 45 96 61q37 15 104 27q48 0 95 -39
q47 -43 80 -107q26 -55 26 -118v-19q-4 -35 -6 -61q-4 -27 -14 -68l-23 -102l-24 -107l-9 -34q-36 -121 -112 -277q-35 -74 -74 -137q-31 -51 -84 -127q-88 -125 -176 -207q-90 -82 -170 -101l-64 -4q-77 0 -135.5 39t-88.5 105q-17 45 -17 90v23q4 16 4 24zM678 344
q180 258 240 533q4 18 4 41v33q0 34 -8.5 87.5t-48.5 96.5q-44 41 -119 41q-45 0 -101 -25q-55 -26 -94 -65q-39 -41 -51 -90l-43 -109q-43 -96 -67 -207q-4 -12 -8 -28.5t-9 -22.5l-16 -94q-8 -37 -14 -78t-6 -66q-2 -14 -2 -28v-21q0 -30 2 -45q-2 -22 -2 -33
q0 -47 11 -88q21 -51 80 -51q105 19 252 219z" />
    <glyph glyph-name="one" unicode="1" horiz-adv-x="756" 
d="M232 -97l-9 -2l-12 -2q-12 0 -12 37l8 21q4 18 39 74l45 74l186 381q50 102 119 276q33 80 58 156q22 73 43 153l-5 6q-18 0 -77 -40l-158 -107l-121 -86q-29 -16 -78 -61q-18 -17 -32 -29q-17 -14 -29 -19q-33 0 -33 31q0 6 2 15q6 28 27 67l63 62l129 108l121 103
q254 215 387 311h12q35 0 80 -27q37 -24 37 -49v-8l-18 -66l-25 -71l-28 -74q-35 -107 -86 -223l-105 -222l-131 -260l-117 -227q-4 -12 -14 -33q-12 -22 -25 -41q-26 -39 -45 -51q-2 -24 -73 -88q-68 -66 -123 -89z" />
    <glyph glyph-name="two" unicode="2" 
d="M137 -51q-16 4 -36 10q-23 6 -35 20q-19 23 -19 44l4 65q7 19 99 127q80 86 264 267l194 190l80 84l74 84q26 35 32 45q19 27 29 45q25 39 35 86q2 8 2 23q0 84 -153 120q-31 8 -68 8q-86 0 -160 -40q-75 -43 -98 -127q-2 -9 -18 -21l-29 -22q-37 0 -45 41q-10 39 -10 69
q0 19 4 41q2 23 4 37l31 92q37 76 135 121q96 43 205 43q108 0 198 -24q88 -27 146 -91q26 -28 40 -67q12 -39 12 -90l-6 -41q-16 -78 -69 -158q-27 -49 -52 -82q-12 -16 -65 -80q-53 -63 -147 -162l-113 -122l-98 -101l-63 -63q-35 -35 -50 -54q-41 -43 -63 -102l4 -4
q0 -29 176 -29l176 6l115 5l72 2q24 0 24 -15v-4q-4 -14 -19 -28q-16 -17 -32 -29q-27 -21 -43 -31q-18 -10 -70 -33q-53 -25 -98 -25q-49 -24 -143 -37q-97 -14 -193 -14h-35q-49 0 -75 6q-29 6 -35 8q-6 0 -15 7z" />
    <glyph glyph-name="three" unicode="3" horiz-adv-x="873" 
d="M56 -117q-80 0 -80 37q0 4 2 8q2 25 82 72l246 131l280 162q37 19 59 47q27 27 33 45v4q0 21 -35 33l-131 43q-49 14 -71 23q-25 8 -68 30q-36 21 -36 50v8q0 12 -2 16q14 41 32 72q17 28 47 57q80 68 234.5 240t164.5 194v4q0 29 -61 29l-90 -8l-76 -8q-66 -8 -156 -37
l-86 -27q-36 0 -36 37q0 6 2 14q6 29 18 56q13 26 33 59q39 57 90 94q22 15 110 35l197 33h39q272 0 272 -123q0 -8 -4 -29l-18 -55q-13 -22 -35 -51q-25 -31 -43 -49l-172 -185l-164 -176q-55 -65 -61 -92q14 -22 106 -65q49 -21 86 -39q37 -21 70 -45q55 -37 55 -115
l-4 -25l-4 -26q-12 -60 -60 -113q-30 -31 -65 -59q-37 -29 -92 -68q-129 -82 -352 -181q-109 -45 -175 -45h-38l-7 4l-18 -10z" />
    <glyph glyph-name="four" unicode="4" horiz-adv-x="953" 
d="M465 17q4 24 14 55q11 31 21 57q33 82 39 115v6q0 14 -27 14h-24l-72 -4l-68 -4q-163 0 -202 88q-11 25 -11 62q0 16 5 41q2 22 4 37q18 73 63 194l57 150q13 43 107 217t98 198q-14 27 -14 29q29 51 53 88q25 37 51 66q52 59 131 86q74 32 107 32q16 0 29 -10
q8 -8 8 -20q0 -4 -2 -11q-2 -14 -23 -47q-235 -331 -467 -809q-8 -14 -18 -41q-12 -28 -15 -34q0 -68 66 -88q64 -15 102 -19q39 -4 86 -4l66 10q29 68 63 164q13 33 64 174l31 88q14 54 39 103q24 47 59 73q33 27 88 27l76 -39q10 -6 10 -22q0 -9 -2 -19q-6 -26 -14 -53
q-11 -29 -25 -57.5t-27 -53.5q-12 -26 -47 -82l-59 -110q-16 -31 -35 -80q-20 -51 -37 -92l4 -10l9 -3l10 -4q20 0 47 11l65 22l43 17q19 0 19 -29q0 -14 -4 -35q-4 -20 -27.5 -37.5t-44.5 -25.5l-45 -21q-154 -65 -166 -78l-35 -78l-59 -143l-53 -138l-29 -75
q-6 -17 -27 -23l-41 -18q-38 -33 -59 -33q-12 4 -12 8v27v22l31 88z" />
    <glyph glyph-name="five" unicode="5" horiz-adv-x="832" 
d="M8 41q7 23 27 35q29 12 59 12l115 13l86 22l152 37q63 14 124.5 43t69.5 70q2 4 2 10q0 14 -12 31l-84 94q-14 18 -45 47q-31 27 -70 57l-123 113q-43 45 -71 102q-15 35 -15 92q0 33 7 70l12 43q10 35 31 82q20 45 45 86q24 47 53 92q27 43 59 82q60 74 99 86l22 6l33 6
l260 7l274 6q15 -8 23 -19q4 -8 4 -18v-8q-8 -43 -63 -95q-23 -22 -50 -38q-28 -19 -45 -25q-16 -6 -57 -12q-96 -15 -104 -17l-203 -30q-70 -13 -92 -31q-33 -31 -78 -98q-23 -33 -37 -70q-16 -37 -27 -80v-8v-4q0 -25 25 -56q31 -41 72 -73l129 -107l92 -74q43 -32 82 -77
t53 -95q4 -8 8 -24q2 -19 2 -41q0 -21 -6 -49q-14 -82 -98 -148q-86 -67 -176 -88q-13 -4 -45 -13q-33 -8 -68 -20l-125 -33q-47 -10 -98 -10q-2 8 -37 18l-57 7q-23 0 -56 20q-35 18 -55 39q-12 13 -21 27q0 2 -2 6z" />
    <glyph glyph-name="six" unicode="6" horiz-adv-x="832" 
d="M277 -4q-78 45 -129 156q-24 51 -37 106q-12 56 -12 107l8 82l10 65q135 531 872 981q70 39 113 39q35 0 70 -29q2 -6 2 -10q-4 -12 -14 -18l-29 -19l-22 -12l-125 -115q-51 -45 -84 -73q-25 -23 -45 -43l-123 -121q-55 -51 -84 -80q-43 -43 -70 -72q-26 -24 -59 -65
q-33 -43 -51 -74l26 -8l27 -4l22 -27q13 -20 25 -31q41 -36 86 -79q43 -46 70 -80q67 -82 96 -174q18 -56 18 -117q0 -29 -2 -43q-2 -17 -8 -53q-14 -72 -64 -134q-51 -57 -117 -90q-36 -17 -73 -27t-74 -10q-53 0 -109 18q-55 17 -114 54zM636 277q-23 149 -138 352
q-47 57 -47 98v6q0 27 -17 27q-122 -113 -185 -344q-5 -37 -5 -53q0 -43 13 -80q14 -55 63 -100q41 -39 114 -58l45 -10l23 -6q25 0 45 6q21 4 41 14q35 17 45 60q3 14 3 88z" />
    <glyph glyph-name="seven" unicode="7" horiz-adv-x="873" 
d="M328 -209q-23 2 -23 41q11 51 103 260q184 422 418 852l20 56q2 10 2 18q0 45 -55 62l-215 61l-84 12l-92 13q-21 2 -29 4q-18 8 -27 10l-12 43q-14 43 -14 86v76q8 28 20 37q6 10 33 10q53 0 106 -12l109 -31l119 -41q164 -55 258 -152q67 -67 67 -170q0 -43 -10 -92
q-10 -51 -28 -100q-19 -51 -48 -105q-43 -77 -65 -116q-29 -50 -92 -146q-99 -160 -144 -254l-53 -112q-33 -82 -59 -118q-2 -8 -19 -16l-16 -14q-37 -97 -59 -97l-46 -34q-40 -31 -65 -31z" />
    <glyph glyph-name="eight" unicode="8" horiz-adv-x="873" 
d="M56 -4l-3 23l3 22q16 56 32 90q15 35 43 76q27 39 60 76q30 37 69 74l78 71q60 56 64 68q-21 33 -74 84q-53 49 -78 84q-10 14 -18.5 34.5t-12.5 36.5q0 15 2 37q0 23 11 72q8 47 49 100q18 27 35 45q16 19 43 43q47 39 67 43h8q15 0 15 -12q0 -4 -2 -10l-11 -35l-20 -41
l-20 -41q-3 -10 -3 -33q0 -59 25 -127q2 -8 16 -26l13 -23q53 -110 69 -114l29 14l43 25l113 143l129 147q28 37 47 64q28 39 43 65q33 54 37 73.5t4 31.5q0 28 -19 45q-28 18 -98 18q-100 0 -213 -30q-115 -31 -219 -84q-31 0 -41 10l-8 41l8 20q55 90 147 140
q101 55 228 100l18 14l19 10l14 -6l18 -10l17 10l28 6q45 0 109 -38q57 -39 88 -86q45 -68 45 -156q0 -49 -12 -105q-60 -272 -418 -563q-18 -18 -31 -43v-4q0 -22 45 -78q31 -41 35 -75.5t4 -49.5v-26q0 -33 -4 -47q-24 -84 -104 -158q-82 -76 -181 -115q-98 -41 -186 -41
q-72 0 -129 28q-59 29 -65 93zM525 97q30 49 36 75q7 27 7 49q0 13 -3 29q-4 14 -12 37q-26 51 -43 61q-8 0 -143 -129l-88 -92q-25 -30 -45 -80q0 -60 71 -60q56 0 118.5 31t101.5 79z" />
    <glyph glyph-name="nine" unicode="9" horiz-adv-x="873" 
d="M441 -131q-11 -17 -41 -27q-33 -10 -70 -10h-18l-4 10l-2 10l16 29l23 33l24 26l33 73l53 108q13 31 64 127q20 39 38.5 78t24.5 61l96 234q39 92 53 129q27 63 41 94q-26 -14 -61 -39q-14 -10 -80 -57q-53 -41 -78 -60q-6 -4 -65 -45q-60 -37 -117 -57.5t-109 -26.5
q-63 0 -98 45q-24 35 -24 78q0 10 4 35q29 76 87.5 162t127.5 162q53 59 88 92t51 47q94 78 153.5 123t110.5 78l72 43q16 10 47 26q12 6 27 15q36 16 59 16q55 0 102 -35q33 -26 33 -67q0 -15 -4 -29q-4 -17 -39 -29t-59 -12q-25 -12 -70 -39q-47 -29 -94 -61l-199 -154
q-22 -18 -94 -82q-57 -51 -88 -80q-4 -4 -28.5 -31.5t-38.5 -44.5q-47 -61 -66 -92l-6 -12q8 -12 12 -16l27 8l16 4q305 158 438 291l8 4l15 4l65 65l70 58q41 24 72 24q53 0 53 -39q0 -8 -2 -16q-15 -70 -53 -162q-25 -59 -52 -117q-10 -20 -43 -83l-80 -162
q-219 -428 -421 -707z" />
    <glyph glyph-name="colon" unicode=":" horiz-adv-x="475" 
d="M359 576q-13 0 -45 28q-29 25 -29 35v4q13 64 133 142q16 8 31 8q22 0 28 -8q43 0 70 -27q23 -16 23 -47q0 -12 -4 -25.5t-39 -40.5l-66 -36l-33 -13l-41 -16zM92 33q-11 12 -20 25q0 2 -2 6l-4 4q15 37 67 90q31 29 51.5 43t43.5 22l18 -4l8 -6q60 0 81 -35
q16 -18 16 -43q0 -8 -2 -18q-4 -14 -43 -45q-42 -33 -68 -39l-39 -16q-43 -17 -55 -17q-25 10 -52 33z" />
    <glyph glyph-name="semicolon" unicode=";" horiz-adv-x="475" 
d="M353 572l-41 32q-27 25 -27 37q13 64 139 148l21 4q12 0 20 -2q0 -2 2 -2q60 0 82 -35q21 -25 21 -49q0 -6 -2 -13q-2 -10 -45 -49q-48 -34 -62 -34l-59 -23zM156 129l10 31l6 33l17 35q12 30 47 50.5t71 20.5q19 0 46 -14q25 -16 31 -29q-13 -39 -101 -168l-41 -55
l-43 -66q-6 -8 -21 -31q-14 -24 -18 -30l-25 -58q-2 -20 -43 -43q-43 -24 -67 -24q-10 0 -12 14l53 108l62 126l16 59z" />
    <glyph glyph-name="less" unicode="&#x3c;" horiz-adv-x="1049" 
d="M1247 1168l-20 -103l-935 -368l775 -381l-22 -103l-887 428l23 107z" />
    <glyph glyph-name="equal" unicode="=" horiz-adv-x="596" 
d="M457 400h-8q-53 0 -119 -19l-137 10l-41 -2l-23 -2q-28 0 -32 25q4 16 16 31q11 12 19 16l26 20q35 58 61 58q35 0 45 -4l99 4h223q16 0 27 -19q4 -12 4 -20q0 -6 -4 -27q-17 -84 -107 -84l-20 6zM508 617h-8q-70 0 -125 -21q-47 4 -84 6t-111 2q-28 0 -34 25
q14 33 37 51l12 8l12 9q12 22 31 38q16 17 31 17l143 -4l223 4q17 0 27 -19q4 -12 4 -24q0 -4 -4 -21q-17 -84 -105 -84z" />
    <glyph glyph-name="greater" unicode="&#x3e;" horiz-adv-x="1049" 
d="M269 1168l890 -420l-22 -107l-1071 -428l23 103l939 381l-779 368z" />
    <glyph glyph-name="question" unicode="?" 
d="M144 -4l10 17q15 20 17 22q10 12 30 29q33 33 47 33q23 12 45 30l53 35q21 10 47 10q66 0 73 -55q-11 -49 -58 -90q-47 -46 -92 -64l-43 -8q-35 -6 -72 -27h-18q-27 0 -33 16q-6 17 -6 52zM525 1037q-56 34 -80 112q-10 12 -14 17l-15 26q-6 6 -6 17q0 6 2 12l33 76
q16 36 41 63q22 25 57 25q16 0 45 -13l33 -12q354 -110 354 -338q0 -16 -2 -37q-4 -20 -6 -32q-12 -52 -16 -66q-11 -29 -29.5 -66.5t-32.5 -64.5q-16 -27 -41 -57q-35 -54 -39 -60q-14 -20 -47 -61l-98 -125l-49 -74l-35 -59q-27 -25 -133 -39q-4 6 -4 8q-6 14 -6 27l45 73
l51 82l58 97l42 75q16 19 33 45q14 27 31 62q32 67 45 131q4 20 4 31q0 59 -56 120q-24 31 -67 66t-53 35l-9 -17q2 -4 2 -14q1 -4 1 -8q0 -10 -3 -21q-8 -34 -30 -41z" />
    <glyph glyph-name="at" unicode="@" horiz-adv-x="1481" 
d="M1319 563q158 107 182 222q17 75 17 133q0 63 -17 119q-32 100 -108 163q-76 64 -166 90q-90 27 -186 27q-179 0 -346.5 -92t-278.5 -246q-113 -155 -156 -342q-6 -49 -6 -94q0 -107 39 -203q64 -141 185.5 -219t281.5 -78q135 0 264 51q127 52 258 175h92
q-77 -78 -129 -121q-65 -56 -147 -97q-156 -71 -350 -71q-80 0 -150 14q-69 15 -133 44q-119 54 -190 153q-74 98 -99 227q-4 43 -6 65.5t-2 43.5q0 77 19 157q26 121 96 238q63 117 178 225q113 109 262 174q148 63 324 63q192 0 325 -79q134 -80 185 -215q30 -80 30 -172
q0 -60 -12 -121q-22 -100 -94 -182t-166 -131l-51 -35q-23 -15 -43.5 -27t-36.5 -20q-37 -17 -61 -17l-19 6l-31 -4q-36 0 -57.5 33t-21.5 68l6 63q0 14 -6 17q-15 0 -43 -21q-29 -20 -41 -39l-17 -10l-12 -6l-37 -31l-45 -37l-29 -16q-22 -31 -90 -68q-67 -37 -108 -37
q-31 0 -50 25q-16 16 -16 45v12l19 31q12 18 16 33q0 12 -14 12l4 43l30 74q9 18 45 39l39 28l56 43q34 50 143 121l84 60l98 67q152 96 213 96q23 -6 37 -41q-2 -16 -26 -47q-27 -32 -72 -47q-21 -37 -103 -86l-45 -37q-26 -26 -51 -39l-35 -38l-28 -19l-19 -14
q-18 -25 -73 -68l-62 -55l-14 -23l-19 -22l4 -4q37 6 68 26l84 68q57 47 88 61q82 101 186 101q17 0 23 -37l4 -43l-33 -76q-2 -8 -2 -16q0 -45 60 -51l67 14q17 4 41 24z" />
    <glyph glyph-name="A" unicode="A" horiz-adv-x="983" 
d="M21 -129q-44 -15 -68 -15q-16 0 -16 27q0 14 2 25l14 41l21 51l18 41q42 88 50 90q4 15 16 43q12 29 29 62q37 65 43 88q-19 0 -25 -4q-21 2 -26 14q-2 2 -2 8q0 11 4 31q16 72 59 129q41 57 111 57q6 11 10 17q22 35 33 49q32 61 59 92l36 82q29 61 76 125q19 27 55 106
q31 78 62 123q27 45 76 76l10 10l-10 17q-9 16 -9 28q29 39 43 52q13 10 46 18q30 6 55 33q22 24 33 53l39 12l45 31l43 27q16 10 34 10q19 0 39 -12q17 -13 17 -21v-2q-6 -14 -9 -20q-10 -23 -32 -60l-37 -65v-4q0 -9 6 -13q6 -6 37 -22l43 -21q18 -10 26 -24
q25 -29 27 -74q0 -10 -2 -21l-20 -141l-2 -12l-11 -35l-8 -29l2 -26q2 -8 2 -17q0 -14 -4 -30q-6 -29 -10 -50q-6 -20 -21 -61l-12 -96q6 -12 14 -19q5 -4 5 -12v-8q-5 -25 -15 -39l-39 -31l-18 -61l-19 -70q-20 -35 -32 -98q-11 -39 -17 -62q-8 -24 -16 -36v-35
q-16 -17 -41 -82q-14 -41 -21 -58q-6 -16 -16 -28l-8 -17q-12 -51 -96 -80q-17 0 -17 21q0 6 2 14l19 74l20 92l17 66l16 65q0 2 10 63.5t15 92.5l20 96l-68 -14q-65 -14 -81 -14q-17 0 -115 -31l-86 -31l-80 -33q-21 -6 -29 -6q-10 -2 -37 -2q-10 -24 -16 -39
q-12 -26 -39 -69l-27 -35l-22 -25q-29 -76 -43 -104l-29 -49l-10 -13q-25 -66 -53 -119q-31 -53 -45 -57zM830 629l2 8q12 19 24 76l2 63l17 39q-2 15 -2 27l4 43l22 88l-8 10l-6 21q-6 35 -33 67q-26 33 -57 33q-23 0 -45 -27q-25 -26 -43 -59l-33 -57l-37 -47
q-12 -15 -22 -29q-13 -16 -15 -20q-38 -76 -67 -117q-4 -6 -4 -8q-10 -17 -10 -19q-14 -29 -21 -33q-59 -59 -69 -96l18 -6l24 -6l39 10l47 6l49 4h50l45 4q65 25 129 25z" />
    <glyph glyph-name="B" unicode="B" horiz-adv-x="1024" 
d="M117 -121q-49 0 -74 22q-28 19 -35 58q25 24 48 43q20 17 32 25q21 14 45 18l25 6l106 402q7 24 7 43q0 24 -13 37q-6 10 -22.5 18t-36.5 12q-4 13 -6 31q-2 19 -2 27l16 35q12 10 68 32q14 7 39 21q6 2 14 8q14 29 27 57q6 17 22 58l37 135l29 100q14 39 41 70l65 61
q41 35 43 49v3q0 2 -2 4q-4 2 -16 2l-70 -6l-100 -17l-82 -16l-6 20l-2 19q12 26 20 32l21 17l18 16q6 25 60.5 52.5t78.5 27.5h17l18 4q14 6 55 15q39 8 64 12l141 12l98 8l74 8q37 0 60 -6q20 -6 22 -8q0 -2 2 -2q35 0 61.5 -4t63.5 -16q59 -21 98 -66q29 -35 29 -78
q0 -8 -4 -28q-16 -66 -53 -121q-39 -56 -88 -92q-21 -17 -54 -39q-32 -23 -61 -41l-133 -82q-10 -8 -37 -21.5l-39 -19.5l-53 -25q-29 -28 -84 -55l-103 -49q-45 -23 -67 -55q10 -35 43 -54q16 -8 45 -20q27 -13 49 -19q64 -18 84 -30l86 -39q62 -29 100 -60q39 -24 64 -69
q14 -27 14 -62q0 -10 -4 -35q-12 -63 -55 -102q-45 -39 -96 -65l-140 -54l-139 -41q-35 -12 -76 -23q-43 -10 -84 -20q-86 -19 -135 -19l-16 2l-15 2q-2 -10 -6 -20q-10 -18 -14 -29l-21 -47q-10 12 -36 12q-27 0 -43 -12q-13 8 -15 12zM641 416l-119 41l-59 22l-10 -4
q-17 -20 -39 -75l-55 -170q-37 -117 -50 -129l9 -7l8 -6q35 4 162 37q18 4 39 15q20 8 49 24l69 33q150 45 164 96v6q0 25 -41 58q-47 36 -127 59zM957 1020q20 10 63 53q41 43 47 72v10q0 35 -35 60q-38 32 -139 45l-43 2l-53 2q-59 0 -86 -49q-29 -51 -55 -148l2 -30
l-21 -25q-18 -23 -35 -76q-8 -41 -41 -112q11 -11 19 -13q31 4 53 21l86 55l137 78z" />
    <glyph glyph-name="C" unicode="C" horiz-adv-x="1024" 
d="M244 -43q-61 16 -104 86q-33 68 -43 154v92t4 72l12 39q2 8 2 14v8l-2 14q19 68 76 203q55 135 113 230l31 41l36 51l2 6l8 6l8 4l56 70l65 74q35 32 68 47q4 14 28 34l103 70q82 57 182 98q98 41 166 41q203 0 203 -123v-16l-4 -57q0 -21 -2 -43q-4 -25 -6 -35
q-8 -45 -21 -62v-38l-72 -170q-57 -129 -78 -154q-10 -14 -18 -27q-14 -22 -23 -41l-36 -61q-23 -31 -119 -43l-37 12v35q31 119 78 228.5t101 195.5l30 39q25 24 35 41q8 16 12 29q3 10 7 28v4q0 31 -79 76l-20 2l-27 2q-125 0 -233 -67q-109 -70 -191 -183
q-84 -114 -134 -235l-41 -111q-19 -53 -33 -86t-27 -51l2 -31q0 -28 -4 -41l-8 -37l-10 -30l14 -37q16 -51 21 -66q2 -14 2 -35l3 -47q13 -4 31 -26l37 -49q47 -50 100 -60q29 0 37 -4q49 0 76 4q24 4 92 23q68 16 123 61q12 6 20 6q17 0 35 13q17 26 31 28q11 0 11 -14
q0 -6 -2 -14q-11 -41 -58 -80q-47 -41 -97 -68l-86 -35q-34 -14 -69 -27q-35 -12 -70 -20q-35 -11 -80 -11q-41 0 -73 9q-29 4 -82 22z" />
    <glyph glyph-name="D" unicode="D" horiz-adv-x="1065" 
d="M576 1188l-109 41l-84 47q-6 4 -10 10q-4 4 -6 11v6q0 14 4 49v37q16 28 29 35q12 4 24 4h19l12 -4l22 8l17 4q24 0 65 -12.5t58 -26.5l12 2l8 2q25 0 41 -14q10 -8 19 -10l10 -5q41 -4 73.5 -14t65.5 -29q57 -26 127 -90l109 -86q61 -55 96 -151q22 -62 22 -129
q0 -47 -12 -101q-43 -200 -305 -475q-8 -8 -23 -20q-16 -15 -28 -23l-60 -49q-20 -20 -32 -45l24 10l25 6q10 0 16 -2q2 -2 2 -6v-4q-6 -27 -41 -55.5t-90 -59.5l-106 -62q-48 -28 -105 -59q-59 -31 -98 -47q-86 -37 -172 -37q-66 0 -66 47q6 29 31 53l70 48l51 29
q16 12 37 12l45 6q26 8 63 33q264 156 451 397l24 21l19 18l24 47l37 78l25 88q-4 10 -8 12q-7 15 -7 19v51q-4 21 -6 35q-4 14 -10 27q-8 12 -18 32q-11 21 -21 35q-16 21 -24 31l-52 61q-8 15 -14 17q-27 10 -45 22q-20 10 -55 37l-64 41q-16 -10 -43 -70l-45 -102
l-129 -307l-100 -240l-105 -246q-14 -41 -67 -108.5t-80 -67.5l-14 6l-5 19l-2 16q15 39 41 123q21 62 31 94l68 240q16 59 28 94q13 33 41 96q4 19 4 33q0 8 -2 14l6 9q7 12 23 57q14 43 23 68l51 147q22 53 47 68l43 34l45 39q14 11 37 15z" />
    <glyph glyph-name="E" unicode="E" 
d="M537 0q-193 -72 -400 -72q-24 0 -36 6q-15 6 -21 29l8 33q-39 6 -45 11.5t-6 29.5l8 19l6 32l11 52q51 167 57 186q29 92 61 182l15 49l12 37l21 39l2 8l6 31l57 156q19 53 37 104q18 49 29 70q34 75 77 141q41 66 105 117q49 35 113 76q61 41 102 63q41 23 84 37
q43 12 88 12l49 4l57 4l35 -2l37 -2h31l55 -30q6 -11 6 -27q0 -6 -4 -27l-18 -55l-10 -33q-13 -37 -23 -45q-12 -10 -53 -22l-17 4q-67 30 -157 30l-92 -10l-91 -8q-28 0 -51 -22q-12 -11 -24 -27q-4 -6 -23 -33l-35 -59v-17l-16 -45l-12 -24q-11 -19 -19 -31l-24 -47
q-74 -150 -103 -240q27 0 66 33q45 33 69 43l43 14l68 21l47 6l80 4l78 4q84 0 84 -63q0 -8 -4 -37q-6 -29 -25 -64q-6 -14 -16 -24l-8 -8q-121 12 -230 12q-20 0 -57 -8q-39 -8 -68 -15l-88 -18q-43 -12 -78 -29q-28 -18 -53 -71l-41 -105l-53 -127l-31 -96l-2 -35
q23 0 41 -8q18 8 86 8q254 0 475 111q17 8 31 8q20 0 20 -23q0 -10 -2 -16q-14 -74 -188 -154q-41 -20 -133 -47z" />
    <glyph glyph-name="F" unicode="F" horiz-adv-x="832" 
d="M416 1149q27 47 65.5 92t92.5 92q100 84 200 107l15 2l14 2q27 0 31 -4q39 16 55 16h148q51 0 63 -28q4 -17 4 -29t-2 -31q-4 -18 -6 -28q-25 -117 -74 -123l-39 10l-45 10h-59q-88 0 -160 -18q-74 -19 -86 -86l-16 -21q-17 -12 -19 -16q-14 -23 -28 -53q-17 -33 -31 -78
q-31 -90 -53 -129q-19 -41 -27 -64q-10 -22 -16 -47l143 37l129 29q61 8 74 10h45q139 0 139 -53v-4l-22 -78q-19 -57 -31 -66l-27 -12l-63 18q-45 15 -82 15q-150 0 -328 -49q-24 -7 -43 -25q-14 -18 -27 -63q-20 -93 -81 -232l-9 -37q-14 -73 -51 -155l-10 -64l-16 -80
q-5 -21 -11 -33q-6 -14 -20 -35q-23 -28 -55 -28q-48 0 -48 73q0 29 12.5 93.5t26.5 93.5v10v23q19 39 35 110q10 41 10 66q25 51 39 123l23 113l4 12l-31 -6l-41 -11l-12 11l2 14q6 41 86 92q47 25 66 119l30 80l35 100l23 70l26 80q6 16 16.5 34.5t16.5 28.5z" />
    <glyph glyph-name="G" unicode="G" horiz-adv-x="1100" 
d="M568 60q-129 -85 -244 -97q-64 0 -123 23.5t-92 69.5q-25 43 -25 127q0 67 19 155q16 88 75 240q60 151 115 231q23 35 53 80q31 45 66 92q61 82 100 111q10 29 31 43l82 65q147 140 285 181q43 16 68.5 22t45.5 6l17 -6l16 -6l23 4l24 4q82 0 125 -67q41 -70 74 -183
l2 -32l8 -48l-18 -47v-12q-19 -22 -41 -43q-23 -20 -41 -35q-37 -26 -86 -39q-29 6 -29 37q0 12 2 21q0 88 -6 137q-8 47 -33 82q0 33 -31.5 56.5t-70.5 23.5q-70 0 -209 -97q-103 -73 -197 -215q-31 -43 -80 -141q-18 -45 -37 -78q-18 -33 -32 -49q-64 -158 -76 -201
q-12 -65 -16 -120q-7 -58 -7 -119q0 -107 103 -107q57 0 121 29q61 22 120 70l95 81l110 107l82 80q27 20 64 20q30 0 61 -14q29 -10 29 -33v-8q-31 -149 -88 -246l-90 -196q-68 -146 -91 -179l-16 -47q-14 -41 -43 -70q-20 -30 -70 -39q-6 -30 -28 -47q-25 -18 -49 -18v20
l-2 21l43 135q12 41 28 84q15 41 27 70l29 96l24 86q4 33 4 66q-20 -6 -51 -27l-72 -51z" />
    <glyph glyph-name="H" unicode="H" horiz-adv-x="1024" 
d="M337 457l-52 -172q-10 -51 -10 -94t16 -43l16 6l19 16l14 19l6 2l11 2q14 0 20 -2q2 -2 2 -6v-5q-37 -53 -49 -71q-41 -58 -78 -94q-59 -62 -131 -62q-22 0 -27 12q-6 10 -6 20q0 7 4 23q2 17 9 62q6 43 6 76q0 37 2 59q2 23 10 59q6 29 6 41v7l10 30l11 27
q-15 53 -21 90q-8 37 -8 70q8 14 18 30q11 17 35 43q43 54 56 86q71 185 153 461l29 94q10 39 18 60q6 18 15 33l75 59q21 14 60 14q41 0 57 -16q16 -19 16 -41q0 -8 -2 -25q-4 -16 -10 -30.5t-16 -36.5q-27 -72 -62 -156q-43 -106 -57 -139l-51 -133l-37 -105l-4 -6
q0 -12 24 -20q72 26 119 26l53 -6l60 8l45 6l80 -8q51 0 78 6q24 5 67 19l27 47q8 16 16 33q6 14 8 28l9 37q41 92 84 291l10 49l51 56l43 47l47 43l27 18q12 8 26 14l41 17h17q8 -6 8 -29q0 -20 -8 -65q-10 -45 -26 -97q-17 -51 -48 -137l-6 -8l-2 -29l-10 -22l-8 -21
q-66 -196 -131 -299q-4 -20 -13 -45q-10 -24 -22 -49l-46 -104q-14 -27 -20 -45q-8 -21 -14 -50q-9 -20 -23 -36q-14 -19 -20 -35q-9 -49 -31 -97l-66 -133q-24 -45 -39 -78q-14 -32 -26 -66l-35 -77q-27 -62 -45 -86l-23 -15l-32 -18l-31 6q-10 2 -12 6q-4 2 -7 4l3 41
l2 43l14 35l18 33l19 68l18 65l45 117l52 125l70 176q30 74 36 107l-161 -29q-148 -18 -185 -35q-57 -28 -114 -28l-47 -33q-31 -23 -39 -35z" />
    <glyph glyph-name="I" unicode="I" horiz-adv-x="416" 
d="M92 0l17 193q14 43 24 80q9 34 15 53q4 16 10 24q6 9 8 13v6l6 22l8 45l17 52q4 16 16 53q10 35 29 88q16 39 31 82q12 43 18 69.5t6 47.5q0 12 -2 28q-2 17 -16 17v16l4 23l16 43l19 49q2 4 2 8q0 8 -4 16l45 88l63 127q39 74 80 119q41 39 96 39q60 31 86 31t26 -31
q0 -8 -6 -35.5t-18 -56.5q-4 -10 -29 -55l-37 -82q-8 -43 -28 -88q-6 -23 -21.5 -54.5t-25.5 -56.5l-45 -96l4 -4q-111 -236 -153 -441l-37 -118l-41 -109q-13 -55 -13 -111v-32q4 -25 4 -37q-10 -25 -36 -38q-29 -14 -52 -38q-24 -9 -47 -9q-39 0 -39 47v13z" />
    <glyph glyph-name="J" unicode="J" horiz-adv-x="680" 
d="M254 148q23 2 43 26q12 13 21 29q8 14 12 23l29 59l20 51l60 127l61 135l59 111q10 53 29 96l43 111l45 114q4 13 14 47q10 35 14 50l4 24v15q0 26 -10 36q-22 23 -70 23l-4 14q33 45 82 82q50 37 101 51q70 64 121 76q16 0 27 -16q7 -17 7 -60l-6 -39l-8 -53
q-27 -121 -121 -344l-39 -78l-47 -92l-24 -78q0 -14 -16 -32l-13 -23q-49 -78 -141 -272q-6 -6 -31 -58q-24 -43 -37 -69q-26 -60 -45 -97q-18 -36 -36 -69q-27 -53 -60 -81l-45 -12l-59 -18l-43 -4q-58 0 -82 32q-33 34 -37 68q-6 33 -10 66t-4 66q0 73 -7 96l-2 67v76
q0 27 2 41q7 19 7 27q18 86 30 92q6 12 56 12q30 0 51 -10q18 -10 22 -23q11 -12 17 -38l16 -46q-2 -4 -2 -10q0 -24 25 -96l-9 -37l-10 -24l-16 -13l-19 -8l-10 -18l4 -41q0 -35 10 -60q13 -18 31 -24z" />
    <glyph glyph-name="K" unicode="K" horiz-adv-x="983" 
d="M541 113l-33 59l-26 51l-21 62q-10 8 -29 43l-34 90l-27 76q-2 10 -6 14q-6 2 -8 4q-15 -10 -29 -43q-16 -33 -33 -96q-8 -37 -22 -68q-7 -14 -15 -34.5t-12 -34.5l-27 -103l-28 -104q-11 -29 -56 -29l-10 2l-12 2l-19 -2l-18 -2q-15 10 -19 19v45l8 20q4 15 20.5 72
t20.5 76l45 157q13 35 23 64q10 26 29 63q6 35 20 52l14 24q4 21 9 45q4 25 4 51l70 203l61 191l51 127q13 51 50 77q12 11 47 29q43 25 61 33l19 14l18 10q22 0 35 -30q7 -23 7 -41q0 -8 -2 -17l-36 -88q-58 -106 -117 -248q-62 -143 -111 -292l5 -4q16 0 80 53
q28 22 67 59q37 35 88 84l121 113q131 106 262 291q27 32 33 61q-6 16 -10 23q-15 14 -15 28q15 29 33 41q6 8 31 21l43 18l47 16q10 5 45 15q6 2 19 6l26 8l23 6q6 -4 12 -10q4 -6 10 -20q-20 -88 -53 -150q-33 -61 -70 -76q-77 -106 -145 -174l-60 -51q-22 -18 -27 -23
q-4 -4 -8 -10l-45 -47l-49 -45l-53 -45l-60 -47q-32 -25 -55 -53q-24 -17 -45 -31q-20 -14 -37 -33q-18 -18 -24 -43l6 -67l22 -74l23 -68q17 -88 37 -129l25 -63q16 -31 33 -49q14 -21 49 -27q41 8 65 23q25 10 37 18q29 18 43 29q43 30 74 43l22 4q13 0 13 -19
q0 -10 -4 -28q-5 -21 -33 -47q-31 -27 -66 -35l-41 -39l-32 -31l-33 -35q-90 -51 -154 -51q-55 0 -84 29q-12 14 -26 39q-15 22 -27 53z" />
    <glyph glyph-name="L" unicode="L" horiz-adv-x="643" 
d="M56 109q26 88 182 500l16 55l17 57q2 4 2 8q0 21 -23 47q23 41 51 125q13 43 23 70q10 25 26 57l50 113q41 94 73 139l43 70q23 37 52 65q28 29 63 29q39 16 53 16q11 0 25 -20q8 -14 8 -35q0 -14 -2 -20l-35 -105l-47 -114l-49 -113q-16 -57 -29 -96q-14 -41 -18 -47
q-6 -7 -15 -35q-14 -35 -32 -51q-2 -11 -15 -46q-14 -34 -32 -77l-47 -101l-54 -137l-57 -141l-37 -117q0 -39 4 -55q2 -17 14 -25q25 10 54 10l65 5q152 24 244 75q37 25 66 25l6 -10v-17l-23 -53l2 -23l-2 -32q-4 -17 -14 -25l-25 -16l-33 -17q-32 -22 -77 -41t-113 -37
l-84 -25l-88 -8l-86 -8q-55 0 -74 29q-20 0 -26 6q-7 4 -17 22l-2 38v24q10 25 17 62z" />
    <glyph glyph-name="M" unicode="M" horiz-adv-x="1252" 
d="M166 25q-16 -21 -53 -35.5t-68 -14.5q-2 6 -2 17v10q-1 3 -1 7q0 3 1 8v47q17 26 29 84l37 125l28 59q9 35 9 49v6l32 103l41 112q23 54 31 87.5t10 43t2 31.5l17 51l14 50l29 67q24 55 26 72q72 336 127 385l52 33q41 22 57 43q20 0 57 16q17 8 27 10q8 2 14 4
q19 -2 23 -22q0 -23 -15 -88q-24 -109 -34 -197q-13 -84 -13 -123v-16l4 -146q0 -63 25 -116q20 -52 82 -60q41 6 82 29q41 20 86 55l74 66l75 76q62 61 123 122q47 50 86 93l37 49q29 39 60 63q20 21 53 21q41 35 63 35q25 0 25 -41q0 -29 -12 -78q-33 -150 -88 -269
q-31 -69 -70 -149q-49 -102 -103 -205q-61 -121 -98 -203q-39 -82 -65 -155l-58 -135q-16 -2 -41 -17l-41 -39l-37 -32l-12 -7l-24 -6q-6 4 -6 8q12 62 60.5 178.5t62.5 163.5q14 48 26 82q13 33 37 90l82 199q8 23 39 100q17 44 31 87v4q0 8 -15 8q-12 -2 -14 -4l-101 -95
l-96 -90l-49 -41l-66 -49q-10 -6 -22 -12q-14 -6 -31 -12q-45 -43 -84 -64q-41 -20 -82 -20q-73 0 -133 104l-20 74q-17 51 -27 53q-12 -10 -16 -18l-33 -78l-23 -64l-116 -327l-60 -146q-26 -73 -47 -106z" />
    <glyph glyph-name="N" unicode="N" horiz-adv-x="1141" 
d="M-13 -37l79 193q221 575 301 835q16 48 24 68q9 18 23 41l6 49q19 72 53 117q35 43 99 43l22 -4l21 -12l16 -17q16 6 55 51q43 45 70 45q16 0 29 -12q8 -8 8 -20q0 -4 -2 -9q-8 -32 -18 -49l-41 -65l-42 -72q-16 -33 -24 -65q0 -35 4 -64q2 -29 10 -72l19 -108
q4 -19 8 -49q2 -31 2 -60q2 -24 8 -55q4 -33 8 -47q17 -53 33 -143l25 -144q4 -29 10 -51q4 -25 16 -55q10 -33 33 -43q37 43 180 452q74 221 123 455q16 74 55 160q17 39 39 77q23 39 47 78q82 58 97 58q8 0 8 -25q0 -20 -6 -51l-31 -105l-30 -100q-2 -20 -35 -117
q-25 -90 -68 -227t-80 -254q-51 -156 -88 -250q-45 -119 -88 -205l-21 -43q-8 -14 -14 -24q-6 -12 -16 -25q-11 -22 -29 -39l-64 -25q-53 -22 -88 -26q-24 0 -51 53q-14 27 -24 60q-13 31 -25 74l-29 143l-24 133l-29 104l-22 93l-23 98q-10 39 -18 45q-11 0 -68 -113
l-100 -207q-51 -112 -94 -200q-46 -90 -80 -156l-6 -29q-7 -34 -46 -90l-49 -82l-18 -8l-23 -6l-12 -5l-15 -4q-14 0 -14 19l4 24l12 41z" />
    <glyph glyph-name="O" unicode="O" horiz-adv-x="1100" 
d="M658 92q-9 -4 -43 -28q-35 -27 -58 -43l-90 -27l-98 -31q-27 -6 -39 -8t-41 -2q-84 0 -131 53q-43 54 -53 134q0 38 2 77q0 39 8 86l-2 9l54 167q2 7 4 13q0 4 10 20q4 6 10 21q4 12 6 16q4 21 4 35q0 12 -6 12q-10 -8 -10 -12q-11 -33 -50 -43q-20 8 -20 22l21 52
q4 12 10 26q4 13 10 25l33 51q53 66 101 137l108 176q30 56 54.5 95t53.5 82q23 34 59 83q27 37 39 54l43 26l25 15q27 0 27 -29q0 -10 -4 -29q-5 -18 -49 -84l-14 -30q1 -13 3 -17l23 13q6 4 10 10q2 4 4 6q31 39 121 80q28 33 53 47q6 4 22.5 10t22.5 6l45 9l29 12
q18 12 29 12q96 -18 170 -92q73 -76 100 -178q20 -62 20 -125q0 -21 -2 -45q-4 -25 -6 -37q-45 -221 -162 -391q-116 -172 -235 -273.5t-221 -167.5zM703 256q43 31 78 62q34 28 63 57q47 47 68 82l41 72q22 41 36 55q54 98 72 188q4 25 8 52q4 24 4 47q-2 18 -2 26
q0 39 -6 70q-8 31 -18 59q-19 60 -68 99t-123 39q-164 -15 -342 -191l-59 -152l-61 -159q-21 -60 -37 -133l-16 -60l-19 -61v-111v-43q0 -20 4 -43q12 -82 88 -82q47 0 84 11q37 8 61 24q17 6 23 10t47 33z" />
    <glyph glyph-name="P" unicode="P" 
d="M86 -185q-41 0 -41 64v22q4 19 4 27l29 115q6 21 19 64q6 24 12 49q4 14 4 22q0 5 -2 7l-33 14l-22 12q-5 8 -5 12l9 21q6 16 16 22l39 19q25 10 35 22q16 27 35 91l20 71q131 367 260 703q-12 32 -18 47q-6 12 -21 35q-14 22 -20 39q-8 16 -15 34q9 33 52 76
q41 41 84 62q47 38 69 38q17 -4 21 -8l12 -6q55 0 145 -65q172 -113 253 -275q53 -104 53 -229q0 -45 -2 -68.5t-12 -70.5q-23 -101 -82 -179q-56 -77 -144 -137q-45 -31 -92 -55q-47 -27 -101 -49q-237 -101 -358 -113q-6 -10 -16.5 -37.5t-18.5 -54.5l-20 -72
q-2 -16 -2 -45q0 -60 26 -72q-110 -152 -172 -152zM849 672l22 88q8 35 8 78q0 168 -156 330l-35 39l-30 30l-39 27q-17 8 -45 8l-9 -8v-8l11 -9l14 -14l29 -55q8 -17 18 -35q10 -20 10 -33q2 -6 2 -16q0 -17 -6 -41l-14 -27l-27 -53l-28 -68l-29 -57l-66 -113v-10v-16
l-20 -37q-29 -41 -66 -129q-16 -39 -28 -76q-15 -37 -23 -63q-2 -6 -2 -11q0 -16 19 -24q114 31 245 100q56 29 97 53q41 25 65 43q58 41 83 107z" />
    <glyph glyph-name="Q" unicode="Q" horiz-adv-x="1100" 
d="M211 424l10 -100q5 -43 9 -60q2 -16 10 -41q16 -43 45 -75q33 -29 84 -35l35 12l-31 74l-47 88q-17 31 -21 57q-32 82 -32 164q0 43 2 96q2 52 8 109l8 22q39 160 136.5 305.5t234.5 247.5q137 103 295 152q39 8 75 8q99 0 172 -49q66 -47 99 -131q14 -37 14 -94
q0 -51 -16.5 -131t-42.5 -160q-29 -82 -68 -158q-20 -45 -41 -82q-20 -39 -49 -80q-49 -75 -82 -98l-14 -16l-4 -17q-2 -16 -21 -41l-53 -49l-43 -39q-16 -18 -31 -32q-14 -15 -63 -58l-64 -53q-12 -12 -24 -43q10 -27 47 -70l47 -60l76 -63l61 -59l21 -15l20 -18
q12 -17 22.5 -25t32.5 -26q39 -29 43 -50q-6 -32 -41 -45q-34 -14 -67 -14q-35 0 -105 39l-59 33l-86 47q-23 14 -37 26q-22 19 -39 35q-26 17 -76 86q-49 70 -75 70q-109 -59 -203 -59q-96 0 -150 53q-55 51 -73 131q-9 35 -9 82v54q7 24 9 34q32 148 98 269q16 30 57 41
q13 0 21 -7q6 -4 6 -10v-4l-12 -20l-7 -31q3 -6 3 -16q0 -17 -7 -46l-6 -30zM991 600q74 121 103 260q14 66 14 134q0 32 -2 49q0 80 -55 141q-53 53 -152 53q-69 0 -133 -30q-63 -31 -127 -89q-55 -55 -94 -122q-41 -70 -53 -131q-23 -109 -23 -201q0 -144 58 -277
q12 -30 26 -61q12 -31 33 -70q20 -41 49 -51q92 41 209 195q49 55 94 125z" />
    <glyph glyph-name="R" unicode="R" horiz-adv-x="1065" 
d="M158 -68h-12q-29 0 -47 21q-19 18 -23 51q6 9 10 29l43 145q13 41 29 92.5t22 90.5l9 39q-13 14 -21 22q-20 19 -24 35l2 31q10 41 26 61l58 25q20 12 28 26q23 37 49 168l48 250l43 238q18 80 96 131q78 49 160 49q67 0 159 -19.5t168 -56.5q127 -67 190 -137
q47 -47 47 -129q0 -27 -6 -57q-16 -64 -55 -111q-41 -47 -105 -86q-54 -39 -149 -82l-106 -53q-10 -6 -68 -31q-41 -20 -65 -31q-49 -18 -64 -24q-41 -19 -80 -35q-38 -19 -43 -39q-2 -8 -2 -16q0 -19 11 -35q14 -25 69 -86l62 -60l92 -84l106 -94l65 -69q15 0 39 -21
q25 -20 29 -37q43 0 66 -45q10 -31 10 -60q0 -10 -6 -45t-20 -53h-13q-28 0 -63 35q-8 12 -117 61q-108 56 -141 85l-78 63l-94 76q-152 139 -176 139q-17 -20 -47 -96l-64 -164q-14 -35 -22 -56q-15 -34 -25 -51zM923 908q80 49 93 104q0 100 -174 168q-16 10 -104 31
q-89 18 -127 18h-39q-19 0 -43.5 -8t-51.5 -41l-20 -64q0 -47 20 -55q45 39 80 39q25 0 33 -14q8 -17 8 -31v-14q-4 -11 -4 -17q-6 -35 -22 -76q-17 -43 -50 -104q-20 -39 -45 -96q-26 -60 -28 -68l4 -8l6 -12q279 123 464 248z" />
    <glyph glyph-name="S" unicode="S" horiz-adv-x="756" 
d="M109 -125l-49 18q-29 10 -41 29q-11 10 -11 31q0 8 2 18q5 21 15 31l31 27l32 18l35 21l141 63l129 58h17q20 0 20 -21q0 -6 -2 -12q-4 -14 -14 -19l-29 -12l-28 -12q-15 -10 -17 -21l2 -4l6 -8q19 2 41 21l52 41l36 34v17q4 10 14 20l25 21l26 22l15 29q2 8 2 22
q0 37 -31 84q-51 82 -102 152q-53 68 -98 113q-19 18 -19 45q0 8 3 16q-11 0 -31 37q-23 37 -23 86q6 22 6 63q50 148 160 265q78 67 162 120q84 54 188 103q25 12 92.5 40.5t94 39t59.5 10.5q35 0 51 -25q8 -16 8 -41q0 -14 -2 -26q-4 -12 -6 -23l-12 -30q-11 -21 -19 -31
q0 -2 -4 -4q-192 -146 -346 -205l-18 -4q-23 4 -23 26q0 5 2 11q6 20 31 39l51 32q27 17 29 37q-6 6 -10 6l-8 -4q-86 -39 -154 -110q-70 -74 -94 -152q0 -69 35 -149q16 -33 34 -66q19 -33 44 -72l95 -141q33 -63 39 -110q4 -15 4 -50v-43q-6 -22 -8 -30q29 0 29 -29
q0 -8 -2 -18q-6 -25 -19 -35q-12 -11 -41 -23q-12 -4 -24 -12q-15 -8 -25 -12q-12 -7 -39 -33l-28 -29l-63 -51l-105 -57q-43 -23 -67 -40q-25 -16 -48 -33l-55 -26l-76 -31q-34 -12 -67 -12z" />
    <glyph glyph-name="T" unicode="T" horiz-adv-x="756" 
d="M379 -43q-6 -17 -22 -17l-13 2l-8 2q-10 3 -10 52q0 29 4 45q2 17 6 39q2 21 2 45l21 55l-2 56l14 37l14 34l19 129q18 41 22 64l58 182l59 197q22 67 37 90q12 53 41 137q10 35 21.5 70t15.5 57q-6 10 -15 17q-8 6 -24 6l-45 -9l-47 -10q-88 -12 -170 -49l-43 -8
q-17 0 -21 24q16 43 31 60q6 29 12 41q4 10 17 35q22 41 36 53q19 29 45 39q27 8 54 14q24 4 45 4l71 10l29 -8q55 21 150 21l88 -4l88 -4l53 -9q20 -4 27 -4q6 -2 12 -8l12 2l12 2q22 0 22 -37q0 -18 -6 -47l-16 -37l2 -16l-4 -27q-6 -28 -22 -28q-45 0 -141 24
q-113 0 -120 -24l19 -21l24 -47q8 -14 8 -35q-2 -16 -2 -24q-4 -19 -18 -60q-16 -43 -49 -125q-51 -118 -123 -301q-71 -184 -133 -346l-10 -28l-12 -33q0 -27 -6 -51l-31 -125q-8 -37 -10 -52q-4 -16 -8 -25q-7 -8 -11 -8l-24 -10z" />
    <glyph glyph-name="U" unicode="U" horiz-adv-x="1065" 
d="M214 391q-6 11 -6 54l16 55l-2 49l14 35l15 41v10q0 47 41 246q34 151 54 176q17 82 29 129t33 119q8 26 38.5 53t53.5 27q12 0 20 -39q7 -41 21 -49q43 -25 43 -78q0 -19 -4 -37q-4 -21 -14 -47q-10 -29 -20 -53q-13 -27 -27 -68q-14 -43 -19 -57l-4 -29q-4 -20 -20 -55
l-27 -62q-4 -18 -10 -26l-8 -50l-8 -47l-19 -55q-4 -24 -10 -74.5t-6 -83.5v-59q0 -23 2 -31v-8q0 -58 12 -96q10 -43 39 -84q22 -25 36 -25q45 0 82 29q35 27 74 74q21 24 29 32q18 23 35 33q49 62 88 142l88 178q30 59 49 92q27 47 47 76q11 51 60 159l65 146q0 6 21 41
l24 43l13 28l16 25l23 23l-2 8q20 51 54 110q9 23 52 46.5t65 23.5q17 0 19 -16v-41l-8 -52q-8 -43 -14 -63q-15 -55 -37 -119q-23 -63 -27 -74q-14 -39 -31 -71l-84 -189l-90 -196q-135 -299 -200 -516l-5 -33l-2 -31q23 -14 23 -31q0 -4 -2 -8q-4 -14 -29 -37l-27 -33
l-45 -29l-45 -32q-16 -11 -41 -11q-34 0 -34 48q2 12 2 20l6 23l4 14q2 6 2 13q0 8 -4 16q55 143 74 223v6q0 15 -9 15q-6 -2 -10 -4q-6 -2 -13 -9l-24 -32l-17 -23q-30 -37 -57 -65q-29 -31 -55 -54q-51 -47 -115 -77q-35 -19 -67.5 -28.5t-71.5 -9.5q-35 0 -57.5 16.5
t-34.5 45.5l-19 57l-14 62q-6 35 -6 80q0 53 11 141l6 8z" />
    <glyph glyph-name="V" unicode="V" 
d="M482 8l-27 -14l-33 -23q-29 -29 -63 -43h-33q-76 0 -76 47q6 29 21 48l28 35l15 14v4q0 14 -15 82q-10 76 -10 127q-12 10 -12 68q0 61 8 100q-12 10 -12 78q0 24 4 53q2 29 10 72q-4 12 -4 39q0 26 6 71q4 43 10 80q4 35 15 78q-11 6 -11 39l4 49l21 92l8 74l4 61
q19 84 58 146q32 67 63 88l25 8l36 12l31 13l31 10l20 4q27 0 27 -25v-10l-10 -70l-10 -67q-23 -105 -60 -180q0 -33 -12 -97q-4 -20 -19 -88q-16 -67 -30 -213q-15 -145 -27 -207q6 -6 6 -20q0 -16 -2 -27l-14 -59q12 -6 14 -33l2 -74q0 -49 4 -61q0 -20 13 -20
q12 2 102 122q80 103 160 246l67 103l82 129q15 26 27 51q6 16 22 53l27 86q6 27 15.5 52.5t27.5 64.5q16 37 57 57l29 10l37 13l20 10l23 10q24 0 24 -24q-6 -29 -16 -68q-13 -39 -29 -84q-35 -90 -59 -113q-11 -51 -91 -176q-2 -8 -6 -10l-4 -20q-2 -7 -4 -9
q-2 -4 -10 -12t-25 -35q-18 -26 -49 -78q-16 -34 -34 -67q-21 -33 -29 -43l-57 -84l-47 -68q-43 -76 -99 -147q-22 -29 -43 -53q-6 -7 -14 -17l-2 -51q-4 -18 -20 -35q-27 -26 -46 -39z" />
    <glyph glyph-name="W" unicode="W" horiz-adv-x="1368" 
d="M482 47q-13 -49 -46 -72q-34 -22 -73 -22q-49 0 -56 26v15q0 25 -4 59l-12 72v55l21 43q-17 13 -17 80q0 33 2 47q0 15 15 111l4 113v86l4 32q2 19 2 29v10q0 13 -6 33q-9 21 -27 29l20 151q62 250 113 344q17 74 55 154q37 78 103 78q53 -6 74 -68q14 -37 14 -82
q0 -14 -4 -43q-6 -28 -60 -182v-33l-24 -84l-29 -92q0 -16 -2 -31q-8 -40 -14 -69l-19 -92l-14 -92q-6 -29 -6 -48v-8q2 -6 2 -24v-31l-12 -94l-11 -86q0 -105 7 -109q26 0 55 60l41 51q18 24 27.5 36.5t11.5 16.5l69 121q9 14 21 28q10 13 22 27l82 160q33 59 51 94
q11 19 39 80q37 72 54 141q6 31 22 66q14 33 33 59l16 25l23 22q26 19 65 33q37 12 66 12h20q15 -8 15 -37q0 -16 -2 -26l-23 -76l-39 -104l-33 -84l-34 -92l-43 -115l-29 -94q-18 -84 -18 -117v-10l-15 -45l-14 -48l-12 -83q-11 -46 -11 -66q0 -14 4 -18q21 0 52 55
l104 174l90 158l31 45l27 39q6 34 30 84l72 135l76 141q10 27 22 53q10 25 15 47q34 160 149 197q2 -6 4 -16q0 -11 -4 -29q-43 -213 -117 -371q-125 -286 -184 -352q-6 -27 -20.5 -57.5t-40.5 -71.5l-66 -113q-72 -143 -152 -241q-81 -101 -196 -113q-47 18 -53 25
q-15 14 -15 47q0 100 15 192q6 10 10 31v31v28l10 60q2 8 4 24q0 15 2 25q0 4 -2 8l-4 4l-8 -4q-6 -2 -10 -8l-27 -43l-25 -37l-98 -143q-4 -19 -82 -125l-35 -54l-24 -32z" />
    <glyph glyph-name="X" unicode="X" horiz-adv-x="983" 
d="M94 29q7 24 29 57l105 129q90 111 131 170q4 17 51 64l65 76q23 24 29 51v6q0 22 -16 74q-13 43 -15 59q-2 10 -2 20v13q0 49 -18 133l-23 133q0 25 2 51q0 25 7 56q-13 30 -13 71q2 19 2 29q4 14 13 35q6 18 16 37l47 73q12 15 25 41q8 10 8 13q59 53 100 53
q37 0 37 -37q33 -31 33 -84q0 -23 -6 -47q-6 -43 -35 -68q-10 -55 -10 -188q0 -139 14 -150l2 -67q0 -60 16 -60q17 27 39 56q23 28 62 69l86 94l62 70q14 16 53 66q49 65 51 82l-14 -5l-17 -8l-14 -8l-17 8l-12 11l-6 18q25 55 131 123l153 104q17 13 41 25q7 2 17 8
q18 0 37 -29q12 -24 12 -39v-6l-10 -28l-16 -39v-27q-4 -16 -17 -33l-12 -24q-14 -31 -31 -58q-16 -28 -41 -55q-45 -59 -100 -110l-113 -109q-43 -39 -139 -150q-45 -51 -80 -88q-37 -38 -63 -65l-21 -33q0 -33 2 -49q2 -18 15 -72l12 -30l10 -25q17 -33 17 -74
q12 -51 24 -73l51 -134q31 -63 31 -84v-4q-2 -10 -15 -18l-28 -8l-27 -4l-4 4q-64 14 -105 65q-40 58 -75 146l-43 112l-15 33l-8 27q0 4 -10 8q-23 -6 -62 -51l-40 -49q-17 -27 -37 -56q-21 -28 -60 -73q-30 -37 -49 -64q-20 -29 -29 -43q-47 -35 -102 -109l-49 -61
q-21 -29 -37 -39q-14 -15 -31 -15q-12 4 -12 31q0 16 6 41q19 84 55 105z" />
    <glyph glyph-name="Y" unicode="Y" 
d="M205 -37q6 29 21 60q12 28 18 43q33 61 57 86q17 47 31 76q12 28 33 57l49 70l22 57q-24 16 -43 55q-4 8 -8 27q-6 18 -22 78q-10 51 -10 53q-7 20 -13 35v16q1 5 1 12q0 6 -1 15q-4 28 -4 35l-4 120q0 23 2 70t2 74q6 73 19 131q-9 0 -9 59l2 31l2 29l19 51
q8 28 26.5 46.5t47.5 18.5l20 4q49 25 82 25q29 0 47 -31q10 -22 10 -41q0 -10 -2 -20q-6 -31 -16 -80q-12 -49 -35 -125q-8 -59 -10 -106q-2 -48 -2 -105l-4 -74v-65q-2 -33 -2 -64q0 -28 6 -51q6 -22 16 -43q23 6 47 43l97 141q69 107 86 121q22 43 43 80q20 35 51 78
q31 41 61 80q53 63 82 100l129 166q37 47 66 47q20 -6 32 -37q-55 -258 -198 -424q-2 -14 -23 -55q-22 -35 -37 -47q-2 -12 -92 -104l-59 -78q-49 -68 -80 -99l-53 -82l-56 -81q-59 -101 -108 -156l-43 -105q-14 -28 -31 -69q-16 -41 -20 -60l4 -10l6 -18l2 -15
q-12 -27 -39 -43q-29 -18 -51 -21q-2 -8 -27 -18q-24 -10 -53 -10q-37 0 -63 12q-23 8 -23 27q0 4 2 8z" />
    <glyph glyph-name="Z" unicode="Z" horiz-adv-x="873" 
d="M115 -68l-27 -2l-30 -2q-54 0 -83 27q-28 24 -28 62q0 16 6 43q4 24 30 65q9 12 26.5 37t33.5 41l94 90l68 60l127 122l90 88q8 15 25 31q14 17 20 25l98 96q33 33 54 51q18 19 24 27l111 125q20 22 70 82q20 24 41 49q47 65 57 106q0 33 -47 52q-19 6 -54 14
q-34 8 -71 12l-96 19l-144 -7l-121 -2q-20 0 -20 37q8 27 27 60q18 30 32 37q31 108 168 108q72 0 80 -16l62 4l77 -6l95 -19l75 -16q11 0 45 -23l60 -28q67 -66 67 -144q0 -12 -4 -41q-12 -61 -53 -125q-20 -34 -43 -65t-51 -60q-31 -30 -58 -53q-28 -22 -53 -37
q-14 -20 -22 -30.5t-29 -30.5l-53 -57l-62 -58q-22 -18 -37 -31l-36 -36l-21 -25l-35 -31l-49 -37q-20 -36 -49 -63l-55 -55l-56 -45q-2 -15 -18 -33l-53 -49q-31 -29 -54 -58q-22 -28 -30 -57h14l39 -2l25 -2l32 8l47 -12q11 6 37 14q27 8 49 12l142 27q76 16 119 39l36 12
q23 13 35 19q56 24 80 24q17 0 17 -26q0 -15 -7 -37q-2 -25 -22 -45l-43 -29l-62 -22l-47 -15q-37 -28 -92 -45l-86 -37q-59 -28 -129 -47l-141 -33z" />
    <glyph glyph-name="bracketleft" unicode="[" horiz-adv-x="948" 
d="M692 -135q-92 -50 -319 -50q-45 0 -80 21q-35 18 -47 43q10 49 39 140q6 20 51 151q66 219 103 309l51 160l63 191q12 39 33 92q18 51 32.5 86t30.5 76q7 14 39 80l43 102q23 43 52 86q34 37 79 57l58 17l41 10q139 49 219 49q43 0 65 -12q4 -17 4 -31q0 -10 -2 -18
l-14 -33l-25 -23l-39 -14l-33 -10h-47q-153 0 -217 -144l-104 -262l-110 -291q-111 -297 -152 -432l2 -14l-2 -8q-70 -142 -88 -206l2 -24q8 -4 43 -8l70 -15l92 21l92 18l12 -4q9 -4 11 -14q0 -4 -2 -8l-25 -41q-4 -19 -23 -41z" />
    <glyph glyph-name="backslash" unicode="\" horiz-adv-x="916" 
d="M727 13q4 24 4 38q0 107 -92 322q-82 199 -172 432q-10 27 -98 260q-23 60 -57 160l-7 94l-8 101q4 12 45 12l62 -12q14 -5 42.5 -9t41.5 -6q10 -22 18 -53q8 -33 12 -49l25 -156q14 -110 31 -164l59 -155l69 -185q19 -43 33 -84q12 -43 20 -67l48 -142l47 -139l26 -114
v-19q1 -5 1 -10t-1 -10q-4 -21 -6 -33q-16 -72 -40 -72q-49 0 -103 60z" />
    <glyph glyph-name="bracketright" unicode="]" horiz-adv-x="948" 
d="M269 -135q-138 -45 -228 -45q-35 0 -51 10q-16 8 -16 35v6l14 32q35 54 72 54l28 -2l31 -2q61 0 108.5 14t81.5 46l29 53l33 59q4 19 20 66q5 10 35 88l58 157l81 224l97 264l65 188q74 168 82 211v4q0 9 -10 15l-43 8l-64 10q-55 -14 -86 -22q-65 -17 -98 -17l-14 4
l-4 11l-4 8q12 30 28 55q15 23 33 37q33 27 117 39q84 10 143 10q148 0 174 -65l-65 -183l-54 -170l-59 -182l-61 -201l-45 -133l-52 -153q-10 -31 -16 -54q-8 -24 -29 -73l-51 -119l-80 -154q-22 -41 -73 -82q-52 -43 -127 -51z" />
    <glyph glyph-name="underscore" unicode="_" horiz-adv-x="1024" 
d="M-33 -152h1024l-22 -104h-1024z" />
    <glyph glyph-name="grave" unicode="`" horiz-adv-x="568" 
d="M678 1045q27 -21 90 -51q66 -27 92 -54q-6 -18 -22 -30q-19 -13 -31 -13l-55 17l-78 26q-37 17 -59 37q-23 4 -80 45q-58 39 -80 43l-10 31l-13 29q2 8 2 14t-2 10l11 27q41 37 84 37h20q45 -101 131 -168z" />
    <glyph glyph-name="a" unicode="a" horiz-adv-x="832" 
d="M46 197l4 29l6 30q18 88 182 189q41 53 151 127l203 145l141 80q50 22 93 22q28 -6 41 -43q-6 -20 -31.5 -55t-74.5 -49q-35 -41 -113 -96q-10 -4 -23 -13q-18 -16 -28 -26q-29 -31 -56 -41q-18 -27 -36 -43l-29 -21l-21 -12q-12 -14 -34.5 -35.5t-51.5 -44.5l-63 -55
l-16 -25l-15 -18l-6 -10l4 -4q41 10 73 30l97 76q32 27 55 43q20 14 39 23q18 20 42.5 42.5t51.5 36.5q53 33 107 33q18 0 20 -16l9 -35v-41l-27 -63q-2 -9 -2 -25q0 -25 8 -39q18 -27 49 -29q51 9 115 60q6 -4 6 -8l-4 -25l-4 -31l-14 -28q-7 -35 -46 -68q-18 -18 -43 -33
q-24 -14 -39 -20q-41 -19 -71 -23l-9 4l-14 5l-31 -5q-41 0 -65 37q-22 29 -22 60q0 6 2 12l2 43l2 35v4q1 1 1 2t-1 2q-5 4 -7 6l-41 -24l-53 -46l-14 -10l-15 -4q-75 -74 -121 -92q-10 -16 -30.5 -33.5t-50.5 -34.5q-56 -36 -95 -36l-36 -13q-76 0 -76 101l10 20
q5 16 17 33l14 22v4q0 11 -16 17z" />
    <glyph glyph-name="b" unicode="b" horiz-adv-x="721" 
d="M500 92q-64 -73 -160 -137q-98 -64 -170 -64q-63 0 -86 56q-6 20 -8 57q-2 35 -2 72l16 143q-6 -2 -12 -6t-16 -14q-13 -10 -23 -21q-2 0 -6 -2v17l16 61l17 53q4 5 6 7l18 18l35 29q12 10 17 24q22 72 47 129q22 56 45 95q6 28 37 92l61 131l57 116q47 101 107 195
q59 92 127 170l39 39q30 29 45 53q6 2 20 6q15 4 51 25q64 29 87 29h38q37 0 37 -45q0 -11 -4 -35l-12 -49l-10 -35q-23 -39 -37.5 -66.5t-42.5 -89.5q-56 -111 -76 -141q-29 -49 -55 -88q-11 -17 -58 -78l-168 -209l-159 -209l-25 -43l-18 -47l-21 -57l-2 -62v-84
q6 -35 23 -55q96 14 147 88l-8 8q-6 4 -21 8q-26 13 -26 25q12 63 84 143l53 62q10 14 25 28q12 13 32 29q31 25 58 25l16 -4h55q43 0 43 -25v-6q-6 -31 -26 -64l-53 -84q-13 -18 -25 -34q-20 -29 -29 -48l-51 -65q-20 -25 -31 -37q-10 -12 -18 -29zM574 131l26 25l97 82
q34 28 63 53q27 23 37 41q14 -6 14 -10l4 -35l2 -35q-6 -33 -20 -45l-66 -43q-16 -6 -65 -43l-80 -49q-29 -16 -57 -16l-4 8l-7 8l15 20q4 9 20 21zM482 764l36 51l23 33q18 25 37 62q26 53 43 84l63 114q23 27 27 47q0 4 -6 9l-10 -5l-64 -86l-57 -82l-56 -81l-45 -78
l-43 -94q-12 -23 -24 -54q-15 -32 -17 -41q23 6 93 121z" />
    <glyph glyph-name="c" unicode="c" horiz-adv-x="680" 
d="M97 340l53 35l67 37q2 22 138 113q135 88 213 127l49 30q28 19 69 35q52 14 99 14l1 -47l-2 -41q-16 -65 -201 -147q-24 -39 -114 -88q-80 -43 -119 -74q-32 -22 -49 -86l-16 -35q2 -18 2 -26l4 -29l23 -18l94 -15l20 4l33 6l23 13q28 12 53 24q24 13 90 51
q108 68 123 101l8 8q4 -2 10 -4t8 -8l8 -21l-6 -35l-4 -32q-14 -43 -163 -127q-101 -60 -185 -95t-172 -35q-90 0 -157 85q-11 32 -11 98l2 57l-28 -18q-9 -8 -23 -17q-2 0 -4 -4v13l25 118l14 13z" />
    <glyph glyph-name="d" unicode="d" horiz-adv-x="948" 
d="M197 4q-51 -29 -78 -29q-88 0 -88 76q25 82 78 164l-15 4l-8 -2l-8 -2l-20 -18l-19 -17q-4 3 -10 13q5 18 17 35l12 24l-2 12l2 21q8 51 148 127l73 70l84 71q17 12 36.5 24.5t29.5 14.5q14 17 35 35q18 18 34 31l80 59l64 43l39 27l30 18l39 10q21 19 80 133l71 136
l158 229q27 35 44.5 54.5t31.5 33.5q14 12 24 19q21 14 45 24h15q33 0 33 -41q0 -18 -6 -43q-16 -80 -64 -143q-6 -27 -20 -56l-41 -63l-29 -49q-16 -72 -90 -152q-20 -53 -53 -86q-12 -39 -61 -100q-50 -64 -66 -146q-18 -81 -18 -139q0 -133 99 -145l142 55l8 -4l5 -8
l-9 -19l-10 -20l-2 -33l-5 -37q-49 -47 -118 -69q-72 -25 -136 -25q-69 12 -110 53q-34 40 -34 95v4v16q-9 14 -11 33q0 6 2 12v19q1 4 1 7q0 4 -1 7q-2 8 -4 10q-17 0 -64 -43q-18 -20 -32 -37q-17 -16 -29 -37l-96 -90l-109 -100q-14 -14 -41 -33q-27 -18 -53 -33z
M535 420l60 70l73 86l11 39l10 37l-64 -43q-12 -9 -22 -17q-10 -10 -23 -27l-28 -28q-49 -39 -158 -164t-121 -176q10 0 43 22l70 60l80 74z" />
    <glyph glyph-name="e" unicode="e" horiz-adv-x="609" 
d="M92 80q0 17 -9 43q-15 23 -15 70q0 30 4 59q2 27 11 72l12 37l29 51l32 51l35 53l47 60q35 51 61 61q60 62 152 103q10 16 41 28q28 13 61 13q60 0 85 -37q12 -4 12 -25q0 -16 -6 -47q-15 -72 -39 -80q0 -8 -51 -63l-105 -99q-57 -45 -98 -61l-39 -35l-41 -27l-14 -26
q0 -53 22 -72.5t74 -32.5q137 13 249 93q13 2 45 30q31 29 43 29q7 0 9 -4v-4q0 -6 -2 -17l-2 -18q-10 -39 -12 -47q-13 -37 -25 -49l-123 -68l-133 -74q-17 -6 -27 -8q-12 -4 -25 -6l-59 -10l-57 -10l-33 4q-57 6 -109 63zM449 588q-35 0 -84 -47t-67 -88q6 -4 7 -6
q2 -2 4 -2l37 16q21 12 29 23q25 6 48 34q22 23 30 50v4q0 8 -4 16z" />
    <glyph glyph-name="f" unicode="f" horiz-adv-x="568" 
d="M180 -580q-22 -8 -45 -8q-41 0 -53 25q-18 22 -18 69q0 41 -8 62l4 16q0 84 57 420q15 47 46 185q8 55 10 71q0 6 -3 9l-53 -33l-64 -43l-28 -21q-4 2 -10 13l25 55q2 18 4 31q0 10 4 28l69 58q68 57 84 79l101 136l20 133q53 180 125 334q69 153 162 284q57 90 98 137
q39 48 92 48q55 0 55 -48q0 -10 -4 -26.5t-8 -50.5q-4 -37 -6 -60q-12 -59 -37 -133l-74 -207l-45 -96l-53 -104l-55 -91q-29 -43 -74 -88q-27 -26 -63 -108l-66 -178l-71 -238q-8 -39 -15 -47l-14 -113l-31 -105l-10 -127h4q19 0 55 56q19 24 39 57q21 33 31 55l53 109
l45 82l29 72q20 49 34 61q7 39 60 56q12 0 12 -19q0 -4 -4 -28q-10 -43 -23 -64q9 -12 9 -22l-4 -31q-11 -57 -64 -152l-63 -125q-54 -121 -181 -303q-49 -57 -80 -72zM660 1049l24 65l29 90q2 11 2 17v4q-2 4 -8 4q-8 -4 -58 -86l-73 -115l-23 -45q-12 -32 -26 -51l-7 -24
q-10 -48 -26 -68l-15 -51q-4 -23 -4 -35v-7q0 -8 4 -12q11 3 31 50q29 12 84 108q49 86 66 156z" />
    <glyph glyph-name="g" unicode="g" horiz-adv-x="721" 
d="M422 -424q-119 -115 -250 -176q-18 -11 -51 -25q-35 -14 -59 -20q-56 -19 -83 -19l-57 10q-21 2 -35 11q-16 6 -22 26q-27 4 -27 25v10q0 17 4 57q12 66 53 131.5t95 118.5q27 27 55 54q27 24 70 59l119 98q2 4 2 11q0 26 -23 72q-28 55 -43 104q-6 25 -6 55q0 33 6 74
q4 2 8 17q-20 -9 -34 -15q-17 -8 -35 -20l-49 -35l-35 -23l2 9l10 57l10 57q6 10 88 66q82 59 99 80q26 12 59 49l57 61q13 35 115 115q103 78 154 106q6 7 8 9q10 10 25 18l57 29q20 20 59 37q37 12 60 12q30 0 41 -25q3 -10 3 -30q0 -19 -4 -35.5t-22.5 -49t-38.5 -32.5
q-27 -31 -43 -47q-19 -17 -58 -45l-143 -101q-47 -30 -98 -67q-23 -17 -47 -35q-25 -21 -52 -111v-6q0 -12 -4 -37l21 -80q4 -22 17 -43q4 -10 30 -49q107 80 348 224q11 10 17 16l12 8q6 0 6 -14q0 -15 -8 -49l-13 -60q-57 -49 -123 -96q-65 -47 -135 -88q-45 -21 -65 -54
q28 -33 39 -104q2 -15 2 -41q0 -27 -2 -43.5t-9 -46.5l-20 -72l-23 -31l-24 -33zM269 -391q38 30 55 102q4 14 4 45q0 27 -2 43q-4 14 -8 27q-6 12 -19 22q-6 -2 -10 -2q-4 -2 -16 -12l-41 -37l-41 -37q-13 -12 -31 -16l-10 -15l-10 -14l-82 -78l-58 -59q-19 -21 -21 -35
l-24 -35q0 -49 47 -49q113 12 267 150z" />
    <glyph glyph-name="h" unicode="h" horiz-adv-x="756" 
d="M451 223q-113 -100 -119 -122q-80 -99 -168 -161l-29 -4l-36 -4q-31 0 -48 23q-8 12 -15 49l6 72l8 64l16 69l-14 -18q-14 -11 -21 -11l15 62l16 70l33 26l27 27q36 84 75 166t72 139q61 121 143 238q8 8 29 34q18 25 38 56q41 63 82 98l41 55l64 62l51 51q53 63 150 133
q104 76 139 76q16 0 26 -25q33 0 44 -16q10 -10 10 -27q0 -8 -2 -16q-18 -86 -47 -109q-16 -67 -63 -112q-37 -82 -101 -170q-37 -52 -78 -101q-24 -28 -49 -57l-164 -176l-92 -84l-74 -72l-47 -43l-51 -47q-14 -14 -18 -31.5t-13 -40.5q-8 -22 -30 -71l-43 -119
q0 -25 5 -35q23 0 117 119q133 178 154 221q20 27 61 39t78 12q14 -6 16 -26l7 -80q0 -27 4 -49q4 -25 8 -37q18 -35 65 -35l6 -4q52 6 99 43l6 2l6 2q13 0 13 -14q0 -5 -2 -11q-19 -88 -44 -110q-16 -17 -41 -25l-37 -24q-26 -11 -61 -21q-35 -12 -63 -18q-27 2 -99 35
l-24 45q-15 38 -37 38zM592 805l33 37l31 39q6 8 26 16l36 45l47 70l51 65l67 97q9 14 19 39q8 22 10 34v9h-4q-15 0 -48 -31q-20 -21 -39.5 -41t-52.5 -57l-90 -95l-43 -36q-2 -23 -28 -52l-41 -36q-2 -11 -74 -127q-71 -117 -78 -140l2 -6q8 4 12 8q29 23 72 68
q68 78 92 94z" />
    <glyph glyph-name="i" unicode="i" horiz-adv-x="609" 
d="M434 953q8 45 54.5 92t85.5 55q12 25 55 45q41 19 84 19q18 -7 24 -27q-35 -103 -59 -133q-8 -21 -18 -37q-13 -19 -29 -31q-25 -24 -66 -45l-40 -22q-27 0 -41 -4q-43 0 -48 24l6 6q-10 21 -10 41q0 8 2 17zM35 180v7q0 10 4 36l12 50l13 43l51 43q33 30 57 41l62 65
q49 43 73 55q21 27 31 37q8 8 23 15q86 0 112 -60v-12v-9q0 -24 -8 -73q0 -22 -2 -57t-2 -45q0 -17 6 -43q4 -29 47 -37l29 8l53 20q6 7 13 15q13 14 32 26q28 19 45 23l-17 -66l-14 -61q-71 -98 -255 -141l-41 12q-25 16 -33 22q-8 7 -23 29q-14 23 -18 51l-6 45
q-8 4 -21 52q-12 45 -30 45q-19 0 -60 -33l-69 -60q-19 -8 -39 -24z" />
    <glyph glyph-name="j" unicode="j" horiz-adv-x="609" 
d="M842 1116q-18 -49 -53 -73q-29 -25 -101 -62h-14h-20l-50 6q-4 29 -4 58v22q23 58 56 88q30 31 86 62q12 20 45 39q39 16 67 16q43 0 43 -29q0 -4 -2 -10q-12 -61 -53 -117zM33 176q8 29 8 60l10 61l9 15l22 20l43 33q76 57 121 100q63 55 141 137l131 125q39 29 66 29
q31 0 45 -14q10 -13 10 -27q0 -6 -2 -14l-18 -70l-17 -72q-6 -26 -14 -59t-20.5 -66.5t-22.5 -62.5q-12 -31 -35 -80l-53 -139q10 -8 18 -8l74 55l68 53l24 33q6 8 15 18q16 21 27.5 31t31.5 14l-4 -28l-2 -43l-4 -49q-25 -13 -66 -60q-35 -47 -61 -63q-78 -54 -131.5 -99
t-81.5 -86q-39 -51 -72 -117l-72 -137q-38 -80 -69 -123l-35 -47l-45 -64q-55 -79 -87 -104q-28 -29 -67 -29h-21q-34 0 -34 31q0 6 2 14l10 72q16 53 41 88q6 35 35 84q26 49 70 109q139 184 209 252q10 8 36 80l52 156q26 88 43 112l8 68q4 35 4 45t-6 10h-17
q-32 0 -108 -76q-158 -141 -209 -168z" />
    <glyph glyph-name="k" unicode="k" horiz-adv-x="797" 
d="M174 -84q-67 0 -67 88q0 23 2 37q27 84 60 131l-2 25l14 39l23 53l12 47l-10 -4q-48 -57 -167 -147h-12l11 22l12 21q-2 6 -2 16q0 18 6 49q2 8 10 21q6 12 17 26l65 62l51 47q33 61 117 188l117 174l69 129q45 99 137 240l41 72q19 32 35 61q16 27 25 37q22 33 40 35
q68 0 68 -129q-6 -33 -29 -84q-22 -54 -57 -123l-35 -53l-53 -88l-172 -287q-6 -27 -79.5 -180.5t-79.5 -176.5q-21 -36 -25 -47q-10 -24 -29 -69v-4q0 -17 8 -23l19 10l122 168l23 58q18 55 49 92q29 35 74 35l16 8t13 8l71 100l82 109l25 37l41 53q12 18 35 29l6 2l6 2
q28 0 28 -47q0 -23 -4 -47q-6 -25 -24 -58l-45 -63l-41 -54l-49 -59l-50 -61q-18 -21 -34 -58v-4q0 -24 37 -57q18 -64 73 -64q37 0 103 64q14 -12 14 -23q2 -8 2 -16q0 -10 -4 -21q-10 -43 -45 -88q-39 -45 -86 -73q-47 -31 -96 -31q-15 0 -39 14l-23 23q-16 14 -24 22
l-45 43q-17 15 -35 15q-19 0 -29 -17q-12 -16 -139 -143q-13 -8 -45 -44l-58 -51q-22 -18 -45 -18z" />
    <glyph glyph-name="l" unicode="l" horiz-adv-x="680" 
d="M727 185q-88 -56 -178 -95q-43 -18 -86 -30.5t-76 -12.5l-39 13q-88 0 -127 69q-16 31 -22 70q-8 39 -8 90q-11 -4 -29 -14q-20 -11 -63 -37q-56 -37 -62 -62v13l8 32l11 35l12 60l147 129q17 69 41 141q23 70 56 139q71 148 147 266l201 293q18 25 37 49q8 11 45 48
q108 114 168 114q61 0 61 -67q0 -19 -6 -47q-25 -119 -80 -232q-57 -112 -127 -211q-31 -47 -82 -114q-41 -56 -113 -148l-147 -188l-29 -25l-24 -22q-4 -25 -4 -66q0 -152 131 -166q14 2 35 6q18 2 38 13l97 53q67 35 102 47l-10 -51l-14 -54zM535 760l49 64l49 61
q6 4 43 76q37 69 57 96l-2 10l19 49l16 37q-139 -108 -168 -184q-43 -107 -94 -158q-2 -6 -12 -30q-13 -25 -27 -52q-33 -57 -39 -86q19 0 109 117z" />
    <glyph glyph-name="m" unicode="m" horiz-adv-x="1368" 
d="M195 8l-21 -4l-18 -4q-31 6 -31 29v8q2 19 23 62l51 100l47 90q16 31 18 51v8q1 3 1 6q0 4 -1 7q-16 0 -49 -21l-69 -63l-70 -64q-25 -20 -43 -24l12 67l8 51q23 31 62 64l90 76l70 57l133 115q49 37 100 37q47 0 47 -39q0 -6 -2 -13l-18 -63l-35 -74l-29 -71l2 -7h4
q15 0 52 27l120 92l97 76l90 76l49 28q29 13 57 13q21 0 27 -19q4 -18 4 -39q0 -22 -4 -34q-10 -46 -31 -95l-43 -104q-10 -25 -18 -51q-10 -27 -12 -43l38 28l27 25q70 55 137 96q66 35 127 35q15 -2 39 -39q21 -41 21 -76t24 -78q25 -43 53 -43q21 0 33 11l39 26l33 29
l20 6q-6 -33 -14 -47l-8 -80q-6 -31 -41 -53q-4 -4 -27 -14q-24 -13 -61 -25l-60 -20q-18 2 -79 34q-11 6 -19 21q-10 12 -29 39q-28 51 -51 75q-22 23 -61 23q-8 -4 -15 -6q-26 -12 -38 -19l-72 -55l-119 -112q-43 -39 -53 -48q-39 -34 -57 -45q-29 -29 -70 -29
q-25 0 -35 38q4 18 12 38q6 19 17 41l53 109l55 108q21 48 29 87l2 12h-16q-15 0 -35 -10l-39 -33l-43 -33q-17 -12 -35 -12q-8 -11 -39 -39q-33 -31 -80 -72q-100 -88 -127 -117z" />
    <glyph glyph-name="n" unicode="n" horiz-adv-x="983" 
d="M252 -41q-16 -31 -90 -31q-37 0 -45 8v23q2 2 10 28q2 9 2 15t-2 11l29 65q24 41 29 57l47 88q6 13 12 25q4 10 6 27l10 24q21 25 29 54v4q0 12 -14 12q-31 0 -54 -25l-75 -71l-68 -60l-43 -33q-2 9 -2 13l14 55l13 55q10 33 37 50q38 57 116 120q45 37 68 58
q20 18 35 32q22 21 57 50q33 28 51 39q41 32 94 32q56 0 56 -61q0 -19 -9 -53q-8 -35 -34 -91l-29 -51l-51 -100q-45 -76 -51 -105l18 9l27 26l32 35q41 39 121 94q56 56 107 90q49 35 104 35q31 0 62 -12l18 -43q14 -37 16 -49l17 -70q6 -51 24 -65l15 -9l10 -4q23 6 59 39
q35 31 47 33q-18 -86 -18 -113q0 -6 2 -10q-70 -67 -119 -100q-51 -33 -94 -33q-43 10 -55 25q-4 4 -12.5 18t-16.5 29l-24 65q-13 33 -29 43q-6 43 -35 43q-22 0 -86 -51q-31 -22 -59 -43q-31 -22 -56 -37q-22 -35 -55 -65l-92 -78z" />
    <glyph glyph-name="o" unicode="o" horiz-adv-x="832" 
d="M187 25q-53 20 -53 88v18q6 19 14 37q6 19 10 37l27 76q-12 0 -35 -12l-51 -39l-43 -35q-14 -10 -25 -10l3 12l20 55l-2 10l-2 7l6 34l131 113l139 104q12 17 26.5 32.5t32.5 29.5l90 65l82 58l31 4q31 0 45 -6q12 -6 12 -15v-4l-18 -24l-18 -31q8 0 26 6q19 4 35 8
q43 17 65 17q80 0 113 -64l2 -33q4 -16 4 -26q0 -12 -4 -33q-14 -74 -57 -151l-55 -68q-39 -39 -46 -57l-34 -27q-31 -25 -45 -45l-127 -94q-37 -27 -90 -49q-56 -26 -109 -26q-94 0 -100 38zM613 273q18 14 45 75q8 13 14 43q4 29 4 35q0 49 -51 49q-29 0 -51 -12l-62 -47
q-39 -51 -78 -51q-32 -33 -54 -70q-25 -37 -41 -86q-6 -29 -6 -43t2.5 -24.5t31.5 -16.5q127 37 246 148zM654 56q-13 0 -19 16q12 16 27 33q14 14 33 28l77 68q41 39 60 63q37 23 78 64q14 -8 14 -14l4 -35l2 -27q-6 -29 -31 -49q-24 -23 -63 -43l-53 -31l-68 -41
q-53 -32 -61 -32z" />
    <glyph glyph-name="p" unicode="p" horiz-adv-x="797" 
d="M8 -545l-23 -37q-18 -24 -32 -31h-21q-29 0 -45 15q-12 10 -12 28q0 7 2 15q39 176 88 323q39 111 64 176q22 66 70 181l16 43l16 47l13 45l-37 -18l-29 -29l-25 -20q-4 -4 -18 -8l-2 12l2 8l6 23v20q12 12 21 64l35 24l49 37q22 16 22 27q8 26 51 71l43 49l78 95l90 112
q9 19 15 21q30 39 55 76q16 24 35 53l24 22l27 23l23 6q8 0 17 -25q2 -10 2 -20q0 -23 -6 -49q-10 -43 -39 -78l-41 -68l-12 -32q-8 -7 -55 -93q-31 -63 -53 -104q-33 -53 -47 -80l-104 -190q-17 -29 -35 -70q-19 -43 -37 -90l-55 -119q-19 -39 -39 -93q-23 -53 -29 -73
q14 2 27 24l34 82l46 86q49 120 124 242q74 123 175 242q40 68 98 68q22 0 39 -9q16 -12 16 -18q4 -6 12 -27q17 -38 19 -45q10 -24 22 -47q13 -22 21 -39q22 -28 59 -39q31 2 65 27l45 25l-4 -35l-12 -51l-10 -37q-28 -19 -47 -29q-18 -12 -49 -24q-51 -23 -76 -23
q-31 0 -61 12q-8 4 -27 23q-31 31 -39 37l-20 26q-11 21 -21 29q-2 4 -18 8q-10 0 -25 -14l-28 -35l-17 -27l-88 -145l-86 -142l-74 -133q-67 -137 -108 -192l-25 -58l-20 -33z" />
    <glyph glyph-name="q" unicode="q" horiz-adv-x="797" 
d="M23 164q15 27 25 80l4 22l2 19q2 18 27 43q4 4 14 12t37 27l57 33q149 110 225 145q12 23 123 84q129 68 186 68q21 0 37 -25l23 -35q-4 -20 -22 -33l-48 -22l-28 -14l-39 -35l-60 -33q-34 -18 -51 -35l-73 -59q-31 -25 -58 -45q-26 -21 -53 -47q-43 -35 -51 -58
q-33 -26 -41 -51v-20l3 -5l47 25l60 27q22 22 57 49q35 24 86 57q99 62 131 88q33 27 54 27q30 -10 45 -31q14 -20 14 -37q0 -8 -4 -24l-8 -41q-4 -27 -10 -54q-8 -26 -23 -61q-26 -74 -26 -76q-19 -35 -25 -49l-59 -136l-91 -206l-100 -228q-41 -90 -45 -100
q-6 -12 -41 -74q-35 -37 -82 -37q-22 0 -22 37q37 62 84 215l14 25l8 16l-2 12l25 52l20 55l23 63l18 62q29 76 113 328q6 31 6 47q0 17 -9 17q-12 0 -28 -13l-39 -30l-33 -25q-164 -131 -268 -164q-35 -13 -64 -13q-39 0 -57 64v4q0 9 -4 21l60 129l-23 -6l-20 -15z" />
    <glyph glyph-name="r" unicode="r" horiz-adv-x="680" 
d="M39 205l4 25l6 39l7 34l30 29l37 37q14 16 17 31l32 30l35 35l33 39q24 31 41 41v14v17l-2 14l2 14l37 27l45 29q47 37 88 37q59 0 114 -68q7 -20 17 -20q12 -17 12 -46q23 -26 23 -81q0 -37 -11 -84q-10 -50 -59 -127l-55 -103l2 -10l2 -10q8 0 31 10l32 16l95 62
q30 18 51 35q18 14 30 26q7 10 11 15q4 2 10 4q6 0 8 -4v-5q0 -6 -2 -14l-2 -12q4 -6 4 -23q0 -24 -4 -39l-25 -28q-22 -23 -26 -39q-12 0 -94 -58l-101 -65l-18 -6q-14 -6 -51 -25l-70 -37q-25 -8 -37 -8q-33 0 -57 10q-19 14 -21 41q21 49 23 56q14 32 41 75l65 123
q19 45 31 95q4 32 4 49q0 10 -4 30q-10 43 -43 43q-33 -8 -65 -32l-70 -68q-16 -20 -33 -37q-18 -16 -31 -26l-28 -25l-27 -23l-29 -26l-36 -35l-21 -14z" />
    <glyph glyph-name="s" unicode="s" horiz-adv-x="643" 
d="M35 185l10 24l4 41l4 39q9 29 33 49q23 21 33 27q8 6 35 22l53 41l53 47l52 45q12 5 32 21l56 49l47 43l45 41l51 39q22 14 47 14q92 0 92 -71q0 -11 -4 -31q-13 -60 -25 -72l-4 -20q-12 -56 -33 -97q-8 -22 -24 -53q-29 -51 -45.5 -82.5t-32.5 -62.5q-25 -49 -37 -82
l7 -12q16 0 77 49l70 51q82 88 98 88l8 -8l-8 -15l-8 -20l-2 -70q-4 -16 -37 -41l-35 -34q-14 -17 -41 -37q-26 -23 -59 -41l-125 -72q-61 -39 -92 -78l-49 -21l-17 -10l-18 -10q-25 0 -31 8q-2 6 -2 14q0 11 2 23q-10 35 -10 74q0 51 14 111l-2 14v12q11 39 45 60
q31 22 52 22q16 0 18 -20l4 -21l4 4q13 0 43 80q8 29 18 66t21 86l6 28v5q0 10 -8 16l-14 4q-17 -6 -23 -10l-39 -31l-32 -24q-144 -99 -201 -152q-31 -27 -64 -51q-4 -2 -12 -8z" />
    <glyph glyph-name="t" unicode="t" horiz-adv-x="609" 
d="M207 51q53 244 143 377v15l-98 -90l-106 -89l-113 -92l2 33l8 51q6 35 25 56l59 55l53 45q95 100 117 125q41 45 146 168q61 78 69 100h-28l-97 4l-94 2h-8l-8 -2q-31 4 -56 17q-24 10 -24 22q24 113 53 135q12 8 74 8l96 -2l92 -2l17 -4l43 8q18 -4 22 -8q45 6 70 43
l67 90q35 54 76 72l21 -4l6 -4q28 -12 28 -41q0 -6 -2 -14l-12 -39l-27 -43l-18 -31v-4q0 -14 10 -23q13 -6 13 -18v-6q-5 -13 -17 -60q-14 -47 -18 -67.5t-21 -24.5l-45 -6q-26 -2 -37 -10q-4 -6 -6 -10q-8 -15 -16 -33l-25 -49l-78 -164l-90 -193q-12 -28 -22 -55
q-21 -49 -33 -96v-23t2 -14q33 0 62 18l69 58l58 45l57 39q8 8 26 16q3 0 5 4q10 0 10 -12t-2 -21q-13 -57 -33 -88.5t-74 -70.5l-41 -33l-41 -33l-32 -18q-172 -142 -209 -148q-78 37 -78 96v13z" />
    <glyph glyph-name="u" unicode="u" 
d="M187 13q-27 22 -29 43q-2 18 -2 43q0 22 2 34l11 86q4 15 6 33q0 17 2 25l-47 -25l-51 -37l-23 -18l-18 -14l-17 -7q0 13 2 27q0 12 8 53q7 39 48 68q22 14 50.5 38.5t55.5 51.5q24 25 53 53q12 15 59 70l103 115q53 45 112 45q21 0 21 -25q0 -12 -4 -29q-4 -16 -8 -28.5
t-16 -32.5q-11 -25 -19 -43q-10 -19 -29 -47l-45 -78l-24 -61l-17 -54l-14 -47q-8 -39 -8 -69q0 -15 4 -27l4 -4l36 18l39 23l70 65l66 62l61 73q14 19 35 41q18 23 47 48q37 30 74 30q45 0 51 -24q4 -25 4 -39q0 -13 -8 -49q-8 -39 -8 -70q0 -61 45 -61q18 0 41 12l49 31
l37 24q6 0 6 -16q0 -21 -8 -51l-6 -29q-13 -55 -95 -94q-84 -41 -139 -41t-76 20q-20 17 -31 43l-8 60q-2 16 -2 22q-2 4 -6 10q-4 0 -6 -2q-19 -12 -37 -32l-51 -54l-66 -61l-71 -64q-29 -22 -72 -43q-27 -10 -39 -12q-14 -5 -35 -5q-20 0 -67 26z" />
    <glyph glyph-name="v" unicode="v" horiz-adv-x="721" 
d="M191 129q-13 0 -13 29l13 102l16 56q-12 0 -37 -19l-69 -61q-13 -13 -35 -31q-15 -12 -21 -16q-6 8 -6 12l6 12l4 43v15q0 14 2 26l89 105l92 110q34 47 63 101q10 16 62 45q51 26 61 26q14 0 14 -30q0 -17 -10 -62l-31 -158l-32 -157q-6 -33 -11 -56q-4 -22 -4 -38
q0 -48 13 -48q24 0 73 56q25 28 68 88q33 45 51 69l76 115l61 98q29 48 49 99q9 32 41 61q31 27 60 27q16 0 16 -13q0 -4 -2 -10q-20 -96 -76 -170q-51 -121 -92 -151q-14 -47 -51 -92l-41 -64q-12 -14 -25.5 -29.5t-36 -47t-32.5 -44.5q-29 -39 -49 -59q-35 -41 -64 -55
l-30 -34q-9 -10 -23 -22q-16 -15 -23 -19q-24 -14 -59 -14q-49 0 -68 51q-10 42 -10 78q2 17 2 27l11 25zM654 117q-13 -8 -41 -25q-31 -18 -72 -36q-2 2 -19 16l11 12l8 13q18 30 57 57l74 55q33 27 47 55q21 9 53 39l33 29q4 -4 8 -14q2 -11 6 -23l2 -47l-12 -29l-14 -14
q-21 -20 -74 -47z" />
    <glyph glyph-name="w" unicode="w" horiz-adv-x="1024" 
d="M204 256q2 10 4 27q0 16 2 24h-9q-16 0 -65 -47q-12 -10 -46 -37.5t-45 -33.5q-6 0 -10 2t-6 6l13 35l6 32q12 50 53 93l112 112q19 21 47 62q15 20 31 45l47 47q12 16 37 32.5t53 16.5q32 0 32 -27q0 -8 -3 -16q-14 -72 -41 -137q-6 -70 -18 -123l-10 -66q-6 -34 -6 -55
v-10v-8q0 -7 1 -9q4 -6 6 -6q7 2 13 4q4 2 10 9l31 45l32 43q13 8 56 71q6 25 20 43l37 49l35 46l51 73q27 41 60.5 70t68.5 29q21 0 31 -23q2 -8 2 -25q0 -18 -4 -28q-6 -41 -24 -41l-13 -39l-12 -39q-6 -18 -18 -31q-4 -14 -6 -24q-9 -33 -27 -80l-37 -123l-4 -31v-33
q1 -14 10 -24q26 6 92 92l59 80q56 78 78 96l14 29l13 26q4 13 16 29l45 72l27 49q8 27 22 63q13 37 25 62q22 43 63 55q25 -20 27 -45q0 -6 -2 -12q-20 -98 -69 -193q-51 -94 -131 -202q-60 -86 -72 -103q-29 -41 -80 -106l-80 -95q-47 -51 -92 -82t-93 -31q-50 0 -50 77
q0 30 10 88l8 59q10 27 17 41q4 14 8 35v4q1 1 1 2t-1 2q-5 2 -7 4l-37 -41l-43 -65l-45 -49q-6 -29 -18 -46l-23 -30l-28 -34q-68 -112 -129 -112q-27 4 -35 20q-4 6 -4 21q0 16 6 47q-14 54 -14 109q0 80 25 184zM989 135q-73 -59 -145 -79l-8 4l-2 6l-2 10q13 31 49 59
l76 60q45 35 59 61q18 13 35 25q14 10 26 24q13 13 29 23q2 0 4 4q11 0 11 -80q-6 -33 -37 -57q-22 -19 -47 -33q-13 -8 -48 -27z" />
    <glyph glyph-name="x" unicode="x" horiz-adv-x="797" 
d="M627 520q49 56 59 93l2 14q-6 4 -8 4q-14 6 -24 6l-27 -22l-31 -21l-39 -18q-26 -27 -56 -47l-46 -29q-18 -10 -28 -25q-2 -6 -2 -22v-23q4 -18 4 -26q10 -43 18 -43q16 4 28 12q11 6 33 23l60 61zM150 8l-29 -21q-18 -12 -31 -12h-12q-30 0 -30 17v4l45 43l45 41l68 53
l53 43l39 37v4q0 19 -15 74q-8 53 -25 57q-8 -4 -39 -28q-30 -25 -47 -37q-63 -53 -90 -68q-39 -35 -57 -43q-6 2 -6 17q0 10 2 24q17 66 31 84q8 19 70 53l88 52q18 14 28 43q2 6 2 24q0 21 -4 33q-2 35 -2 70l33 61q16 35 40 53q23 23 58 23q26 0 33 -25q6 -49 6 -73
q0 -46 12 -62q25 4 49 19l53 36l52 43l198 146q23 12 45 12q43 0 60 -41q10 -29 10 -37v-18q0 -12 -4 -37q-17 -70 -66 -123q-32 -35 -61 -61q-31 -29 -84 -72l-31 -31l-47 -41q-100 -71 -106 -104q10 -76 96 -76l88 16q20 21 51 21q29 12 43 25q27 20 74 71l26 19l19 16
l8 -4l-6 -31l-21 -92q-75 -74 -163 -117l-78 -41l-78 -37q-31 -8 -37 -10h-27q-49 0 -86 37q-28 29 -45.5 59.5t-29.5 34.5l-19 -14l-30 -20l-43 -39l-43 -35q-17 -15 -33 -15z" />
    <glyph glyph-name="y" unicode="y" 
d="M518 228l-43 -33l-55 -41q-20 -14 -47 -19q-37 -49 -72 -63q-37 -16 -104 -31l-47 17q-8 4 -8 43l23 59v29l4 30q6 25 6 39q0 15 -9 15q-10 -9 -18 -13q-35 -22 -54 -34l-73 -54q-4 2 -6 13q23 36 29 53q2 10 2 20v11l2 28q10 17 84 70q34 22 59 43q22 18 35 31l57 53
l39 39q12 10 37 26q30 25 63 25q27 0 43 -19q13 -14 13 -30q0 -6 -2 -15q-8 -18 -12 -30q-7 -15 -29 -54l-49 -94l-31 -73q-2 -13 -2 -19q0 -10 4 -14l22 4q6 12 51 37l66 39q33 22 102 86l92 86q11 8 33 22q23 12 41 23l55 43q5 4 23 18q16 12 39 27q22 12 55 12
q44 0 44 -31q0 -4 -2 -10q-4 -33 -64 -127l-22 -51l-31 -53l-47 -84l-45 -78l-17 -35l6 -8l37 31q29 28 55 45q15 4 70 51q65 49 78 49l8 -2l-6 -31l-4 -39l-4 -37l-2 -8q-51 -47 -158 -116q-51 -35 -100 -70q-39 -29 -80 -62q-66 -49 -127 -131l-105 -119q-39 -41 -72 -82
q-32 -41 -53 -67q-37 -23 -104 -86q-27 -27 -58.5 -54.5t-50.5 -40.5q-43 -30 -103 -30q-32 0 -35 8q-4 6 -7 39q10 26 49 71l45 54q17 2 46 35q22 32 34 32q37 49 111 123l22 23l21 14l104 111q58 51 88 69q11 25 56 101t71 103l25 65l29 68l6 18l4 12v6q0 7 -3 15l-45 -27
q-39 -20 -57 -37q-21 -12 -25 -32z" />
    <glyph glyph-name="z" unicode="z" horiz-adv-x="680" 
d="M51 303l95 93q18 16 43 38q32 31 49 50l115 108q61 80 118 80q88 0 123 -76q21 -43 21 -100q0 -19 -2 -41q-4 -23 -7 -35q-20 -100 -71 -139q-6 -15 -19 -29q-12 -16 -34 -37l-54 -57q-14 -23 -20 -49q-2 -17 -2 -23q0 -18 6 -30l6 -9q12 0 33 17l49 39l33 28
q16 17 49 43q31 27 76 62q16 12 32 28q15 17 27 31l35 35l12 6q6 0 6 -14q0 -15 -6 -45l-14 -68l-27 -29l-59 -40l-84 -60q-4 -6 -27 -27q-22 -20 -33 -28l-51 -48q-14 -14 -20 -37l18 -75q2 -19 2 -52q0 -43 -8 -73q-22 -101 -82.5 -174.5t-150.5 -135.5q-35 -22 -88 -51
q-54 -31 -103 -55l-78 -8q-58 0 -80 30q-12 17 -12 45q0 21 6 48q4 24 16 49q10 24 27 51q26 39 45 59q16 21 54 60l79 90q9 2 74 67q37 37 64 62q12 10 28 22q-4 13 -6 38.5t-2 43.5v56q27 96 86 143q4 17 35 54l45 61q12 17 16 31q2 12 2 20v9q0 24 -12 65t-45 41
q-29 0 -59 -22q-8 -5 -33 -29q-27 -25 -37 -33l-49 -49q-64 -59 -90 -72q-10 -16 -21 -28q-10 -13 -24 -23q-27 -20 -43 -20q-2 4 -2 8l10 37l10 39q6 30 10 34zM273 -373l22 100q0 64 -14 68q-21 0 -66 -47q-45 -49 -86 -105q-37 -26 -86 -79l-30 -50l-32 -51q0 -10 9 -22
l10 -2l10 -2q66 0 138 57q69 55 125 133z" />
    <glyph glyph-name="braceleft" unicode="{" horiz-adv-x="680" 
d="M1016 1360h-102q-56 0 -86 -41q-33 -37 -39 -59l-60 -191q-26 -86 -63 -166q-39 -82 -102 -155q-68 -68 -152 -96q82 -37 82 -148q0 -33 -6 -72q-8 -39 -18 -73.5t-15 -53.5l-39 -116l-55 -146q0 -53 17.5 -80t72.5 -27l41 2l29 2l-44 -125h-155q-62 0 -107 52
q-28 30 -28 94q0 24 6 60l64 188l59 191q4 14 6 35.5t2 35.5q0 107 -96 125l39 109q74 8 125 53q49 45 90 115q31 67 67 172l43 119q49 153 94 208q45 56 109 82q65 31 117 31h151z" />
    <glyph glyph-name="braceright" unicode="}" horiz-adv-x="680" 
d="M-41 -60h101q47 0 86 37q37 35 43 64l45 121l35 96l17 61q70 259 283 328q-35 19 -63.5 56t-28.5 116q4 11 4 21q0 6 -2 12l68 193q49 131 69 215q2 8 2 16v12q0 27 -12 39q-25 21 -66 27l-81 10l45 121h156q28 0 55 -12q27 -15 51 -43.5t24 -87.5q0 -27 -8 -64
t-22.5 -80t-40.5 -108l-62 -187q-10 -47 -10 -77q0 -48 24 -76q39 -45 82 -45l-38 -109q-74 -14 -127 -61q-56 -47 -91 -111q-14 -24 -30 -67q-19 -43 -31 -74l-47 -144q-18 -70 -65 -154q-45 -74 -111 -121q-65 -49 -151 -49h-144z" />
    <glyph glyph-name="quotesinglbase" unicode="&#x201a;" horiz-adv-x="451" 
d="M31 -369l-37 37q133 117 174 164q17 22 33 51q14 29 18 51q2 8 2 17q0 10 -4 22q-8 19 -22 19q-58 0 -78 31q-20 28 -20 65q0 19 2 29q16 66 59 101.5t108 35.5q66 0 97 -55q14 -29 14 -78q0 -33 -6 -74q-23 -105 -109 -211q-88 -107 -231 -205z" />
    <glyph glyph-name="florin" unicode="&#x192;" horiz-adv-x="953" 
d="M-27 -576q-20 -2 -108 -41l-37 -4l-41 -4q-33 0 -39 8l-33 -8q-33 0 -45 10q-12 11 -16 39l2 64q20 39 37 116l28 17l31 18l20 8l5 -4q6 -4 16 -41q2 -32 29 -43q16 5 44.5 11l47.5 10q41 20 127 160q86 137 117 213l117 264q92 209 137 295q2 4 2 8q0 13 -21 13l-47 -4
l-59 -9l-53 -8l-2 4q6 25 10 39q4 15 26.5 68t43.5 53l94 -8q55 6 88 20q10 7 61 129q23 54 45 103q21 47 35 71q74 191 150 273q6 33 39 61q30 27 63 45l64 35q40 15 55 15l45 -9q14 6 43 15q27 6 47 6q47 0 47 -74q0 -39 -10 -88q-12 -51 -43 -84t-58 -33q-18 4 -18 23
q0 6 2 12q-18 45 -63 45q-31 0 -66 -31q-33 -24 -51 -57l-98 -199q-29 -61 -41 -86q-13 -24 -23 -41q-2 -18 -29 -59q-26 -43 -28 -55l39 2l39 2q20 0 43 -8q41 20 168 20q-11 -8 -27 -29q-25 -30 -35 -45q-31 -49 -55 -55l-107 -12q-90 -10 -139 -25l-76 -164l-65 -135
l-107 -246q-16 -35 -39 -80q-22 -47 -41 -82q6 -4 6 -14q0 -6 -2 -14l-14 -37l-37 -58l-37 -59q-14 -25 -16 -43l-51 -59l-68 -78z" />
    <glyph glyph-name="quotedblbase" unicode="&#x201e;" horiz-adv-x="797" 
d="M166 148l2 8l4 16l6 29l9 22l6 13l10 20q43 31 104 43q17 0 39 -14l33 -29l-41 -84q-39 -67 -53 -80q-31 -67 -64 -100l-43 -66q-18 -29 -28 -47.5t-15 -30.5q-4 -14 -47 -45q-47 -26 -59 -26q-16 0 -21 22q11 12 17 33l37 67l47 95q18 33 22 53zM463 144l6 45l8 20
l11 31q16 20 49 41q37 16 63 16q19 0 45 -14q25 -17 31 -27l-39 -76l-53 -83q-12 -13 -31 -52q-6 -12 -16 -26q-10 -17 -23 -27q-4 -17 -39 -66q-36 -51 -41 -70q-6 -18 -18 -28q-14 -13 -35 -25q-39 -22 -59 -22q-15 0 -17 14q9 12 17 37l49 94l31 66q14 27 22 45
q6 16 17 51q8 41 22 56z" />
    <glyph glyph-name="ellipsis" unicode="&#x2026;" horiz-adv-x="2048" 
d="M342 47q-43 -32 -129 -51q-63 35 -70 72l-2 8q18 55 121 129q29 14 41 14l19 -6q57 0 82 -33q18 -26 18 -51q0 -6 -2 -12q-5 -10 -27 -31zM893 0q-70 43 -70 64v4q18 63 76 96l33 29q33 26 51 26l23 -6q51 0 73.5 -26.5t22.5 -51.5q0 -12 -2 -24q-4 -14 -20 -27l-48 -28
l-36 -19l-33 -14l-39 -19zM1577 0q-67 45 -67 72v4q6 27 27.5 52.5t41.5 35.5l25 19l33 26q10 10 26 10l23 -6q57 0 82 -30q18 -25 18 -52q0 -6 -2 -14q-31 -47 -92 -78q-55 -33 -115 -39z" />
    <glyph glyph-name="dagger" unicode="&#x2020;" horiz-adv-x="1024" 
d="M543 645q58 64 97 146q39 80 63 192l6 31q-75 0 -180 -35q-105 -37 -123 -37q-41 0 -70 25q-14 18 -14 43q0 12 4 35q4 20 41 49q35 27 76 27q26 0 100 -33q86 -33 145 -33h27l6 18l8 31q6 27 8.5 68t2.5 47q0 41 -6 86q-8 45 -10 72q-2 24 -2 36q8 41 39.5 68t72.5 27
t59 -27q13 -18 13 -45q0 -14 -2 -31q-4 -16 -53 -90l-33 -55l-29 -78l-33 -127h23q76 0 168 33q90 33 110 33q43 0 68 -25q16 -21 16 -45q0 -12 -2 -19q-10 -43 -39 -65q-31 -25 -74 -25q-28 0 -106 37q-82 35 -150 35h-24q-13 -59 -18 -123q-6 -63 -6 -104q0 -82 37 -142
q-78 -174 -142 -370q-16 -58 -41 -154q-45 -172 -72 -293l-10 -45h-49q60 283 80 486q10 94 14 192q4 96 4 184z" />
    <glyph glyph-name="daggerdbl" unicode="&#x2021;" horiz-adv-x="1024" 
d="M543 647q27 27 56 70q26 41 41 76q39 76 63 190l6 31q-73 0 -180 -35t-123 -35q-45 0 -70 23q-14 20 -14 43q0 8 2 18q6 37 43 66q35 27 76 27q26 0 100 -33q86 -33 145 -33h27l6 18l8 31q6 27 8.5 68t2.5 47q0 41 -6 86q-8 45 -10 72q-2 24 -2 36q8 41 39.5 68t72.5 27
t59 -27q13 -18 13 -45q0 -14 -2 -31q-4 -16 -53 -90l-33 -55l-29 -78l-30 -125h22q70 0 166 31q47 16 69 24q23 6 41 9q43 0 68 -25q16 -21 16 -45q0 -12 -2 -19q-8 -38 -37 -63q-35 -25 -76 -25q-14 0 -41.5 8.5t-64.5 26.5q-82 35 -150 35h-24q-13 -59 -18 -123
q-6 -63 -6 -104q0 -82 37 -142q-58 -63 -97 -145t-61 -186l-10 -39q75 0 174 32q95 33 128 37q43 0 68 -24q17 -17 17 -41q0 -13 -2 -19q-11 -43 -44 -67q-33 -27 -78 -27q-26 0 -102 35q-78 33 -143 33h-27l-6 -21l-6 -28q-7 -25 -8.5 -54.5t-1.5 -66.5q0 -15 2 -33
q0 -18 2 -44q12 -86 12 -106v-6q-8 -41 -37 -68q-31 -26 -76 -26q-39 0 -59 26q-12 19 -12 45q0 15 4 34.5t49 82.5l37 60l29 78l30 127h-20q-70 0 -164 -33q-97 -35 -117 -35q-41 0 -62 25q-20 22 -20 47q0 12 5 35q3 22 36 46.5t74 24.5q14 0 43 -8q26 -8 63 -27
q82 -34 148 -34h24q12 59 21 121q6 61 6 106q0 86 -35 145z" />
    <glyph glyph-name="circumflex" unicode="&#x2c6;" horiz-adv-x="568" 
d="M353 903q-23 7 -23 37v8l7 17q16 29 41 47l77 43q53 27 80 53q16 4 53 24.5t45 20.5q29 0 78 -41q10 -8 35 -18q22 -12 35 -19q51 -20 64 -47q20 -14 20 -55q0 -8 -4 -33l-9 -24l-16 -13l-68 37q-53 31 -90 37q-57 51 -82 51q-22 0 -61 -26l-56 -33q-32 -10 -75 -37z" />
    <glyph glyph-name="perthousand" unicode="&#x2030;" horiz-adv-x="2032" 
d="M260 -80q37 181 248 379q37 90 92 176q25 37 58 82q26 37 63 84l146 187q84 110 129 180l71 104l66 90l57 86l12 29q5 14 17 31q10 16 14 22l82 99l31 12q12 2 18 4q4 0 10 4q70 39 97 39q2 -22 2 -39l-13 -16l-16 -29l-43 -76l-74 -139q-30 -57 -88 -137
q-49 -72 -131 -176l-102 -131l-131 -172l-133 -170l-127 -166l-58 -82l-98 -148q-23 -32 -37 -62q-16 -30 -22 -41q-17 -36 -50 -73q-34 -31 -61 -31q-16 0 -25 18q-8 17 -8 37q0 8 4 25zM695 1252q-54 0 -91 -27q-36 -27 -61 -70q-8 -14 -14.5 -26.5t-28.5 -67.5l-31 -96
l-4 -41l-14 -57l-12 -52q-3 -6 -3 -20q0 -12 11 -49q8 -37 20 -37t55 24q41 23 54 39q127 148 166 324q8 33 8 74q0 20 -2 30q-8 52 -53 52zM303 899q17 72 45 125l99 162q30 47 55 94q25 45 39 76q12 29 47 49q33 19 64 23l24 -2q8 -2 10 -4v-5l2 -8v-8l41 21q29 18 56 18
q112 0 112 -145q0 -56 -12 -117q-14 -62 -41 -127q-27 -68 -68 -143l-28 -68l-21 -51q-18 -6 -75 -76l-97 -107q-37 -36 -76 -43l-20 -8l-39 -10q-70 0 -108 47q-41 45 -48 105q5 8 11 30q6 23 12 49l8 62zM1854 643q-60 0 -105 -37q-47 -38 -63 -98q-60 -158 -88 -299
q-2 -8 -2 -26q0 -19 10 -50q8 -32 22 -32q13 0 56 25.5t51 37.5q115 125 164 301q12 60 12 94q0 27 -4 37q-16 37 -29 43q-12 4 -24 4zM1467 293q16 70 49 133q20 37 41 74q14 22 57 92q66 103 90 156q10 26 47 49q35 20 64 22l26 -4q9 -8 9 -12l2 -10l26 16l35 17l31 6
q112 -13 112 -150q0 -26 -6 -61q-6 -37 -8 -49q-14 -64 -39 -136q-26 -71 -63 -137l-29 -69q-10 -27 -20 -43q-2 -2 -5 -7q-18 -6 -75 -75q-27 -31 -52 -60q-24 -28 -43 -45q-36 -37 -71 -43l-27 -10q-20 -11 -41 -11q-57 0 -104 47q-43 48 -49 105q10 23 20 80l10 58
q6 24 11 43q2 10 2 18v6zM899 400q64 149 189 331q16 27 49 54q31 24 55 24q43 0 43 -37q55 56 86 56q119 0 119 -146q0 -47 -14 -121q-17 -73 -54 -161l-26 -70q-10 -27 -23 -53q-12 -29 -18 -41q-21 -39 -43 -64q-10 -10 -23 -24q-14 -17 -32 -43l-78 -88q-19 -21 -35 -34
l-39 -26q-43 -25 -86 -25q-51 0 -102 35q-52 33 -52 84q9 31 9 54l-3 30l-2 19l-4 10q13 8 15 33l12 55q25 49 57 148zM1247 633q-73 0 -120 -43q-50 -49 -72 -106q-12 -31 -29 -84q-4 -15 -18 -64l-2 -39l-4 -45l-21 -55q0 -21 -2 -29l12 -51q9 -14 13 -18.5t8 -6.5
q25 0 78 43q139 117 188 310q21 90 21 123q0 12 -2 16q-13 39 -19 45q-6 4 -31 4z" />
    <glyph glyph-name="Scaron" horiz-adv-x="756" 
d="M109 -125l-49 18q-29 10 -41 29q-11 10 -11 31q0 8 2 18q5 21 15 31l31 27l32 18l35 21l141 63l129 58h17q20 0 20 -21q0 -6 -2 -12q-4 -14 -14 -19l-29 -12l-28 -12q-15 -10 -17 -21l2 -4l6 -8q19 2 41 21l52 41l36 34v17q4 10 14 20l25 21l26 22l15 29q2 8 2 22
q0 37 -31 84q-51 82 -102 152q-53 68 -98 113q-19 18 -19 45q0 8 3 16q-11 0 -31 37q-23 37 -23 86q6 22 6 63q50 148 160 265q78 67 162 120q84 54 188 103q25 12 92.5 40.5t94 39t59.5 10.5q35 0 51 -25q8 -16 8 -41q0 -14 -2 -26q-4 -12 -6 -23l-12 -30q-11 -21 -19 -31
q0 -2 -4 -4q-192 -146 -346 -205l-18 -4q-23 4 -23 26q0 5 2 11q6 20 31 39l51 32q27 17 29 37q-6 6 -10 6l-8 -4q-86 -39 -154 -110q-70 -74 -94 -152q0 -69 35 -149q16 -33 34 -66q19 -33 44 -72l95 -141q33 -63 39 -110q4 -15 4 -50v-43q-6 -22 -8 -30q29 0 29 -29
q0 -8 -2 -18q-6 -25 -19 -35q-12 -11 -41 -23q-12 -4 -24 -12q-15 -8 -25 -12q-12 -7 -39 -33l-28 -29l-63 -51l-105 -57q-43 -23 -67 -40q-25 -16 -48 -33l-55 -26l-76 -31q-34 -12 -67 -12zM955 1882q22 -6 22 -37v-8l-6 -16q-17 -29 -41 -47l-78 -43q-53 -27 -80 -53
q-18 -5 -51 -25q-41 -20 -47 -20q-29 0 -78 40q-12 13 -65 35q-56 23 -68 49q-18 17 -18 52q0 22 4 36l6 25l16 12l70 -37q49 -30 88 -36q57 -52 82 -52q22 0 61 27t58 33q32 12 41 16q22 15 32 21z" />
    <glyph glyph-name="guilsinglleft" unicode="&#x2039;" horiz-adv-x="948" 
d="M725 727l31 13l33 12l26 4q25 0 37 -14q12 -11 12 -29v-4q-6 -23 -66 -57l-59 -43q-43 -37 -76 -46q-8 -14 -24.5 -28.5t-46.5 -42.5l-78 -74q-22 -29 -32 -74q-3 -18 -3 -28q0 -17 5 -37q2 -23 10 -47l41 -111q10 -18 10 -37v-8q-2 -10 -45 -29l-82 -18q-49 27 -68 74
q-10 22 -18 49q-8 24 -23 84q3 6 3 22q0 19 -5 31q-4 23 -4 39q0 10 2 16q9 45 35 74q25 27 80 70q8 6 43 37q25 20 33 30l139 101q12 0 49 41z" />
    <glyph glyph-name="OE" unicode="&#x152;" horiz-adv-x="1708" 
d="M1309 -21q-203 -51 -324 -51q-51 0 -98 12l-5 27l7 10l8 10l10 13h-27q-43 0 -43 29q0 6 2 12l23 76l20 74l23 98q-55 -55 -86 -82q-41 -35 -100 -78q-47 -37 -100.5 -67.5t-114.5 -59.5q-111 -49 -211 -49q-82 0 -131 51q-43 49 -56 131q-2 21 -2 37q-2 15 -2 25
q0 49 12 102l25 90l29 99q2 16 22 32l6 29q4 29 4 33q0 14 -9 14l-23 -28l-20 -27q-32 0 -32 18v9q9 51 41 102q27 49 82 121l70 94q12 31 31 49q16 17 37 51l47 84l29 56q78 147 115 163q14 33 26 41q15 17 43 33l35 23q26 0 26 -29q0 -10 -2 -25q-4 -14 -22 -45
q-9 -12 -29 -43l-12 -22l2 -19q35 23 72 48q51 34 74 47l94 61q28 14 49 14h18q37 25 47 25q35 0 82 -16q45 -19 62 -41q28 -11 43 -35l39 -72q20 -45 35 -61l40 30l33 35l21 23l49 33l45 28l45 29l33 18q8 37 164 76h36q43 12 105 12l43 -2l41 -2q43 0 74 -18
q18 -17 18 -41q0 -14 -2 -21q-12 -59 -31 -92q-4 -16 -10 -24q-6 -39 -55 -39q-35 0 -45 16q-47 14 -117 14l-72 -4l-16 -4l-41 4l-41 -14q-61 0 -111 -49q-45 -53 -53 -96q-10 -43 -24 -72q-5 -10 -27 -49q-39 -66 -53 -103q-4 -10 -19 -39q-14 -30 -20 -43l-33 -65l6 -29
q10 2 29 11q16 8 33 18l61 39q27 16 59 20q76 29 111 29l70 4l65 4q51 0 76 -12q25 -14 33 -53q-11 -45 -31 -88q-23 -43 -31 -43q-86 12 -147 12q-117 0 -256 -33q-70 -12 -107 -35q-39 -22 -63 -78l-46 -116q-6 -15 -28 -74q-23 -61 -25 -70q-4 -8 -14 -45
q-13 -39 -15 -53l23 -6l21 -6l10 4q33 8 115 8q47 0 94 10l141 39q105 29 148 35q14 10 30 18q17 9 50 17q18 0 18 -23q0 -10 -2 -16q-10 -43 -49 -72q-23 -22 -137 -80q-37 -18 -72 -34q-53 -25 -88 -36zM795 328q96 90 170 213q74 121 98 231q6 21 8 45q2 25 2 56
q0 37 -6 73q-8 91 -57 154q-51 64 -137 64q-88 0 -181 -56q-94 -55 -174 -131q-71 -153 -115 -272q-43 -119 -69 -226q-19 -102 -19 -186v-31q4 -20 4 -28q13 -105 115 -105q74 0 177 60q100 59 184 139z" />
    <glyph glyph-name="quoteleft" unicode="&#x2018;" horiz-adv-x="492" 
d="M459 916q-20 0 -45 16q-25 12 -25 29v4q45 86 82 139q64 105 78 117l23 45l43 70q16 28 37 49q18 18 51 39q22 12 35 12q14 0 20 -2q2 -2 2 -6v-4l-55 -111q-49 -96 -70 -149l-10 -39l-12 -37l-13 -23l-2 -16l-4 -25l-6 -24l-6 -13l-10 -14l2 -6q-2 -21 -115 -51z" />
    <glyph glyph-name="quoteright" unicode="&#x2019;" horiz-adv-x="492" 
d="M520 981q-8 -22 -45 -45q-39 -22 -61 -24q-14 12 -14 20q57 82 96 178q21 45 39 96.5t26 94.5l11 32l22 52q12 16 49 32q35 15 62 15q20 -2 45 -19q20 -6 20 -24v-4l-14 -31l-12 -23q-31 -51 -62 -100q-30 -51 -53 -82l-55 -80z" />
    <glyph glyph-name="quotedblleft" unicode="&#x201c;" horiz-adv-x="797" 
d="M895 1065l2 -16l-6 -33l-4 -14l-5 -11q-24 -32 -50 -51q-31 -16 -74 -28q-18 0 -43 16q-27 14 -31 33q56 100 86 151q29 49 47 80q19 29 31 29q6 10 10 16q17 31 29 47q41 56 43 76q6 25 47 49q39 23 64 23q11 0 11 -12q0 -5 -2 -11q-6 -37 -32 -82l-50 -88
q-26 -47 -30 -69q-6 -23 -8.5 -29t-10.5 -33q-10 -26 -14 -33q-4 -6 -10 -10zM609 1067l-7 -10l-10 -45l-4 -21q-20 -26 -35 -36l-47 -23l-47 -20l-18 12l-23 14l-12 6q-8 2 -13 17q33 71 101 172q53 94 65 96l35 57q17 23 27 41q8 19 12 29q6 31 49 53q43 23 72 23
q4 -10 4 -17q-7 -34 -23 -61l-41 -80l-37 -70l-20 -51l-14 -49l-8 -20z" />
    <glyph glyph-name="quotedblright" unicode="&#x201d;" horiz-adv-x="797" 
d="M568 1288l2 19v16q12 51 41 72q12 8 34 18q21 11 56 23q16 0 47 -16q26 -15 26 -31v-4l-20 -47l-39 -62l-35 -55q-31 -47 -53 -78q-4 -4 -10 -14l-39 -64q-39 -55 -45 -78q-2 -20 -25 -36l-55 -25l-39 -14q-6 12 -6 20q6 8 11 29l59 116q57 111 59 132v16l18 39z
M860 1284v37l11 33l16 33q10 14 21 18l47 17l39 14q20 0 49 -19q24 -16 24 -28v-4q-8 -29 -18 -45l-37 -62l-35 -53q-29 -49 -53 -82q-4 -6 -12 -14l-39 -62q-19 -26 -31 -45.5t-16 -34.5q-2 -20 -23 -36l-55 -25l-41 -14q-10 10 -10 16q10 14 16 33l56 108l57 123
q8 39 14 58q6 16 20 34z" />
    <glyph glyph-name="bullet" unicode="&#x2022;" horiz-adv-x="1024" 
d="M582 324q-100 0 -178 51q-74 53 -104 139q-8 25 -13 49q-4 23 -4 54q0 37 11 88q24 100 91 182q37 43 74 74q37 28 86 53q94 47 193 47q102 0 172 -47q69 -49 105 -129q24 -59 24 -127v-27q-4 -18 -4 -26q-20 -103 -91 -191q-71 -90 -170 -139q-98 -51 -192 -51z" />
    <glyph glyph-name="endash" unicode="&#x2013;" horiz-adv-x="1024" 
d="M45 387l25 113q6 37 16 41q43 0 146 -4q102 -4 112 -4l62 4l61 4l299 -2l301 -2q21 0 24 -17l-18 -88l-8 -41q-10 -6 -31 -10h-36l-217 2l-220 2l-227 -6l-192 -10q-45 0 -72 6q-25 4 -25 12z" />
    <glyph glyph-name="emdash" unicode="&#x2014;" horiz-adv-x="2048" 
d="M2110 533q4 0 4 -21q-2 -22 -6 -43l-11 -45q-6 -28 -20 -35l-55 -8h-80h-41q-19 0 -41 -4q-58 0 -125 2q-68 2 -146 6l-98 -2l-131 -4l-125 -6l-33 -4l-96 6l-69 6h-62l-213 2l-215 2l-207 -6l-166 -10l-49 6l-72 6q-4 10 -4 19v4l21 100q10 37 20 37l236 -2l233 -2
q70 0 162 -2t113 -2l373 8l57 -4l74 -8l39 4l157 4l248 -2l252 -2h76z" />
    <glyph glyph-name="tilde" unicode="&#x2dc;" horiz-adv-x="568" 
d="M422 987l-82 -28l-76 -31l-8 16l13 37q26 39 75 51q17 11 58 27q61 25 82 33l110 41h12q58 0 94 -45l-20 -60l4 -8q6 -10 11 -12l122 37l56 22q41 21 71 21l10 -8q-12 -60 -51 -80q-20 -13 -47.5 -21t-66.5 -16q-76 -17 -103 -27l-59 -16l-49 -12l-15 8q-6 8 -12 59
q-8 49 -35 49q-26 0 -45 -12z" />
    <glyph glyph-name="trademark" unicode="&#x2122;" horiz-adv-x="2028" 
d="M422 1435h671l-26 -122h-260l-153 -725h-152l153 725h-260zM1237 1435h232l108 -626l369 626h231l-180 -843h-147l147 692h-8l-412 -692h-100l-117 692l-151 -692h-152z" />
    <glyph glyph-name="scaron" horiz-adv-x="643" 
d="M35 185l10 24l4 41l4 39q9 29 33 49q23 21 33 27q8 6 35 22l53 41l53 47l52 45q12 5 32 21l56 49l47 43l45 41l51 39q22 14 47 14q92 0 92 -71q0 -11 -4 -31q-13 -60 -25 -72l-4 -20q-12 -56 -33 -97q-8 -22 -24 -53q-29 -51 -45.5 -82.5t-32.5 -62.5q-25 -49 -37 -82
l7 -12q16 0 77 49l70 51q82 88 98 88l8 -8l-8 -15l-8 -20l-2 -70q-4 -16 -37 -41l-35 -34q-14 -17 -41 -37q-26 -23 -59 -41l-125 -72q-61 -39 -92 -78l-49 -21l-17 -10l-18 -10q-25 0 -31 8q-2 6 -2 14q0 11 2 23q-10 35 -10 74q0 51 14 111l-2 14v12q11 39 45 60
q31 22 52 22q16 0 18 -20l4 -21l4 4q13 0 43 80q8 29 18.5 66t20.5 86l6 28v5q0 10 -8 16l-14 4q-17 -6 -23 -10l-39 -31l-32 -24q-144 -99 -201 -152q-31 -27 -64 -51q-4 -2 -12 -8zM811 1207q22 -7 22 -37v-9l-6 -16q-20 -33 -41 -47l-79 -43q-51 -27 -78 -53
q-16 -4 -53 -25q-37 -20 -45 -20q-29 0 -78 41q-10 8 -33 20q-24 10 -37 16q-51 21 -63 48q-21 14 -21 55q0 8 4 26.5t9 30.5l16 13l68 -37q53 -31 90 -37q57 -51 82 -51q22 0 61 26l55 33q33 10 76 37z" />
    <glyph glyph-name="guilsinglright" unicode="&#x203a;" horiz-adv-x="948" 
d="M312 60q-43 -25 -82 -31l-33 4l-17 12l-18 23q6 20 27 35l51 39l39 26q61 45 86 47l69 68q23 18 45 39q13 10 33 37q27 28 37 73q4 15 4 43q0 27 -4 41q-4 15 -12 42.5t-21 56.5l-30 90q4 16 53 33q47 14 78 14q24 0 39 -21q12 -12 26 -55l23 -47l2 -18l4 -15
q0 -14 14 -51q-2 -4 -2 -16q0 -13 2 -33q4 -19 4 -33q0 -10 -2 -18q-14 -78 -86 -138l-53 -41q-43 -30 -49 -43q-51 -22 -125 -83z" />
    <glyph glyph-name="oe" unicode="&#x153;" horiz-adv-x="1141" 
d="M51 303l39 33l59 45l46 39l41 35l22 10q21 6 64 41q18 14 40.5 30.5t39.5 24.5q39 23 80 23q12 59 92 59q86 0 151 -39q88 -51 101 -51q12 0 39 15l32 16l39 33q17 16 41 28l70 27l35 14l45 17l45 6q51 0 82 -33q24 -22 24 -57q0 -6 -6 -43q-6 -39 -37 -66
q-20 -20 -37 -33q-18 -12 -51 -30q-59 -33 -82 -56l-39 -14l-47 -16q-145 -37 -168 -62v-12l-4 -23q-4 -24 -4 -30q0 -23 12 -35q15 -21 66 -27l70 15l69 18q14 4 31 12q16 6 33 17q30 16 55 43l41 28l31 23l20 8l6 -2l-14 -78q-12 -57 -55 -90q-45 -33 -123 -69
q-72 -44 -133.5 -60t-157.5 -29l-37 19q-4 2 -25 14q-20 12 -28 19l-21 34l-20 29q-4 4 -14 8q-17 0 -35 -22q-21 -23 -47 -37l-50 -35l-61 -37q-45 -33 -115 -33q-78 0 -110 41q-36 39 -36 97q0 16 2 24l23 86q4 17 18 41l15 33l-8 4q-25 0 -47 -16l-64 -54
q-43 -38 -61 -47l-3 9l11 28zM525 471q-11 13 -23 13q-6 -5 -12 -9q-6 -6 -11 -14q-113 -158 -145 -264l-2 -37q-3 -12 -3 -23q0 -14 5 -18q6 -14 31 -18q39 10 62.5 18t74.5 29q16 6 18 24q11 23 54 66l57 57q16 21 23 49q2 9 2 17q0 16 -9 30q-14 21 -43 21q-26 0 -79 59z
M881 436v-4q0 -8 6 -12q59 16 164 64q33 12 35 24v4q0 21 -70 21q-49 -21 -86 -51z" />
    <glyph glyph-name="Ydieresis" unicode="&#x178;" 
d="M205 -37q6 29 21 60q12 28 18 43q33 61 57 86q17 47 31 76q12 28 33 57l49 70l22 57q-24 16 -43 55q-4 8 -8 27q-6 18 -22 78q-10 51 -10 53q-7 20 -13 35v16q1 5 1 12q0 6 -1 15q-4 28 -4 35l-4 120q0 23 2 70t2 74q6 73 19 131q-9 0 -9 59l2 31l2 29l19 51
q8 28 26.5 46.5t47.5 18.5l20 4q49 25 82 25q29 0 47 -31q10 -22 10 -41q0 -10 -2 -20q-6 -31 -16 -80q-12 -49 -35 -125q-8 -59 -10 -106q-2 -48 -2 -105l-4 -74v-65q-2 -33 -2 -64q0 -28 6 -51q6 -22 16 -43q23 6 47 43l97 141q69 107 86 121q22 43 43 80q20 35 51 78
q31 41 61 80q53 63 82 100l129 166q37 47 66 47q20 -6 32 -37q-55 -258 -198 -424q-2 -14 -23 -55q-22 -35 -37 -47q-2 -12 -92 -104l-59 -78q-49 -68 -80 -99l-53 -82l-56 -81q-59 -101 -108 -156l-43 -105q-14 -28 -31 -69q-16 -41 -20 -60l4 -10l6 -18l2 -15
q-12 -27 -39 -43q-29 -18 -51 -21q-2 -8 -27 -18q-24 -10 -53 -10q-37 0 -63 12q-23 8 -23 27q0 4 2 8zM922 1534q-21 0 -41 21q-14 20 -14 47q14 37 41 53q49 59 96 59q16 0 35 -10l32 -10l15 -4l8 -8q0 -4 -2 -15.5t-4 -23.5q-8 -51 -25 -64l-20 -10l-25 -14
q-8 -2 -24 -25q-7 8 -35 8q-25 0 -37 -4zM609 1530q-37 25 -37 66q0 8 2 18q10 35 53 68q41 32 78 32q35 0 63 -20q21 0 21 -27l-4 -32l-11 -43q-6 -7 -10 -9q-20 -14 -31 -20q-28 -14 -41 -29h-30l-27 -2z" />
    <glyph glyph-name="nonbreakingspace" unicode="&#xa0;" horiz-adv-x="250" 
 />
    <glyph glyph-name="exclamdown" unicode="&#xa1;" horiz-adv-x="680" 
d="M-45 -664q-19 0 -25 10l-1 41l43 105q37 78 55 139q21 92 62 207l104 242q22 49 42.5 102.5t26.5 90.5q9 12 19 28q8 17 18 37q8 25 17 45q6 21 8 35l16 53q29 37 82 80q51 41 76 41q6 0 9 -6v-6q0 -8 -2 -21l-31 -102v-21v-20l-10 -39q-4 -12 -7 -22q-2 -13 -10 -25
l-26 -49l-7 -29q-6 -26 -18 -67q-12 -43 -23 -76l-32 -109q-23 -37 -37 -70q-14 -35 -31 -90v-45l12 -4l19 -4l-2 -10l-39 -111q-10 -31 -23.5 -68t-16.5 -55q-20 -100 -108 -115q-23 -26 -76 -59q-56 -33 -84 -33zM455 676q-43 10 -51 16q-8 7 -10 33q8 19 14 33
q4 12 11 43q5 31 20 49q12 19 57 19l94 12q39 0 39 -51q0 -27 -4 -41q-53 -80 -152 -121z" />
    <glyph glyph-name="cent" unicode="&#xa2;" horiz-adv-x="953" 
d="M137 92q5 31 5 45v11v22l-5 6q11 47 39 82q21 31 68 78l55 55q23 29 201 142q25 108 43 123q12 51 39 69q27 19 76 19h12l-29 -60l-26 -67l2 -8l30 16q5 2 23 12q18 8 27 10q41 25 63 25q29 12 41 12q43 0 43 -28q0 -7 -2 -15l-6 -20q-10 -49 -17 -58l-28 -22l-19 -12
l-18 -13q-25 -28 -123 -75q-12 -21 -80 -56q-6 -6 -33 -82q-26 -77 -36 -88v-8q1 -3 1 -5q0 -3 -1 -5l-19 -57l-18 -60q88 0 182 64q18 0 33 6q14 4 51 20l59 31q21 0 21 -16v-5q-10 -43 -41 -67q-6 -6 -33 -23.5t-51 -33.5l-72 -43q-92 -54 -135 -69l-31 -8l-22 -8
q-10 -8 -27 -49l-22 -55q-13 -21 -33 -21q-12 0 -19 33q2 2 7 14q14 37 22 78h-29q-71 0 -122 47q-46 50 -46 117zM449 320q-10 0 -21 -11l-12 -12q-53 -26 -72 -100q-4 -37 -4 -45q0 -21 8 -35q7 -16 33 -37q8 37 27 76q16 39 18 59l-2 11l-2 10l14 41q7 14 13 43z" />
    <glyph glyph-name="sterling" unicode="&#xa3;" horiz-adv-x="1100" 
d="M203 -13q-20 0 -55 30q-29 30 -45 30q-2 21 -35 82q-14 25 -26 54q-15 28 -19 38q-10 27 -10 50q0 14 2 22q65 98 102 98l31 -8l28 -14l29 -23l29 -22q55 -43 90 -43q16 6 37 43q18 35 43 53q6 27 8 33q2 4 21 43l31 84h-60q-53 0 -236 -41l-16 29l25 49q4 14 10 24
q6 11 14 25l27 37q86 37 155 37q4 -9 6 -11q0 -2 2 -4l9 -6l16 -4q96 12 119 29l45 108l4 19q4 8 19.5 40.5t23.5 55.5q29 72 51 100q19 64 51 131q33 68 78 138q8 40 37 63q25 12 37 18q12 7 35 15q59 39 92 39q59 0 59 -105q0 -33 -6 -80q-16 -71 -29 -94q2 -6 2 -16
q0 -19 -6 -49l-6 -47l-10 -41l14 -25l11 -31q-37 -63 -154 -104l-16 10l-7 16l-2 19q7 10 17 33q8 20 10 26q2 13 2 21q0 12 -4 16q6 6 10 27l19 94l16 90v6q0 10 -12 10q-17 0 -27 -22l-20 -57q-2 -9 -7 -23q-6 -16 -8 -18q-119 -277 -157 -349l6 -14l4 -4l16 -4l35 6l35 6
l24 2q150 0 254 21q2 -10 2 -17v-6q-8 -45 -94 -88l-12 -8q0 -4 -8 -6q-11 -4 -47.5 -12.5t-57.5 -10.5l-141 -20q-64 -10 -90 -21q-10 -14 -19 -28q-14 -27 -20 -41l-34 -86q-19 -39 -35 -60l-37 -71q-31 -52 -37 -84l6 -6q29 -33 39 -43q55 -56 151 -64q17 6 45 6l45 6
q113 47 232 172l39 45l57 64q8 8 22 16q15 6 23 6q4 0 8 -4q0 -4 2 -6l-26 -45l-29 -53l-18 -55l-142 -146q-69 -67 -137 -111q-74 -43 -156 -43q-168 0 -301 115q-12 0 -26 -8l-31 -22l-25 -21z" />
    <glyph glyph-name="currency" unicode="&#xa4;" horiz-adv-x="1241" 
d="M879 1200q-131 0 -242 -92q-112 -94 -139 -221q-8 -33 -8 -70q0 -88 51 -153q72 -92 203 -92q127 0 239 92q113 92 142 223q8 33 8 70q0 82 -53 151q-72 92 -201 92zM459 1420l164 -207q76 47 141 69q64 20 133 20q78 0 131 -22q60 -20 111 -67l248 207l57 -74l-250 -205
q15 -23 25 -55q10 -35 14 -58q2 -22 2 -51v-53q-6 -27 -8 -39q-14 -64 -51 -135q-37 -66 -90 -121l161 -205l-88 -74l-159 207q-68 -45 -135 -65q-33 -10 -68 -17q-35 -6 -76 -6q-78 0 -131 21q-55 20 -106 67l-252 -207l-56 74l250 205q-14 27 -24 59q-13 31 -15 56
q-2 22 -2 51v37q0 16 13 69q10 54 47 117q37 70 90 123l-162 205z" />
    <glyph glyph-name="yen" unicode="&#xa5;" horiz-adv-x="953" 
d="M191 -33l14 37l23 52l20 38l18 33l21 21l8 12q10 47 35 72q-18 0 -45 -2t-55 -9l-117 -18q-25 -4 -47 -6q-25 -4 -53 -4q-15 0 -15 16v4q15 51 62 90q45 37 96 37l53 -2l51 -2l70 12l80 17q29 61 45 135q0 8 -4 16h-25q-78 0 -272 -37l-12 -4q-23 4 -23 27q0 4 2 10
q25 49 66 84q14 10 30 19q29 14 60 14h12h20h25h43l35 4q-2 29 -31 88l-39 88q-8 19 -8 43q0 8 4 25l-6 86l-10 88v29q0 10 6 49l-4 16l2 35l4 33l6 39l4 32l27 33q16 19 29 27q10 6 18 10q6 4 20 4l19 2l35 14l26 11q23 0 43 -27q23 -22 23 -37q0 -4 -2 -8q-6 -33 -17 -76
q-12 -45 -34 -116q-9 -74 -9 -103q-2 -29 -2 -47v-33q4 -24 4 -35l5 -43l6 -61l-4 -59q-2 -9 -2 -17q0 -18 8 -37q12 -28 35 -30q26 16 53 49l53 63q25 27 41 33l86 115l100 127l93 121q16 22 38 55q21 31 39 63q17 33 62 80q43 45 76 70l8 4q16 0 28 -35q-8 -45 -20 -90
q-12 -47 -14 -55l-9 -15l-12 -12q-10 -37 -26 -61l-60 -78q-39 -47 -53 -78q-33 -57 -72 -104.5t-57 -67.5q-21 -23 -53 -55l-101 -109l8 -4q41 6 132 37q8 4 71 10l82 8q14 0 14 -12v-6q-10 -33 -53 -70t-78 -47l-118 -16q-115 -13 -144 -21l-30 -49l-35 -55l-31 -66l25 2
l75 6l88 19l91 18l75 6q8 -14 8 -24q-12 -53 -112 -92l-6 -8l-4 -5q-15 -4 -93 -14q-77 -10 -133 -16q-75 -13 -84 -21l-51 -82q-31 -61 -41 -94v-20q10 -17 12 -25q3 -8 5 -14q-2 -17 -50 -46q-47 -28 -98 -47h-27q-75 0 -75 39z" />
    <glyph glyph-name="brokenbar" horiz-adv-x="793" 
d="M643 0l310 1456h112l-309 -1456h-113z" />
    <glyph glyph-name="section" unicode="&#xa7;" horiz-adv-x="1024" 
d="M412 758q-4 -20 -4 -29q0 -20 8 -43q9 -22 23 -45q12 -24 33 -53q36 -49 64.5 -82t55.5 -53q57 -45 105 -45q69 0 124 43q54 41 70 108q4 21 4 33q0 29 -8 53q-10 25 -27.5 51.5t-48.5 67.5q-61 80 -112 113q-47 35 -90 35q-74 0 -127 -45q-54 -39 -70 -109zM670 363
q80 -76 117 -152q22 -51 22 -100q0 -25 -6 -49q-20 -107 -123 -179q-104 -74 -239 -74q-123 0 -191 62q-55 43 -55 112q0 21 2 32q12 51 47 81.5t82 30.5q35 0 59 -24q15 -17 15 -41q0 -13 -4 -33.5t-45 -59.5l-43 -45v-8q0 -25 36 -41q41 -21 105 -21q82 0 145 45
q62 43 76 114q4 24 4 36q0 35 -18 72q-31 55 -109 139l-147 156q-35 35 -59.5 72t-42.5 77q-19 41 -19 87q0 24 6 49q23 108 117 180q92 72 211 72h19q-91 90 -113 147q-25 57 -25 100q0 27 6 52q20 106 119 182q98 74 221 74q115 0 184 -60q51 -45 51 -110q0 -13 -4 -37
q-10 -49 -45 -78q-35 -31 -82 -31q-41 0 -61 25q-14 16 -14 37q0 8 2 16q6 35 45 69.5t47 53.5v4q0 25 -33 43q-16 10 -39 16q-24 7 -55 7q-78 0 -131 -46q-58 -40 -69 -110q-4 -25 -4 -39q0 -35 16 -74q29 -55 113 -143l147 -150q69 -73 98 -145q18 -43 18 -90
q0 -27 -6 -55q-20 -107 -113 -177q-92 -71 -213 -71h-22z" />
    <glyph glyph-name="dieresis" unicode="&#xa8;" horiz-adv-x="568" 
d="M740 920q-23 0 -39.5 19.5t-16.5 47.5q14 33 41 54q49 59 96 59q17 0 35 -10l33 -10l16 -5l6 -8l-4 -39q-12 -51 -26 -63l-21 -10q-18 -11 -22 -15q-10 -2 -27 -24q-2 8 -35 8q-24 0 -36 -4zM426 916q-35 24 -35 63q0 15 4.5 35t47.5 53t79 33q37 0 64 -20q20 0 20 -27
l-4 -33l-10 -43l-4 -4q-18 -16 -41 -27q-25 -12 -37 -26h-31l-26 -2z" />
    <glyph glyph-name="copyright" unicode="&#xa9;" horiz-adv-x="1641" 
d="M809 -47q-129 0 -254 51q-59 27 -108 62t-92 84q-84 98 -115 231q-17 70 -17 139q0 68 17 156q43 199 172 363q127 161 315 260q94 51 191 78q96 24 198 24q193 0 338 -98q146 -99 213 -264q39 -103 39 -218q0 -63 -16 -141q-39 -168 -127 -301q-90 -135 -213 -229
t-266 -146q-144 -51 -275 -51zM1245 819q0 86 -51 131.5t-143 45.5t-164 -45q-74 -46 -117 -121q-45 -72 -63 -154q-6 -35 -8 -47q-2 -14 -2 -43q0 -82 41 -141q63 -88 178 -88q73 0 153 41q78 41 117 143h129q-41 -100 -113 -172q-59 -66 -147 -104q-82 -33 -166 -33
q-102 0 -192 49q-86 51 -125 151q-25 62 -25 136q0 49 12 108q35 156 119 256t191 146q104 43 208 43q95 0 157.5 -33t94.5 -84q13 -19 25 -47q10 -31 16 -56q7 -26 7 -57q0 -16 -3 -25h-129zM838 88q158 0 305 80q147 78 254 215t140 293q14 59 14 127q0 88 -27 162
q-45 133 -160 217q-117 81 -276 81q-160 0 -307 -82q-148 -81 -250 -216q-103 -137 -140 -289q-14 -63 -14 -131q0 -84 29 -164q43 -129 157 -213q62 -41 127 -59q66 -21 148 -21z" />
    <glyph glyph-name="ordfeminine" unicode="&#xaa;" horiz-adv-x="545" 
d="M283 996l-2 16v4q0 6 -2 16q92 220 209 277q10 12 16 16l47 31l39 25l74 49q37 24 71 41q33 14 68 14l18 -4l21 -12q5 -2 9 -13q-6 -20 -25 -34l-29 -17l-16 -8l-49 -43l-47 -39l-45 -27q-33 -36 -68 -49l-43 -35l-55 -45l-21 -34q35 4 60 22l35 21q24 36 87 61
q10 14 41 33l53 35h31q16 0 21 -9v-12q1 -4 1 -8q0 -5 -1 -10v-33l-16 -37q0 -27 5 -39l29 -20q41 12 78 39v-25v-14l-6 -8l-6 -9q-6 -35 -54 -59q-22 -12 -43 -21q-22 -8 -39 -8l-18 4q-33 0 -49 18.5t-16 55.5q0 19 2 27t2 12v4q-5 2 -7 4q-10 -4 -20 -10t-43 -31
q-154 -127 -248 -135q-29 6 -49 23z" />
    <glyph glyph-name="guillemotleft" unicode="&#xab;" horiz-adv-x="1293" 
d="M721 727q62 25 94 25q25 0 39 -10q10 -9 10 -21v-8q-6 -31 -57 -57l-90 -68q-29 -18 -54 -25q-28 -34 -71 -75l-72 -74q-26 -33 -41 -74q-2 -10 -2 -31q0 -26 9 -55q8 -31 30 -84l27 -82l-2 -12q-2 -14 -25 -25l-53 -14l-45 -8q-41 14 -59 49q-2 6 -17 53q-14 45 -20 66
l-10 39l-11 45q0 26 4 43q0 14 -2 16q15 43 37 72q17 27 39 49l64 49q43 33 53 49q47 29 129 93zM1061 725q55 27 90 27q45 0 55 -25l2 -6v-12q-6 -17 -80 -66l-37 -28l-39 -29l-45 -23l-67 -65q-49 -43 -76 -76q-29 -33 -39 -74q-4 -32 -4 -47q0 -22 8 -47q6 -26 15 -55
q10 -23 20 -43q25 -62 25 -80q-2 -16 -61 -33l-27 -4l-43 -10q-33 12 -66 59q-22 43 -22 76v8l-4 25q-23 51 -23 102q0 19 2 29q0 4 -2 8q27 76 90 135q15 15 23 21q6 6 29 20l51 43q45 31 102 72q56 39 76 57l20 17l19 18z" />
    <glyph glyph-name="logicalnot" unicode="&#xac;" horiz-adv-x="1053" 
d="M140 541h978l-114 -541h-92l96 453h-887z" />
    <glyph glyph-name="minus" horiz-adv-x="672" 
d="M152 411l31 146h544l-30 -146h-545z" />
    <glyph glyph-name="registered" unicode="&#xae;" horiz-adv-x="1641" 
d="M776 1091h324h4q142 0 199 -57q39 -38 39 -108v-43q-6 -23 -9 -31q-22 -104 -92 -160q-71 -55 -172 -67l158 -369h-139l-146 365h-131l-76 -365h-135zM889 983l-53 -252h213q39 0 84 29t59 92q6 25 6 45q0 41 -32 62q-45 22 -138 22zM809 -47q-157 0 -278 61.5t-197 163
t-100 228.5q-8 55 -8 82q-3 24 -3 39q0 67 17 145q31 147 115 279q81 131 206 235q123 104 265 160q139 55 290 55q199 0 347 -100q145 -101 206 -267q35 -100 35 -206q0 -70 -16 -156q-31 -141 -113 -270t-201 -228q-118 -100 -268 -164q-141 -57 -297 -57zM838 88
q119 0 237 49q117 50 211 129q45 41 86 91q41 47 74 98q66 106 90 217q13 66 13 123v63q-7 25 -9 37q-18 105 -80 191q-28 39 -69 73q-41 35 -88 57q-99 47 -215 47q-172 0 -316 -82q-143 -83 -250 -224q-96 -133 -131 -285q-6 -33 -10 -63q-4 -33 -4 -64q0 -78 25 -152
q41 -133 151 -217q60 -43 128.5 -65.5t156.5 -22.5z" />
    <glyph glyph-name="macron" unicode="&#xaf;" horiz-adv-x="1024" 
d="M494 1211l28 139h539l-29 -139h-538z" />
    <glyph glyph-name="degree" unicode="&#xb0;" horiz-adv-x="674" 
d="M629 1372q-88 0 -156 -59q-69 -55 -88 -141q-6 -25 -6 -49q0 -54 35 -95q47 -60 131 -60q82 0 153.5 60t89.5 144q4 28 4 43q0 57 -34 98q-43 59 -129 59zM647 1454q117 0 183 -84q46 -55 46 -135q0 -28 -6 -63q-24 -117 -126 -199q-103 -84 -219 -84q-115 0 -183 82
q-20 25 -33 61q-12 37 -12 72v27q0 10 8 41q25 118 126.5 200t215.5 82z" />
    <glyph glyph-name="plusminus" unicode="&#xb1;" horiz-adv-x="1164" 
d="M629 924l55 265q11 41 37 58q27 17 55 17q39 0 50 -49q4 -13 4 -41q0 -37 -12 -90l-19 -61l-18 -62l-4 -37l169 -4l113 2l53 2q62 0 62 -51q0 -17 -2 -25q-8 -39 -62.5 -59.5t-134.5 -20.5q-57 0 -100 13l-123 -13l-12 -59l-19 -70l-20 -90q-25 -113 -56 -113
q-14 11 -18 23t-20 20q2 11 2 19q0 14 -6 22l-19 35q-6 8 -22 33q-2 8 -2 16q-1 4 -1 7q0 7 3 14l12 47l10 37l2 24l5 27l-158 2l-158 2q-104 0 -104 33v4q4 10 26 23q21 10 27 24q27 4 41 12l42 28q21 16 39 24q11 8 33 8l88 -2l72 -2zM768 205q-121 0 -264 -20
q-65 0 -135 2q-70 1 -148 5h-92q-61 0 -67 23q12 31 55 58l27 8l22 8q55 59 113 59l69 -4l68 -4l141 4q107 0 217 2q111 0 224 2q36 0 57 -20q15 -14 15 -35q0 -8 -2 -16q-21 -85 -191 -85z" />
    <glyph glyph-name="twosuperior" horiz-adv-x="592" 
d="M234 568q-41 12 -47 26q-7 12 -7 53q3 11 58 78l264 262l104 117q33 41 41 84q2 6 2 12q0 31 -36 52q-43 24 -91 24q-51 0 -92 -26q-45 -25 -55 -74l-14 -15l-15 -8q-18 0 -24 25q-6 22 -6 51q0 18 2 27l12 32l10 29q19 41 74 70q59 24 121 24q51 0 88 -8q35 -8 74 -33
q65 -37 65 -118q-16 -72 -59 -136q-49 -71 -103 -131l-98 -104q-8 -14 -27 -33q-32 -33 -53 -53q-59 -60 -82 -98q8 -11 29 -15l49 -8l37 -2l203 8q12 0 12 -8v-4q-2 -19 -57.5 -49.5t-96.5 -30.5q-53 -33 -213 -33l-43 6z" />
    <glyph glyph-name="threesuperior" horiz-adv-x="568" 
d="M109 533v12q4 16 25 31l55 28l39 17l117 61l127 66l57 37q29 22 31 30q-4 11 -78 29q-31 6 -55 14q-27 7 -64 21q-35 10 -35 39v6q11 45 50 76q65 59 157 153q45 45 84 94q6 7 15 17q0 8 -13 10q-17 2 -35 2l-66 -6l-94 -23l-96 -18l-12 8l-10 10l4 25q47 98 86 121
q14 10 81 22l70 17h10h74q29 0 111 -8q65 -13 166 -43l29 -15q22 -14 22 -26q-4 -4 -10 -7q-8 -4 -23.5 -8t-19.5 -4q-4 -2 -10 -8q-17 -33 -86 -102l-144 -140q-71 -75 -73 -90q6 -16 69 -41q25 -10 52 -22q24 -15 47 -25q18 -14 30 -31q11 -16 11 -38l-5 -27
q-14 -72 -156 -154q-84 -51 -155 -78q-74 -28 -174 -53l-29 4l-29 4l-45 -8z" />
    <glyph glyph-name="acute" unicode="&#xb4;" horiz-adv-x="568" 
d="M586 1041l119 86q37 30 86 86q39 0 65 -17q27 -12 27 -35q0 -6 -2 -12q-4 -20 -30 -47l-31 -37q-21 -4 -70 -35l-72 -41q-20 -8 -55 -12q-29 -20 -76 -39l-88 -26l-63 -19q-39 8 -39 47q23 17 68 31l86 31z" />
    <glyph glyph-name="mu" unicode="&#xb5;" 
d="M51 297l76 68q21 16 41 35q19 16 37 36l92 99q29 28 58 59q18 21 38 49q15 17 52 35q34 19 59 19q30 0 30 -29q0 -8 -2 -21q-6 -30 -45 -94l-47 -84q-57 -123 -87 -237q-3 -15 -3 -29q-2 -14 -2 -20q0 -31 11 -35l39 22l71 58q150 137 209 213l53 55q23 16 50 16
q49 0 53 -18q3 -21 3 -45q0 -33 -2 -49q-4 -19 -6 -45q-2 -29 -2 -48q0 -24 42 -38q20 0 45 12l47 31l33 20q3 0 3 -12v-11q-2 -24 -10 -65q-14 -64 -90 -98.5t-155 -44.5l-35 8q-51 24 -64 76l-4 30l-4 35l-8 10q-14 -4 -66 -61q-53 -59 -77 -78l-58 -45l-69 -53
q-29 -23 -52 -31l-12 -2l-14 -3l-15 9l-12 8l-16 -47l-21 -49l-61 -236q-19 -61 -29 -88q-10 -29 -39 -90q-41 -94 -105 -170q-22 -25 -59 -25q-53 0 -53 82q0 39 12 94q43 209 209 437l31 45l12 18l17 117l16 101q4 20 4 28v7l6 32v4q1 1 1 2t-1 3q-4 2 -6 4q-22 0 -82 -54
l-35 -26q-6 -4 -22 -15q-4 -2 -10 -6l6 51q16 70 24 74z" />
    <glyph glyph-name="paragraph" unicode="&#xb6;" horiz-adv-x="1012" 
d="M275 991q37 173 180 277q121 96 332 96h468l-14 -63h-96l-319 -1506h-84l319 1506h-225l-320 -1506h-84l179 842q-43 0 -80 6q-39 4 -74 12.5t-92 53.5q-43 31 -80 108q-19 48 -19 103v28q0 13 9 43z" />
    <glyph glyph-name="periodcentered" unicode="&#x2219;" horiz-adv-x="475" 
d="M293 412q-41 0 -70 37q-24 24 -24 59q0 17 2 25q14 53 53 82q35 32 88 32q47 0 74 -34q18 -25 18 -60q0 -16 -2 -24q-8 -43 -53 -80t-86 -37z" />
    <glyph glyph-name="cedilla" unicode="&#xb8;" horiz-adv-x="568" 
d="M211 -176l-24 -39l-29 -49q-12 -17 -29 -17q-47 0 -47 43q0 15 4 31q2 14 33 55q29 41 33 55l43 82l59 99l55 88l70 80q21 21 60 21q34 0 34 -21v-4q-6 -25 -34 -47q-19 -53 -54 -115l-96 -146z" />
    <glyph glyph-name="onesuperior" horiz-adv-x="492" 
d="M342 525l-53 -13q-32 6 -32 21q10 35 51 100l49 80l98 199l58 139q37 98 51 149l4 21h-8l-21 -14l-26 -19q-33 -12 -185 -117l-39 -26l-31 -23l-22 -10l-6 25l14 34l9 21q16 22 82 74l79 63l76 61q8 7 53 41q22 19 33 27q43 31 88 55q43 23 78 23q22 0 55 -16
q25 -15 27 -31q0 -4 -2 -8q-18 -58 -35 -101q-16 -45 -39 -90l-123 -250q-80 -149 -121 -243q-14 -27 -22 -39q-19 -27 -35 -41q-6 -35 -105 -92z" />
    <glyph glyph-name="ordmasculine" unicode="&#xba;" horiz-adv-x="545" 
d="M661 1155q10 19 19 31q8 10 22 27q2 8 2 20q0 39 -38 39l-33 -6l-31 -25l-28 -22l-29 -10q-16 -13 -35 -41l-31 -60l5 -20l6 -8l18 -9q60 6 153 84zM375 996q-27 16 -27 96q19 65 62 137q37 70 90 111q12 4 22 14l46 37l57 45q29 0 41 -6q10 -6 10 -15v-4
q-17 -10 -23 -30q54 16 105 16q47 0 70 -29q13 -16 13 -47q0 -8 -4 -33q-10 -51 -47.5 -114.5t-84.5 -77.5q-13 -16 -25 -25.5t-22 -13.5q-29 -35 -72 -51q-27 -10 -53 -19q-27 -8 -58 -14q-36 0 -59 6q-25 6 -41 17z" />
    <glyph glyph-name="guillemotright" unicode="&#xbb;" horiz-adv-x="1293" 
d="M649 56q-53 -27 -90 -27q-26 0 -39 14q-10 8 -10 21q0 6 2 12q2 12 13 18l47 35q24 13 67 47q43 35 72 43q8 11 24 27q17 14 46 41q47 41 71 72q29 30 35 69q6 23 6 43q0 15 -4 43q-10 43 -12 56q-2 10 -17 47l-28 80q6 20 49 38q41 17 76 17l16 -2l10 -2q25 -25 41 -60
q15 -34 23 -75l18 -84q4 -15 4 -27v-25q0 -32 -4 -51q-6 -20 -10 -30q-6 -13 -21 -31q-14 -27 -34 -45l-62 -45q-39 -27 -55 -52q-23 -12 -53 -34q-33 -23 -80 -60zM305 56q-53 -27 -84 -27q-24 0 -36 10q-15 8 -19 25q2 22 27 43q10 10 26 20q27 19 37 25l47 33
q17 12 33 20q14 8 29 10l71 74l76 72q23 26 33 55q6 29 6 53q0 15 -4 53q-6 37 -33 99l-26 71l-2 9q16 22 55 37q37 14 72 14q24 0 43 -21q8 -10 20 -30q10 -21 14 -31l15 -41q8 -16 8 -47l6 -57q8 -23 8 -50q0 -10 -4 -34q-6 -27 -10 -39.5t-14 -28.5q-13 -16 -19 -25.5
t-26 -29.5l-62 -45q-43 -33 -53 -50q-37 -18 -80 -55l-80 -65q-37 -31 -74 -47z" />
    <glyph glyph-name="onequarter" horiz-adv-x="1409" 
d="M1121 41l18 41l23 70v2q0 8 -15 14l-43 -4l-41 -4q-88 0 -102 49q-6 10 -6 31v18q4 19 8 41q2 21 27 84l27 74l57 115l51 96l-6 16q22 58 71 97q49 43 105 43l14 -9q2 -10 2 -14q-4 -16 -8 -20q-143 -197 -260 -457q0 -33 30 -45l95 -15l39 9l14 39l26 67l23 66l23 63
q12 35 32 64q25 24 58 24l28 -12l13 -12q4 -4 4 -11q0 -4 -2 -8q-8 -49 -61.5 -145t-65.5 -127l6 -4l4 -4l45 14l37 12q11 0 11 -18q0 -12 -2 -23q-5 -10 -60 -35l-49 -22l-35 -16q-6 -11 -18 -41q-19 -43 -27 -66l-47 -119q-5 -4 -9 -8q-6 -4 -22 -13l-37 -14l-2 16l-2 17z
M398 553l-13 -4q-8 8 -8 14v5l45 71q23 43 29 74q16 14 28 37q13 31 27 63l23 52l71 157q45 109 70 211l-4 4q-21 0 -205 -141l-39 -29l-45 -30q-20 0 -20 20q12 33 34 57q11 13 23 25q10 12 27 25l63 51l55 41q144 127 226 184q22 0 51 -16q24 -19 24 -31l-22 -72l-19 -53
q-41 -113 -108 -254q-43 -88 -68 -135q-30 -58 -82 -154q-16 -47 -45 -73q-2 -13 -43 -48q-41 -34 -75 -51zM260 -80q37 181 248 379q37 90 92 176q25 37 58 82q26 37 63 84l146 187q84 110 129 180l71 104l66 90l57 86l12 29q5 14 17 31q10 16 14 22l82 99l31 12q12 2 18 4
q4 0 10 4q70 39 97 39q2 -22 2 -39l-12 -16l-16 -29l-43 -76l-74 -139q-31 -57 -88 -137q-49 -72 -131 -176l-103 -131l-131 -172l-133 -170l-127 -166l-58 -82l-98 -148q-23 -32 -37 -62q-16 -30 -22 -41q-17 -36 -50 -73q-34 -31 -61 -31q-16 0 -25 18q-8 17 -8 37
q0 8 4 25z" />
    <glyph glyph-name="onehalf" horiz-adv-x="1495" 
d="M398 553l-13 -4q-8 8 -8 14v5l45 71q23 43 29 74q16 14 28 37q13 31 27 63l23 52l71 157q45 109 70 211l-4 4q-21 0 -205 -141l-39 -29l-45 -30q-20 0 -20 20q12 33 34 57q11 13 23 25q10 12 27 25l63 51l55 41q144 127 226 184q22 0 51 -16q24 -19 24 -31l-22 -72
l-19 -53q-41 -113 -108 -254q-43 -88 -68 -135q-30 -58 -82 -154q-16 -47 -45 -73q-2 -13 -43 -48q-41 -34 -75 -51zM260 -80q37 181 248 379q37 90 92 176q25 37 58 82q26 37 63 84l146 187q84 110 129 180l71 104l66 90l57 86l12 29q5 14 17 31q10 16 14 22l82 99l31 12
q12 2 18 4q4 0 10 4q70 39 97 39q2 -22 2 -39l-12 -16l-16 -29l-43 -76l-74 -139q-31 -57 -88 -137q-49 -72 -131 -176l-103 -131l-131 -172l-133 -170l-127 -166l-58 -82l-98 -148q-23 -32 -37 -62q-16 -30 -22 -41q-17 -36 -50 -73q-34 -31 -61 -31q-16 0 -25 18
q-8 17 -8 37q0 8 4 25zM922 -105q-41 11 -45 21t-4 28v35q4 13 60 77l75 75l107 109l88 88q57 59 94 106q35 48 49 78l6 21q2 8 2 16q0 37 -39 53q-22 11 -45 17t-49 6q-53 0 -94 -27q-41 -22 -60 -73q-6 -11 -10 -15l-16 -14q-31 0 -31 59l5 49l10 33l9 27q15 43 72 71
q33 15 64 23q28 6 63 6q100 0 170 -37q68 -39 68 -127q-12 -65 -59 -141q-53 -76 -107 -135l-104 -109l-82 -86q-64 -67 -84 -104q10 -21 118 -21l209 9q15 0 15 -9v-4q-4 -23 -66 -56q-53 -32 -92 -32q-62 -29 -187 -29h-32q-68 0 -78 12z" />
    <glyph glyph-name="threequarters" horiz-adv-x="1360" 
d="M260 -80q37 181 248 379q37 90 92 176q25 37 58 82q26 37 63 84l146 187q84 110 129 180l71 104l66 90l57 86l12 29q5 14 17 31q10 16 14 22l82 99l31 12q12 2 18 4q4 0 10 4q70 39 97 39q2 -22 2 -39l-12 -16l-16 -29l-43 -76l-74 -139q-31 -57 -88 -137
q-49 -72 -131 -176l-103 -131l-131 -172l-133 -170l-127 -166l-58 -82l-98 -148q-23 -32 -37 -62q-16 -30 -22 -41q-17 -36 -50 -73q-34 -31 -61 -31q-16 0 -25 18q-8 17 -8 37q0 8 4 25zM258 541q-41 0 -51 18q6 15 53 50q152 75 305 167q33 15 56 52v4q0 14 -23 20l-78 27
q-28 8 -47 16q-20 6 -30 13q-23 10 -23 28v4l-2 13q14 45 47 71q47 41 139 144q91 100 91 108v4q0 4 -5 8q-8 5 -28 5l-97 -9q-22 -4 -34 -4q-13 -2 -56 -16l-51 -17q-20 0 -20 33q28 74 82 121q57 39 200 39q159 0 159 -76q0 -8 -3 -16l-4 -17l-4 -14q-8 -18 -41 -53
l-98 -105l-99 -106q-33 -39 -35 -53q7 -13 60 -35q51 -25 90 -53q29 -23 29 -68l-9 -33q-6 -33 -32 -61q-27 -31 -90 -74q-181 -117 -300 -131q-8 4 -28 4l-8 -4zM1053 -4l17 43l22 74q0 16 -33 16l-37 -2l-35 -2q-84 0 -106 47q-4 8 -4 39v37q6 23 15 43q6 21 20 55l33 86
l57 117q49 90 53 107l-8 16q25 37 45 66q20 26 41 43q39 38 98 38q19 0 19 -14v-4q-4 -23 -20 -55q-19 -35 -46 -68l-40 -57q-78 -123 -179 -328q2 -31 43 -45q6 -2 39 -8q30 -6 59 -8l17 4l16 4q25 41 55 151q31 109 68 158q18 31 65 31l29 -15l13 -10q2 -14 2 -18
q-10 -43 -31 -88l-55 -107l-47 -90l8 -4l6 -4l41 10l45 15q10 0 10 -17q0 -4 -4 -29l-63 -34q-53 -23 -74 -33q-4 -2 -12 -8l-56 -131l-41 -105l-31 -21l-37 -16q-11 0 -11 18q0 6 2 15z" />
    <glyph glyph-name="questiondown" unicode="&#xbf;" 
d="M518 -236l13 8q18 0 40.5 -28.5t48.5 -83.5l13 -27l8 -26v-27q-8 -53 -43 -105q-35 -51 -80 -51q-61 0 -100 19q-41 18 -117 67q-32 21 -61 37q-29 14 -47 21q-56 30 -92 112q-17 33 -17 82q0 43 15 105q12 61 51 143q14 25 28 52q23 41 52 75l114 154q35 45 66 88
q24 35 45 66l41 49q16 12 45 18l39 6l35 7q6 0 7 -7v-6q0 -8 -2 -20l-18 -49l-43 -66l-33 -45q-167 -227 -204 -404q-4 -29 -4 -39q0 -35 16 -72q27 -57 74 -86q53 -51 78 -51q12 8 16 31v12q0 13 -2 21zM915 811q-8 -16 -45 -47t-46 -51l-50 -29l-59 -35q-10 -6 -20 -8
q-13 -2 -27 -4l-57 10q-13 5 -19 25l8 20l10 29l14 23l13 20l17 19l14 14q4 4 23.5 19.5t52.5 27.5l41 10q26 2 69 23l13 2l16 2q32 0 32 -51v-19z" />
    <glyph glyph-name="Agrave" unicode="&#xc0;" horiz-adv-x="983" 
d="M21 -129q-44 -15 -68 -15q-17 0 -17 27q0 14 2 25l14 41l21 51l18 41q42 88 50 90q4 15 16 43q12 29 29 62q37 65 43 88q-19 0 -24 -4q-21 2 -27 14q-2 2 -2 8q0 11 4 31q16 72 59 129q41 57 111 57q6 11 10 17q22 35 33 49q32 61 59 92l37 82q29 61 76 125q19 27 55 106
q31 78 62 123q27 45 76 76l10 10l-10 17q-9 16 -9 28q29 39 43 52q13 10 46 18q30 6 55 33q22 24 33 53l39 12l45 31l43 27q16 10 34 10q19 0 39 -12q17 -13 17 -21v-2q-6 -14 -9 -20q-10 -23 -32 -60l-37 -65v-4q0 -9 6 -13q6 -6 37 -22l43 -21q18 -10 26 -24
q25 -29 27 -74q0 -10 -2 -21l-20 -141l-2 -12l-11 -35l-8 -29l2 -26q2 -8 2 -17q0 -14 -4 -30q-6 -29 -10 -50q-6 -20 -21 -61l-12 -96q6 -12 14 -19q5 -4 5 -12v-8q-5 -25 -15 -39l-39 -31l-18 -61l-19 -70q-20 -35 -32 -98q-11 -39 -17 -62q-8 -24 -16 -36v-35
q-16 -17 -41 -82q-14 -41 -21 -58q-6 -16 -16 -28l-8 -17q-12 -51 -96 -80q-17 0 -17 21q0 6 2 14l19 74l20 92l17 66l16 65q0 2 10 63.5t15 92.5l20 96l-68 -14q-65 -14 -81 -14q-17 0 -115 -31l-86 -31l-80 -33q-21 -6 -29 -6q-10 -2 -37 -2q-10 -24 -16 -39
q-12 -26 -39 -69l-27 -35l-22 -25q-29 -76 -43 -104l-29 -49l-10 -13q-25 -66 -53 -119q-31 -53 -45 -57zM830 629l2 8q12 19 24 76l2 63l17 39q-2 15 -2 27l4 43l22 88l-8 10l-6 21q-6 35 -33 67q-26 33 -57 33q-23 0 -45 -27q-25 -26 -43 -59l-33 -57l-37 -47
q-12 -15 -22 -29q-13 -16 -15 -20q-39 -76 -68 -117q-4 -6 -4 -8q-10 -17 -10 -19q-14 -29 -21 -33q-59 -59 -69 -96l19 -6l24 -6l39 10l47 6l49 4h50l45 4q65 25 129 25zM1020 1649q27 -21 90 -51q68 -29 90 -54q-2 -18 -20 -30q-21 -13 -31 -13l-55 17l-80 26
q-18 9 -25 15q-8 4 -32 22q-19 2 -80 41q-56 41 -82 47l-10 31l-13 29q2 12 2 18v6l11 27q36 37 84 37h20q45 -101 131 -168z" />
    <glyph glyph-name="Aacute" unicode="&#xc1;" horiz-adv-x="983" 
d="M21 -129q-44 -15 -68 -15q-16 0 -16 27q0 14 2 25l14 41l21 51l18 41q42 88 50 90q4 15 16 43q12 29 29 62q37 65 43 88q-19 0 -25 -4q-21 2 -26 14q-2 2 -2 8q0 11 4 31q16 72 59 129q41 57 111 57q6 11 10 17q22 35 33 49q32 61 59 92l37 82q29 61 76 125q18 27 55 106
q31 78 61 123q27 45 76 76l10 10l-10 17q-8 16 -8 28q29 39 43 52q12 10 45 18q31 6 55 33q22 24 33 53l39 12l45 31l43 27q16 10 34 10q19 0 39 -12q17 -13 17 -21v-2q-6 -14 -8 -20q-10 -23 -33 -60l-37 -65v-4q0 -9 7 -13q6 -6 36 -22l43 -21q19 -10 27 -24
q25 -29 27 -74q0 -10 -2 -21l-21 -141l-2 -12l-10 -35l-8 -29l2 -26q2 -8 2 -17q0 -14 -4 -30q-7 -29 -11 -50q-6 -20 -20 -61l-12 -96q6 -12 14 -19q4 -4 4 -12v-8q-4 -25 -14 -39l-39 -31l-19 -61l-18 -70q-21 -35 -33 -98q-10 -39 -17.5 -62.5t-15.5 -35.5v-35
q-16 -17 -41 -82q-14 -41 -21 -58q-6 -16 -16 -28l-8 -17q-12 -51 -96 -80q-16 0 -16 21q0 6 2 14l18 74l21 92l16 66l16 65q0 2 10.5 63.5t14.5 92.5l21 96l-68 -14q-66 -14 -82 -14t-115 -31l-86 -31l-80 -33q-20 -6 -28 -6q-10 -2 -37 -2q-10 -24 -16 -39
q-13 -26 -39 -69l-27 -35l-23 -25q-29 -76 -43 -104l-29 -49l-10 -13q-25 -66 -53 -119q-31 -53 -45 -57zM830 629l2 8q12 19 25 76l2 63l16 39q-2 15 -2 27l4 43l23 88l-8 10l-7 21q-6 35 -33 67q-26 33 -57 33q-23 0 -45 -27q-25 -26 -43 -59l-33 -57l-37 -47
q-12 -15 -22 -29q-13 -16 -15 -20q-38 -76 -67 -117q-4 -6 -4 -8q-10 -17 -10 -19q-14 -29 -21 -33q-59 -59 -69 -96l18 -6l24 -6l39 10l47 6l49 4h50l45 4q65 25 129 25zM922 1641l119 86q36 30 86 86q41 0 65 -17q27 -14 27 -39v-8q-8 -24 -30 -47l-33 -37q-10 -2 -25 -10
q-14 -8 -45 -25l-72 -41q-20 -8 -53 -12l-76 -39l-90 -26l-64 -19q-38 8 -38 47q23 17 68 31l86 31q36 14 38 16q17 8 37 23z" />
    <glyph glyph-name="Acircumflex" unicode="&#xc2;" horiz-adv-x="983" 
d="M21 -129q-44 -15 -68 -15q-17 0 -17 27q0 14 2 25l14 41l21 51l18 41q42 88 50 90q4 15 16 43q12 29 29 62q37 65 43 88q-19 0 -24 -4q-21 2 -27 14q-2 2 -2 8q0 11 4 31q16 72 59 129q41 57 111 57q6 11 10 17q22 35 33 49q32 61 59 92l37 82q29 61 76 125q19 27 55 106
q31 78 62 123q27 45 76 76l10 10l-10 17q-9 16 -9 28q29 39 43 52q13 10 46 18q30 6 55 33q22 24 33 53l39 12l45 31l43 27q16 10 34 10q19 0 39 -12q17 -13 17 -21v-2q-6 -14 -9 -20q-10 -23 -32 -60l-37 -65v-4q0 -9 6 -13q6 -6 37 -22l43 -21q18 -10 26 -24
q25 -29 27 -74q0 -10 -2 -21l-20 -141l-2 -12l-11 -35l-8 -29l2 -26q2 -8 2 -17q0 -14 -4 -30q-6 -29 -10 -50q-6 -20 -21 -61l-12 -96q6 -12 14 -19q5 -4 5 -12v-8q-5 -25 -15 -39l-39 -31l-18 -61l-19 -70q-20 -35 -32 -98q-11 -39 -17 -62q-8 -24 -16 -36v-35
q-16 -17 -41 -82q-14 -41 -21 -58q-6 -16 -16 -28l-8 -17q-12 -51 -96 -80q-17 0 -17 21q0 6 2 14l19 74l20 92l17 66l16 65q0 2 10 63.5t15 92.5l20 96l-68 -14q-65 -14 -81 -14q-17 0 -115 -31l-86 -31l-80 -33q-21 -6 -29 -6q-10 -2 -37 -2q-10 -24 -16 -39
q-12 -26 -39 -69l-27 -35l-22 -25q-29 -76 -43 -104l-29 -49l-10 -13q-25 -66 -53 -119q-31 -53 -45 -57zM830 629l2 8q12 19 24 76l2 63l17 39q-2 15 -2 27l4 43l22 88l-8 10l-6 21q-6 35 -33 67q-26 33 -57 33q-23 0 -45 -27q-25 -26 -43 -59l-33 -57l-37 -47
q-12 -15 -22 -29q-13 -16 -15 -20q-39 -76 -68 -117q-4 -6 -4 -8q-10 -17 -10 -19q-14 -29 -21 -33q-59 -59 -69 -96l19 -6l24 -6l39 10l47 6l49 4h50l45 4q65 25 129 25zM688 1503q-20 7 -20 35v11l4 16q20 33 41 47l80 43q55 29 78 53q16 4 53 25l45 20q31 0 80 -41
q12 -12 67 -34q54 -25 64 -50q20 -14 20 -55q0 -8 -4 -31q-4 -22 -8 -26l-16 -13l-68 37q-53 31 -88 37q-59 51 -84 51q-20 0 -61 -26l-56 -33q-32 -10 -75 -37z" />
    <glyph glyph-name="Atilde" unicode="&#xc3;" horiz-adv-x="983" 
d="M21 -129q-44 -15 -68 -15q-16 0 -16 27q0 14 2 25l14 41l21 51l18 41q42 88 50 90q4 15 16 43q12 29 29 62q37 65 43 88q-19 0 -25 -4q-21 2 -26 14q-2 2 -2 8q0 11 4 31q16 72 59 129q41 57 111 57q6 11 10 17q22 35 33 49q32 61 59 92l37 82q29 61 76 125q18 27 55 106
q31 78 61 123q27 45 76 76l10 10l-10 17q-8 16 -8 28q29 39 43 52q12 10 45 18q31 6 55 33q22 24 33 53l39 12l45 31l43 27q16 10 34 10q19 0 39 -12q17 -13 17 -21v-2q-6 -14 -8 -20q-10 -23 -33 -60l-37 -65v-4q0 -9 7 -13q6 -6 36 -22l43 -21q19 -10 27 -24
q25 -29 27 -74q0 -10 -2 -21l-21 -141l-2 -12l-10 -35l-8 -29l2 -26q2 -8 2 -17q0 -14 -4 -30q-7 -29 -11 -50q-6 -20 -20 -61l-12 -96q6 -12 14 -19q4 -4 4 -12v-8q-4 -25 -14 -39l-39 -31l-19 -61l-18 -70q-21 -35 -33 -98q-10 -39 -17.5 -62.5t-15.5 -35.5v-35
q-16 -17 -41 -82q-14 -41 -21 -58q-6 -16 -16 -28l-8 -17q-12 -51 -96 -80q-16 0 -16 21q0 6 2 14l18 74l21 92l16 66l16 65q0 2 10.5 63.5t14.5 92.5l21 96l-68 -14q-66 -14 -82 -14t-115 -31l-86 -31l-80 -33q-20 -6 -28 -6q-10 -2 -37 -2q-10 -24 -16 -39
q-13 -26 -39 -69l-27 -35l-23 -25q-29 -76 -43 -104l-29 -49l-10 -13q-25 -66 -53 -119q-31 -53 -45 -57zM830 629l2 8q12 19 25 76l2 63l16 39q-2 15 -2 27l4 43l23 88l-8 10l-7 21q-6 35 -33 67q-26 33 -57 33q-23 0 -45 -27q-25 -26 -43 -59l-33 -57l-37 -47
q-12 -15 -22 -29q-13 -16 -15 -20q-38 -76 -67 -117q-4 -6 -4 -8q-10 -17 -10 -19q-14 -29 -21 -33q-59 -59 -69 -96l18 -6l24 -6l39 10l47 6l49 4h50l45 4q65 25 129 25zM762 1596l-82 -29l-78 -31l-7 17l12 36q27 39 76 52q16 10 57 26q61 25 81 33l111 41h12q58 0 95 -45
l-20 -59l4 -9l9 -12l125 37l54 23q41 20 71 20l11 -8q-12 -60 -53.5 -82.5t-112.5 -34.5q-76 -16 -103 -27l-57 -16l-51 -12l-15 8l-14 57q-6 52 -33 52q-26 -5 -45 -13z" />
    <glyph glyph-name="Adieresis" unicode="&#xc4;" horiz-adv-x="983" 
d="M21 -129q-44 -15 -68 -15q-16 0 -16 27q0 14 2 25l14 41l21 51l18 41q42 88 50 90q4 15 16 43q12 29 29 62q37 65 43 88q-19 0 -25 -4q-21 2 -26 14q-2 2 -2 8q0 11 4 31q16 72 59 129q41 57 111 57q6 11 10 17q22 35 33 49q32 61 59 92l37 82q29 61 76 125q18 27 55 106
q31 78 61 123q27 45 76 76l10 10l-10 17q-8 16 -8 28q29 39 43 52q12 10 45 18q31 6 55 33q22 24 33 53l39 12l45 31l43 27q16 10 34 10q19 0 39 -12q17 -13 17 -21v-2q-6 -14 -8 -20q-10 -23 -33 -60l-37 -65v-4q0 -9 7 -13q6 -6 36 -22l43 -21q19 -10 27 -24
q25 -29 27 -74q0 -10 -2 -21l-21 -141l-2 -12l-10 -35l-8 -29l2 -26q2 -8 2 -17q0 -14 -4 -30q-7 -29 -11 -50q-6 -20 -20 -61l-12 -96q6 -12 14 -19q4 -4 4 -12v-8q-4 -25 -14 -39l-39 -31l-19 -61l-18 -70q-21 -35 -33 -98q-10 -39 -17.5 -62.5t-15.5 -35.5v-35
q-16 -17 -41 -82q-14 -41 -21 -58q-6 -16 -16 -28l-8 -17q-12 -51 -96 -80q-16 0 -16 21q0 6 2 14l18 74l21 92l16 66l16 65q0 2 10.5 63.5t14.5 92.5l21 96l-68 -14q-66 -14 -82 -14t-115 -31l-86 -31l-80 -33q-20 -6 -28 -6q-10 -2 -37 -2q-10 -24 -16 -39
q-13 -26 -39 -69l-27 -35l-23 -25q-29 -76 -43 -104l-29 -49l-10 -13q-25 -66 -53 -119q-31 -53 -45 -57zM830 629l2 8q12 19 25 76l2 63l16 39q-2 15 -2 27l4 43l23 88l-8 10l-7 21q-6 35 -33 67q-26 33 -57 33q-23 0 -45 -27q-25 -26 -43 -59l-33 -57l-37 -47
q-12 -15 -22 -29q-13 -16 -15 -20q-38 -76 -67 -117q-4 -6 -4 -8q-10 -17 -10 -19q-14 -29 -21 -33q-59 -59 -69 -96l18 -6l24 -6l39 10l47 6l49 4h50l45 4q65 25 129 25zM1080 1528q-25 0 -41 21q-14 16 -14 38v9q10 32 39 53q48 59 95 59q17 0 35 -10l34 -10l16 -4l6 -8
l-4 -39q-13 -52 -27 -64l-21 -10l-22 -14q-10 -7 -27 -25q-2 8 -35 8q-24 0 -34 -4zM764 1524q-34 25 -34 63q0 15 4 34.5t49 51.5q41 35 77 35q37 0 64 -20q21 0 21 -27q0 -8 -4 -33l-9 -43q-4 -10 -39 -26.5t-43 -30.5h-31l-28 -2z" />
    <glyph glyph-name="Aring" unicode="&#xc5;" horiz-adv-x="983" 
d="M21 -129q-44 -15 -68 -15q-16 0 -16 27q0 14 2 25l14 41l21 51l18 41q42 88 50 90q4 15 16 43q12 29 29 62q37 65 43 88q-19 0 -25 -4q-21 2 -26 14q-2 2 -2 8q0 11 4 31q16 72 59 129q41 57 111 57q6 11 10 17q22 35 33 49q32 61 59 92l37 82q29 61 76 125q18 27 55 106
q31 78 61 123q27 45 76 76l10 10l-10 17q-8 16 -8 28q29 39 43 52q12 10 45 18q31 6 55 33q22 24 33 53l39 12l45 31l43 27q16 10 34 10q19 0 39 -12q17 -13 17 -21v-2q-6 -14 -8 -20q-10 -23 -33 -60l-37 -65v-4q0 -9 7 -13q6 -6 36 -22l43 -21q19 -10 27 -24
q25 -29 27 -74q0 -10 -2 -21l-21 -141l-2 -12l-10 -35l-8 -29l2 -26q2 -8 2 -17q0 -14 -4 -30q-7 -29 -11 -50q-6 -20 -20 -61l-12 -96q6 -12 14 -19q4 -4 4 -12v-8q-4 -25 -14 -39l-39 -31l-19 -61l-18 -70q-21 -35 -33 -98q-10 -39 -17.5 -62.5t-15.5 -35.5v-35
q-16 -17 -41 -82q-14 -41 -21 -58q-6 -16 -16 -28l-8 -17q-12 -51 -96 -80q-16 0 -16 21q0 6 2 14l18 74l21 92l16 66l16 65q0 2 10.5 63.5t14.5 92.5l21 96l-68 -14q-66 -14 -82 -14t-115 -31l-86 -31l-80 -33q-20 -6 -28 -6q-10 -2 -37 -2q-10 -24 -16 -39
q-13 -26 -39 -69l-27 -35l-23 -25q-29 -76 -43 -104l-29 -49l-10 -13q-25 -66 -53 -119q-31 -53 -45 -57zM830 629l2 8q12 19 25 76l2 63l16 39q-2 15 -2 27l4 43l23 88l-8 10l-7 21q-6 35 -33 67q-26 33 -57 33q-23 0 -45 -27q-25 -26 -43 -59l-33 -57l-37 -47
q-12 -15 -22 -29q-13 -16 -15 -20q-38 -76 -67 -117q-4 -6 -4 -8q-10 -17 -10 -19q-14 -29 -21 -33q-59 -59 -69 -96l18 -6l24 -6l39 10l47 6l49 4h50l45 4q65 25 129 25zM914 1737q53 59 102 88q49 27 111 27q18 0 32 -9q21 -6 38 -20l28 -23l-4 -32v-11q0 -10 -2 -22
q-4 -19 -18 -43l-19 -39q-27 -45 -68 -66l-47 -16l-53 -18l-18 -4q-54 10 -95.5 33.5t-41.5 66.5l20 39q15 33 35 49zM955 1663v-4q0 -8 4 -12l24 -6l23 -4q49 10 84 26q33 17 39 53q2 9 2 15q0 33 -47 33q-31 0 -35 -5q-82 -28 -94 -96z" />
    <glyph glyph-name="AE" unicode="&#xc6;" horiz-adv-x="1633" 
d="M-13 -135l-4 43q2 4 14 26q11 23 21 43l33 85q16 37 39 63q6 27 43 101q18 34 24 47q17 30 21 51q-19 0 -26 -4q-27 0 -27 18q0 6 2 15l8 22l8 21v16q19 65 57 102q39 37 103 49l74 117l96 176q72 135 104 189l70 114q35 50 57 66l13 14q0 15 -9 25l-6 24q15 37 33 45
l70 27q22 8 30 17q17 16 23 32l19 27q18 6 33 12q14 10 20 12l53 33l41 27l6 2l7 2q22 0 40 -14q13 -13 13 -25v-8q-2 -19 -39 -76l-35 -61q0 -23 33 -43l55 -37q19 -17 19 -43v-4l-7 -90v-56q-2 -20 -4 -35q29 82 74 140q43 55 104 100l150 100q16 29 94 54q33 10 76 18
q41 8 76 8q20 0 33 4l32 4l37 -4l41 -4q88 0 88 -63q0 -17 -4 -33t-10 -33.5t-17 -34.5l-6 -28l-12 -31l-31 -16l-82 22q-28 8 -49 12q-22 5 -47 5q-51 0 -86 -13l-45 4q-14 -8 -31 -12q-16 -6 -47 -10q-33 -4 -53 -19q-23 -10 -41 -53q-20 -10 -45 -51l-59 -125
q-23 -53 -45 -104q-35 -82 -52 -138q0 -22 -6 -43q21 0 33 7l37 24l47 31q27 12 61 18q27 15 56 25q26 8 51 8q41 0 49 -4l55 8l54 4q51 0 75 -26q19 -19 19 -52q0 -6 -4 -26q-27 -82 -68 -96q-86 12 -246 12q-47 0 -53 -4l-72 -19l-90 -24q-32 -13 -53 -29q-18 -8 -31 -31
l-24 -55l-17 -43q-4 -20 -19 -47l-22 -49l-2 -21l-2 -18q-25 -41 -53 -137v-23l61 -2l58 -2q43 0 137 16l111 19l30 6l31 6q80 35 125 41q25 21 51 27q17 12 29 12q12 -4 14 -12q4 -9 4 -15v-4q-6 -37 -37 -67q-12 -13 -26 -25q-17 -14 -37 -27l-84 -41l-72 -32
q-164 -89 -436 -89q-41 0 -47 10q-2 5 -3 17v9q0 10 2 23q-14 -20 -48 -40q-35 -23 -47 -23q-11 0 -11 23q0 12 2 20l16 72l21 86l14 60l-4 4l6 8l8 16l7 35q6 29 14 53q6 23 12 50q4 24 17 75q10 52 10 86q-25 -2 -76 -18q-57 -14 -84 -14q-47 0 -90 -15l-118 -47
q-31 -12 -66 -26q-24 -9 -45 -15q-4 4 -20 4l-74 -135l-78 -145q-8 -25 -43 -62l-29 -68q-22 -61 -49.5 -90t-68.5 -29q-13 0 -21 2q-9 0 -9 5v2zM881 629l10 47l21 96q2 15 2 23v6l14 57l14 58q9 35 9 78q0 32 -7 67q-12 72 -73 72q-19 0 -33 -15l-68 -73q-6 -29 -61 -105
q-57 -69 -68 -96l-41 -68l-55 -92q-48 -47 -60 -92l17 -4l14 -4q183 20 242 20l45 15l43 6z" />
    <glyph glyph-name="Ccedilla" unicode="&#xc7;" horiz-adv-x="1024" 
d="M380 -92l-93 34q-47 19 -79.5 40.5t-59.5 60.5q-33 54 -45 144q-2 24 -2 43q-2 18 -2 30q0 27 4 60q2 30 4 49q4 6 17 51l-4 19l-3 14q35 162 123 318.5t207 277.5q75 94 129 119q2 16 24 36q23 19 58 35l49 33q49 41 102 68q23 12 58 26q16 6 57 23q65 20 106 20
q226 0 226 -114q0 -17 -2 -29q-4 -12 -6 -35q-4 -22 -4 -43l-10 -88l-11 -47q-6 -39 -24 -78l-38 -88l-45 -94q-59 -129 -108 -193q-17 -28 -43 -41l-78 -18q-27 0 -37 4t-10 10v4q17 74 33 127q15 54 33 90l39 95l43 96q4 8 16 24q11 17 17 25l39 43q8 8 22 29q12 20 14 35
q2 12 2 26q0 29 -29 58q-28 26 -80 26q-98 0 -176 -35q-78 -34 -141 -94q-27 -22 -59 -61q-35 -39 -56 -68q-22 -31 -55 -80q-47 -74 -57 -90l-53 -131q-41 -106 -70 -162q2 -18 2 -30l-4 -46l-10 -40l-10 -35q4 -8 8 -15q2 -8 16 -61q4 -14 11 -45q4 -33 7 -60l31 -36
l45 -54q10 -10 24.5 -20t28.5 -19q43 97 88 162q50 64 113 64q29 0 29 -21v-8q-8 -29 -35 -51q-24 -62 -86 -160q25 4 43 8q17 2 54 15l98 34l114 46q21 32 33 32q6 0 9 -8v-6q0 -8 -3 -18q-6 -31 -28 -54l-66 -47l-57 -43l-94 -35l-101 -39l-86 -19q-12 -24 -39 -53
l-33 -47l-31 -51q-8 -14 -20 -27q-2 -2 -4 -6q-65 0 -65 49l37 66z" />
    <glyph glyph-name="Egrave" unicode="&#xc8;" 
d="M537 0q-193 -72 -400 -72q-24 0 -36 6q-15 6 -21 29l8 33q-39 6 -45 11.5t-6 29.5l8 19l6 32l11 52q51 167 57 186q29 92 61 182l15 49l12 37l21 39l2 8l6 31l57 156q19 53 37 104q18 49 29 70q34 75 77 141q41 66 105 117q49 35 113 76q61 41 102 63q41 23 84 37
q43 12 88 12l49 4l57 4l35 -2l37 -2h31l55 -30q6 -11 6 -27q0 -6 -4 -27l-18 -55l-10 -33q-13 -37 -23 -45q-12 -10 -53 -22l-17 4q-67 30 -157 30l-92 -10l-91 -8q-28 0 -51 -22q-12 -11 -24 -27q-4 -6 -23 -33l-35 -59v-17l-16 -45l-12 -24q-11 -19 -19 -31l-24 -47
q-74 -150 -103 -240q27 0 66 33q45 33 69 43l43 14l68 21l47 6l80 4l78 4q84 0 84 -63q0 -8 -4 -37q-6 -29 -25 -64q-6 -14 -16 -24l-8 -8q-121 12 -230 12q-20 0 -57 -8q-39 -8 -68 -15l-88 -18q-43 -12 -78 -29q-28 -18 -53 -71l-41 -105l-53 -127l-31 -96l-2 -35
q23 0 41 -8q18 8 86 8q254 0 475 111q17 8 31 8q20 0 20 -23q0 -10 -2 -16q-14 -74 -188 -154q-41 -20 -133 -47zM908 1649q28 -23 94 -49q63 -29 88 -56q-2 -18 -25 -30q-8 -6 -14 -8q-8 -3 -12 -5l-56 17l-80 26q-30 15 -57 37q-22 2 -80 41q-53 41 -82 47l-12 31l-10 29
l2 24l10 27q35 37 84 37h18q45 -101 132 -168z" />
    <glyph glyph-name="Eacute" unicode="&#xc9;" 
d="M537 0q-193 -72 -400 -72q-24 0 -36 6q-15 6 -21 29l8 33q-39 6 -45 11.5t-6 29.5l8 19l6 32l11 52q51 167 57 186q29 92 61 182l15 49l12 37l21 39l2 8l6 31l57 156q19 53 37 104q18 49 29 70q34 75 77 141q41 66 105 117q49 35 113 76q61 41 102 63q41 23 84 37
q43 12 88 12l49 4l57 4l35 -2l37 -2h31l56 -30q6 -11 6 -27q0 -6 -4 -27l-19 -55l-10 -33q-13 -37 -23 -45q-12 -10 -53 -22l-17 4q-67 30 -157 30l-92 -10l-91 -8q-28 0 -51 -22q-12 -11 -24 -27q-4 -6 -23 -33l-35 -59v-17l-16 -45l-12 -24q-11 -19 -19 -31l-24 -47
q-74 -150 -103 -240q27 0 66 33q45 33 69 43l43 14l68 21l47 6l80 4l78 4q84 0 84 -63q0 -8 -4 -37q-6 -29 -25 -64q-6 -14 -16 -24l-8 -8q-121 12 -230 12q-20 0 -57 -8q-39 -8 -68 -15l-88 -18q-43 -12 -78 -29q-28 -18 -53 -71l-41 -105l-53 -127l-31 -96l-2 -35
q23 0 41 -8q18 8 86 8q254 0 475 111q17 8 31 8q21 0 21 -23q0 -10 -2 -16q-14 -74 -189 -154q-41 -20 -133 -47zM955 1649q35 22 69 47q19 14 53 43q33 27 82 82q41 0 66 -16q27 -13 27 -35q0 -6 -2 -13q-4 -20 -31 -47l-30 -37l-70 -34l-72 -41q-31 -13 -53 -13l-76 -39
l-88 -26l-66 -19q-38 9 -38 48q22 16 67 30l86 31q23 10 39 18q17 9 37 21z" />
    <glyph glyph-name="Ecircumflex" unicode="&#xca;" 
d="M537 0q-193 -72 -400 -72q-24 0 -36 6q-15 6 -21 29l8 33q-39 6 -45 11.5t-6 29.5l8 19l6 32l11 52q51 167 57 186q29 92 61 182l15 49l12 37l21 39l2 8l6 31l57 156q19 53 37 104q18 49 29 70q34 75 77 141q41 66 105 117q49 35 113 76q61 41 102 63q41 23 84 37
q43 12 88 12l49 4l57 4l35 -2l37 -2h31l55 -30q6 -11 6 -27q0 -6 -4 -27l-18 -55l-10 -33q-13 -37 -23 -45q-12 -10 -53 -22l-17 4q-67 30 -157 30l-92 -10l-91 -8q-28 0 -51 -22q-12 -11 -24 -27q-4 -6 -23 -33l-35 -59v-17l-16 -45l-12 -24q-11 -19 -19 -31l-24 -47
q-74 -150 -103 -240q27 0 66 33q45 33 69 43l43 14l68 21l47 6l80 4l78 4q84 0 84 -63q0 -8 -4 -37q-6 -29 -25 -64q-6 -14 -16 -24l-8 -8q-121 12 -230 12q-20 0 -57 -8q-39 -8 -68 -15l-88 -18q-43 -12 -78 -29q-28 -18 -53 -71l-41 -105l-53 -127l-31 -96l-2 -35
q23 0 41 -8q18 8 86 8q254 0 475 111q17 8 31 8q20 0 20 -23q0 -10 -2 -16q-14 -74 -188 -154q-41 -20 -133 -47zM647 1503q-22 9 -22 33q0 6 2 13l4 16q21 33 41 47l80 43q55 29 78 53q16 4 53 25l45 20q31 0 80 -41q12 -12 67 -34q54 -25 64 -50q20 -14 20 -55
q0 -8 -4 -31q-4 -22 -8 -26l-16 -13l-68 37q-53 31 -88 37q-59 51 -84 51q-22 0 -61 -26l-56 -33q-32 -10 -75 -37z" />
    <glyph glyph-name="Edieresis" unicode="&#xcb;" 
d="M537 0q-193 -72 -400 -72q-24 0 -36 6q-15 6 -21 29l8 33q-39 6 -45 11.5t-6 29.5l8 19l6 32l11 52q51 167 57 186q29 92 61 182l15 49l12 37l21 39l2 8l6 31l57 156q19 53 37 104q18 49 29 70q34 75 77 141q41 66 105 117q49 35 113 76q61 41 102 63q41 23 84 37
q43 12 88 12l49 4l57 4l35 -2l37 -2h31l55 -30q6 -11 6 -27q0 -6 -4 -27l-19 -55l-9 -33q-13 -37 -23 -45q-12 -10 -53 -22l-17 4q-67 30 -157 30l-92 -10l-91 -8q-28 0 -51 -22q-12 -11 -24 -27q-4 -6 -23 -33l-35 -59v-17l-16 -45l-12 -24q-11 -19 -19 -31l-24 -47
q-74 -150 -103 -240q27 0 66 33q45 33 69 43l43 14l68 21l47 6l80 4l78 4q83 0 83 -63q0 -8 -4 -37q-6 -29 -24 -64q-6 -14 -16 -24l-8 -8q-121 12 -230 12q-20 0 -57 -8q-39 -8 -68 -15l-88 -18q-43 -12 -78 -29q-28 -18 -53 -71l-41 -105l-53 -127l-31 -96l-2 -35
q23 0 41 -8q18 8 86 8q254 0 475 111q17 8 31 8q20 0 20 -23q0 -10 -2 -16q-14 -74 -188 -154q-41 -20 -133 -47zM1041 1544q-23 0 -41 21q-15 22 -15 43v4q16 35 41 53q49 60 97 60q10 0 32 -11q20 -10 35 -10l14 -4l8 -8l-4 -39q-12 -51 -26 -64q-14 -8 -21 -10l-24 -14
l-25 -25q-4 4 -35 9zM727 1540q-35 25 -35 64q0 12 4 33q4 18 49.5 53t78.5 35q34 0 63 -21q20 0 20 -26q0 -9 -4 -33l-10 -43q-2 -10 -35 -27q-34 -16 -47 -31h-30l-27 -2z" />
    <glyph glyph-name="Igrave" unicode="&#xcc;" horiz-adv-x="416" 
d="M92 0l17 193q14 43 24 80q9 34 15 53q4 16 10 24q6 9 8 13v6l6 22l8 45l17 52q4 16 16 53q10 35 29 88q16 39 31 82q12 43 18 69.5t6 47.5q0 12 -2 28q-2 17 -16 17v16l4 23l16 43l19 49q2 4 2 8q0 8 -4 16l45 88l63 127q39 74 80 119q41 39 96 39q60 31 86 31t26 -31
q0 -8 -6 -35.5t-18 -56.5q-4 -10 -29 -55l-37 -82q-7 -43 -28 -88q-6 -23 -20 -54q-17 -32 -27 -57l-45 -96l4 -4q-111 -236 -153 -441l-37 -118l-41 -109q-13 -55 -13 -111v-32q4 -25 4 -37q-10 -25 -36 -38q-29 -14 -52 -38q-24 -9 -47 -9q-39 0 -39 47v13zM733 1653
q22 -20 88 -51t92 -53q-6 -17 -22 -29q-18 -14 -31 -14l-55 16l-78 27q-37 16 -57 36q-23 2 -80 41q-20 17 -43 31q-25 12 -39 16l-12 31l-10 29q2 8 2 14t-2 10l10 27q41 37 84 37h20q41 -98 133 -168z" />
    <glyph glyph-name="Iacute" unicode="&#xcd;" horiz-adv-x="416" 
d="M92 0l17 193q14 43 24 80q9 34 15 53q4 16 10 24q6 9 8 13v6l6 22l8 45l17 52q4 16 16 53q10 35 29 88q16 39 31 82q12 43 18 69.5t6 47.5q0 12 -2 28q-2 17 -16 17v16l4 23l16 43l19 49q2 4 2 8q0 8 -4 16l45 88l63 127q39 74 80 119q41 39 96 39q60 31 86 31
q27 0 27 -31q0 -8 -6 -35.5t-19 -56.5q-4 -10 -28 -55l-37 -82q-8 -43 -29 -88q-6 -23 -20 -54q-17 -32 -27 -57l-45 -96l4 -4q-110 -236 -153 -441l-37 -118l-41 -109q-13 -55 -13 -111v-32q4 -25 4 -37q-10 -25 -36 -38q-29 -14 -52 -38q-24 -9 -47 -9q-39 0 -39 47v13z
M639 1649q27 18 53 37q41 28 64 49q37 29 88 86q23 0 37 -2q12 -4 37 -17q18 -10 18 -30q0 -6 -2 -15q-4 -20 -31 -47l-30 -37q-15 -6 -31 -12q-16 -8 -39 -22l-74 -41q-28 -13 -51 -13q-33 -20 -78 -39l-88 -26l-63 -19q-39 9 -39 48q22 16 67 30l84 31q39 14 78 39z" />
    <glyph glyph-name="Icircumflex" unicode="&#xce;" horiz-adv-x="416" 
d="M92 0l17 193q14 43 24 80q9 34 15 53q4 16 10 24q6 9 8 13v6l6 22l8 45l17 52q4 16 16 53q10 35 29 88q16 39 31 82q12 43 18 69.5t6 47.5q0 12 -2 28q-2 17 -16 17v16l4 23l16 43l19 49q2 4 2 8q0 8 -4 16l45 88l63 127q39 74 80 119q41 39 96 39q60 31 86 31t26 -31
q0 -8 -6 -35.5t-18 -56.5q-4 -10 -29 -55l-37 -82q-7 -43 -28 -88q-6 -23 -20 -54q-17 -32 -27 -57l-45 -96l4 -4q-111 -236 -153 -441l-37 -118l-41 -109q-13 -55 -13 -111v-32q4 -25 4 -37q-10 -25 -36 -38q-29 -14 -52 -38q-24 -9 -47 -9q-39 0 -39 47v13zM406 1512
q-23 8 -23 32q0 7 2 13l4 16q21 33 41 47l80 43q23 13 37 21q23 14 41 32q16 5 53 25l45 21q31 0 80 -41q15 -15 70 -39q53 -25 61 -45q20 -15 20 -56q0 -8 -4 -26q-3 -19 -8 -31l-16 -12l-68 37q-20 12 -47.5 22t-40.5 14q-63 52 -84 52q-18 0 -63 -29q-47 -29 -53 -31
q-31 -10 -76 -39z" />
    <glyph glyph-name="Idieresis" unicode="&#xcf;" horiz-adv-x="416" 
d="M92 0l17 193q14 43 24 80q9 34 15 53q4 16 10 24q6 9 8 13v6l6 22l8 45l17 52q4 16 16 53q10 35 29 88q16 39 31 82q12 43 18 69.5t6 47.5q0 12 -2 28q-2 17 -16 17v16l4 23l16 43l19 49q2 4 2 8q0 8 -4 16l45 88l63 127q39 74 80 119q41 39 96 39q60 31 86 31t26 -31
q0 -8 -6 -35.5t-18 -56.5q-4 -10 -29 -55l-37 -82q-7 -43 -28 -88q-6 -23 -20 -54q-17 -32 -27 -57l-45 -96l4 -4q-110 -236 -153 -441l-37 -118l-41 -109q-13 -55 -13 -111v-32q4 -25 4 -37q-10 -25 -36 -38q-29 -14 -52 -38q-24 -9 -47 -9q-39 0 -39 47v13zM799 1549
q-27 0 -41 20q-15 18 -15 43v4q12 33 39 53q50 60 97 60l35 -10q18 -11 32 -11l16 -4l6 -8l-4 -39q-11 -51 -26 -63l-20 -13q-17 -4 -25 -12l-24 -25q-2 2 -11.5 4.5t-23.5 4.5zM484 1544q-35 25 -35 64q0 12 4 32.5t49 55.5q45 33 78 33q35 0 63 -21q20 0 20 -30
q0 -9 -4 -29l-7 -43q-7 -10 -37 -27q-33 -16 -45 -30h-31l-29 -3z" />
    <glyph glyph-name="Eth" horiz-adv-x="1065" 
d="M416 553l-88 -211l-68 -166q-10 -30 -41 -75q-30 -48 -57 -74q-29 -27 -45 -27q-18 0 -23 4v17q0 4 -2 16q31 88 82 262l70 234q-74 0 -172 -37l-8 -4q-17 6 -17 28v5q13 47 56 84q43 34 98 54.5t104 20.5l-2 51q17 23 31 56q12 30 25 80l43 137q6 20 20 39q12 16 35 37
l39 34l41 37q20 15 41 17l-2 16l-74 31l-82 31q-24 10 -49 38q-4 7 -4 27q0 21 2 33l4 49l14 16l13 11l24 4h19l12 -4l22 8l17 4q24 0 65 -12.5t58 -26.5l12 2l8 2q25 0 41 -14q10 -8 19 -10l10 -5q123 -12 266 -133l109 -86q4 -2 30 -41q25 -41 39 -63q31 -49 47 -117
q4 -33 4 -49q0 -45 -12 -98q-18 -90 -76 -191q-57 -102 -135 -192q-41 -45 -84 -86t-88 -78q-47 -39 -67 -78l24 10l25 6q14 0 14 -8v-4q-6 -31 -39 -57l-80 -56l-114 -64q-58 -34 -140 -73q-69 -33 -73 -35q-93 -39 -191 -39q-14 0 -26 18q-11 17 -11 29v4q2 15 39 51
l43 41q21 17 72 36l57 18q144 35 269 148q61 53 129 124q65 70 139 160q0 2 24 23l19 16l24 47l37 78l25 88q-4 10 -8 12q-7 15 -7 19q3 10 3 31q0 45 -23 100q-25 53 -53 78l-25 26q-4 11 -12 21q-8 8 -10 12l-25 21q-27 10 -45 22q-20 10 -55 37l-64 41q-26 -16 -84 -172
q-6 -10 -24 -51q-21 -43 -37 -80l-51 -113l79 8l80 11q82 0 82 -60q0 -12 -2 -20q-22 -96 -80 -115l-26 6l-47 8z" />
    <glyph glyph-name="Ntilde" unicode="&#xd1;" horiz-adv-x="1141" 
d="M-13 -37l79 193q221 575 301 835q16 48 24 68q9 18 23 41l6 49q19 72 53 117q35 43 99 43l22 -4l21 -12l16 -17q16 6 55 51q43 45 70 45q16 0 29 -12q8 -8 8 -20q0 -4 -2 -9q-8 -32 -18 -49l-41 -65l-42 -72q-16 -33 -24 -65q0 -35 4 -64q2 -29 10 -72l19 -108
q4 -19 8 -49q2 -31 2 -60q2 -24 8 -55q4 -33 8 -47q17 -53 33 -143l25 -144q4 -29 10 -51q4 -25 16 -55q10 -33 33 -43q37 43 180 452q74 221 123 455q16 74 55 160q17 39 39 77q23 39 47 78q82 58 97 58q8 0 8 -25q0 -20 -6 -51l-31 -105l-30 -100q-2 -20 -35 -117
q-25 -90 -68 -227t-80 -254q-51 -156 -88 -250q-45 -119 -88 -205l-21 -43q-8 -14 -14 -24q-6 -12 -16 -25q-11 -22 -29 -39l-64 -25q-53 -22 -88 -26q-24 0 -51 53q-14 27 -24 60q-13 31 -25 74l-29 143l-24 133l-29 104l-22 93l-23 98q-10 39 -18 45q-11 0 -68 -113
l-100 -207q-51 -112 -94 -200q-46 -90 -80 -156l-6 -29q-7 -34 -46 -90l-49 -82l-18 -8l-23 -6l-12 -5l-15 -4q-14 0 -14 19l4 24l12 41zM840 1592l-82 -29l-76 -31l-8 17l12 36q23 39 76 52q16 10 57 26q62 25 82 33l109 41h12q60 0 97 -45q-6 -31 -23 -59l7 -9l7 -12
l125 37l53 22q43 21 74 21q11 -4 11 -8q-12 -60 -53 -80q-19 -12 -46 -21q-29 -8 -67 -16q-76 -16 -103 -27l-59 -16l-49 -12l-15 8q-8 8 -14 59q-10 49 -33 49q-31 -4 -45 -12z" />
    <glyph glyph-name="Ograve" unicode="&#xd2;" horiz-adv-x="1100" 
d="M658 92q-9 -4 -43 -28q-35 -27 -58 -43l-90 -27l-98 -31q-27 -6 -39 -8t-41 -2q-84 0 -131 53q-43 54 -53 134q0 38 2 77q0 39 8 86l-2 9l54 167q2 7 4 13q0 4 10 20q4 6 10 21q4 12 6 16q4 21 4 35q0 12 -6 12q-10 -8 -10 -12q-11 -33 -50 -43q-20 8 -20 22l21 52
q4 12 10 26q4 13 10 25l33 51q53 66 101 137l108 176q30 56 54.5 95t53.5 82q23 34 59 83q27 37 39 54l43 26l25 15q27 0 27 -29q0 -10 -4 -29q-5 -18 -49 -84l-14 -30q1 -13 3 -17l23 13q6 4 10 10q2 4 4 6q31 39 121 80q28 33 53 47q6 4 22.5 10t22.5 6l45 9l29 12
q18 12 29 12q96 -18 170 -92q73 -76 100 -178q20 -62 20 -125q0 -21 -2 -45q-4 -25 -6 -37q-45 -221 -162 -391q-116 -172 -235 -273.5t-221 -167.5zM703 256q43 31 78 62q34 28 63 57q47 47 68 82l41 72q22 41 36 55q54 98 72 188q4 25 8 52q4 24 4 47q-2 18 -2 26
q0 39 -6 70q-8 31 -18 59q-19 60 -68 99t-123 39q-164 -15 -342 -191l-59 -152l-61 -159q-21 -60 -37 -133l-16 -60l-19 -61v-111v-43q0 -20 4 -43q12 -82 88 -82q47 0 84 11q37 8 61 24q17 6 23 10t47 33zM977 1653q23 -20 88 -51q37 -17 60 -29q22 -14 32 -24
q-6 -17 -22 -29q-19 -14 -31 -14l-55 16l-78 27q-31 14 -57 36q-23 2 -80 41q-21 17 -43 31q-25 12 -39 16l-10 31l-13 29q2 8 2 14t-2 10l11 27q41 37 84 37h20q47 -102 133 -168z" />
    <glyph glyph-name="Oacute" unicode="&#xd3;" horiz-adv-x="1100" 
d="M658 92q-9 -4 -43 -28q-35 -27 -58 -43l-90 -27l-98 -31q-27 -6 -39 -8t-41 -2q-84 0 -131 53q-44 54 -54 134q0 38 2 77q0 39 8 86l-2 9l54 167q2 7 4 13q0 4 10 20q4 6 10 21q4 12 6 16q4 21 4 35q0 12 -5 12q-10 -8 -10 -12q-11 -33 -50 -43q-21 8 -21 22l21 52
q4 12 10 26q4 13 10 25l33 51q53 66 101 137l109 176q30 56 54.5 95t53.5 82q23 34 59 83q27 37 39 54l43 26l25 15q26 0 26 -29q0 -10 -4 -29q-4 -18 -49 -84l-14 -30q2 -13 4 -17l23 13q6 4 10 10q2 4 4 6q31 39 121 80q28 33 53 47q6 4 22.5 10t22.5 6l45 9l29 12
q18 12 29 12q96 -18 170 -92q73 -76 100 -178q20 -62 20 -125q0 -21 -2 -45q-4 -25 -6 -37q-45 -221 -162 -391q-116 -172 -235 -273.5t-221 -167.5zM703 256q43 31 78 62q34 28 63 57q47 47 68 82l41 72q22 41 36 55q54 98 72 188q4 25 8 52q4 24 4 47q-2 18 -2 26
q0 39 -6 70q-8 31 -18 59q-19 60 -68 99t-123 39q-164 -15 -342 -191l-59 -152l-62 -159q-21 -60 -37 -133l-16 -60l-19 -61v-111v-43q0 -20 4 -43q13 -82 89 -82q47 0 84 11q37 8 61 24q17 6 23 10t47 33zM1032 1649q50 35 68 47q29 20 49 39q33 27 88 86q39 0 64 -16
q26 -13 26 -35q0 -6 -2 -13q-4 -20 -30 -47l-31 -37l-68 -34l-73 -41q-29 -13 -54 -13l-75 -39l-89 -26l-65 -19q-39 9 -39 48q6 4 33 16q24 10 35 14l86 31q39 14 77 39z" />
    <glyph glyph-name="Ocircumflex" unicode="&#xd4;" horiz-adv-x="1100" 
d="M658 92q-9 -4 -43 -28q-35 -27 -58 -43l-90 -27l-98 -31q-27 -6 -39 -8t-41 -2q-84 0 -131 53q-43 54 -53 134q0 38 2 77q0 39 8 86l-2 9l54 167q2 7 4 13q0 4 10 20q4 6 10 21q4 12 6 16q4 21 4 35q0 12 -6 12q-10 -8 -10 -12q-11 -33 -50 -43q-20 8 -20 22l21 52
q4 12 10 26q4 13 10 25l33 51q53 66 101 137l108 176q30 56 54.5 95t53.5 82q23 34 59 83q27 37 39 54l43 26l25 15q27 0 27 -29q0 -10 -4 -29q-5 -18 -49 -84l-14 -30q1 -13 3 -17l23 13q6 4 10 10q2 4 4 6q31 39 121 80q28 33 53 47q6 4 22.5 10t22.5 6l45 9l29 12
q18 12 29 12q96 -18 170 -92q73 -76 100 -178q20 -62 20 -125q0 -21 -2 -45q-4 -25 -6 -37q-45 -221 -162 -391q-116 -172 -235 -273.5t-221 -167.5zM703 256q43 31 78 62q34 28 63 57q47 47 68 82l41 72q22 41 36 55q54 98 72 188q4 25 8 52q4 24 4 47q-2 18 -2 26
q0 39 -6 70q-8 31 -18 59q-19 60 -68 99t-123 39q-164 -15 -342 -191l-59 -152l-61 -159q-21 -60 -37 -133l-16 -60l-19 -61v-111v-43q0 -20 4 -43q12 -82 88 -82q47 0 84 11q37 8 61 24q17 6 23 10t47 33zM750 1512q-21 8 -21 37v8l4 16q21 33 41 47l80 43q31 15 47 27
q15 10 31 26q21 5 53 25l45 21q31 0 80 -41q15 -15 70 -39q53 -25 63 -45q19 -17 19 -56q0 -20 -2 -32l-10 -25q-11 -10 -17 -12l-67 37q-21 12 -48.5 22t-40.5 14q-59 52 -83 52q-15 0 -62 -27q-43 -31 -63 -35q-21 -6 -68 -37z" />
    <glyph glyph-name="Otilde" unicode="&#xd5;" horiz-adv-x="1100" 
d="M658 92q-9 -4 -43 -28q-35 -27 -58 -43l-90 -27l-98 -31q-27 -6 -39 -8t-41 -2q-84 0 -131 53q-44 54 -54 134q0 38 2 77q0 39 8 86l-2 9l54 167q2 7 4 13q0 4 10 20q4 6 10 21q4 12 6 16q4 21 4 35q0 12 -5 12q-10 -8 -10 -12q-11 -33 -50 -43q-21 8 -21 22l21 52
q4 12 10 26q4 13 10 25l33 51q53 66 101 137l109 176q30 56 54.5 95t53.5 82q23 34 59 83q27 37 39 54l43 26l25 15q26 0 26 -29q0 -10 -4 -29q-4 -18 -49 -84l-14 -30q2 -13 4 -17l23 13q6 4 10 10q2 4 4 6q31 39 121 80q28 33 53 47q6 4 22.5 10t22.5 6l45 9l29 12
q18 12 29 12q96 -18 170 -92q73 -76 100 -178q20 -62 20 -125q0 -21 -2 -45q-4 -25 -6 -37q-45 -221 -162 -391q-116 -172 -235 -273.5t-221 -167.5zM703 256q43 31 78 62q34 28 63 57q47 47 68 82l41 72q22 41 36 55q54 98 72 188q4 25 8 52q4 24 4 47q-2 18 -2 26
q0 39 -6 70q-8 31 -18 59q-19 60 -68 99t-123 39q-164 -15 -342 -191l-59 -152l-62 -159q-21 -60 -37 -133l-16 -60l-19 -61v-111v-43q0 -20 4 -43q13 -82 89 -82q47 0 84 11q37 8 61 24q17 6 23 10t47 33zM869 1596l-80 -29l-78 -31q-4 8 -7 10q-2 3 -2 7l13 36
q24 39 73 52q44 24 140 59l113 41h12q59 0 92 -45l-20 -59l4 -9l10 -12l125 37l53 23q41 20 72 20l10 -8q-12 -60 -53 -82.5t-94 -32.5q-56 -10 -66 -12q-39 -10 -53 -17l-60 -16l-51 -12l-14 8l-14 57q-7 52 -33 52l-45 -13z" />
    <glyph glyph-name="Odieresis" unicode="&#xd6;" horiz-adv-x="1100" 
d="M658 92q-9 -4 -43 -28q-35 -27 -58 -43l-90 -27l-98 -31q-27 -6 -39 -8t-41 -2q-84 0 -131 53q-44 54 -54 134q0 38 2 77q0 39 8 86l-2 9l54 167q2 7 4 13q0 4 10 20q4 6 10 21q4 12 6 16q4 21 4 35q0 12 -5 12q-10 -8 -10 -12q-11 -33 -50 -43q-21 8 -21 22l21 52
q4 12 10 26q4 13 10 25l33 51q53 66 101 137l109 176q30 56 54.5 95t53.5 82q23 34 59 83q27 37 39 54l43 26l25 15q26 0 26 -29q0 -10 -4 -29q-4 -18 -49 -84l-14 -30q2 -13 4 -17l23 13q6 4 10 10q2 4 4 6q31 39 121 80q28 33 53 47q6 4 22.5 10t22.5 6l45 9l29 12
q18 12 29 12q96 -18 170 -92q73 -76 100 -178q20 -62 20 -125q0 -21 -2 -45q-4 -25 -6 -37q-45 -221 -162 -391q-116 -172 -235 -273.5t-221 -167.5zM703 256q43 31 78 62q34 28 63 57q47 47 68 82l41 72q22 41 36 55q54 98 72 188q4 25 8 52q4 24 4 47q-2 18 -2 26
q0 39 -6 70q-8 31 -18 59q-19 60 -68 99t-123 39q-164 -15 -342 -191l-59 -152l-62 -159q-21 -60 -37 -133l-16 -60l-19 -61v-111v-43q0 -20 4 -43q13 -82 89 -82q47 0 84 11q37 8 61 24q17 6 23 10t47 33zM1141 1544q-23 0 -41 21q-14 24 -14 47q16 35 41 53q49 60 96 60
q12 0 37 -11q16 -10 33 -10l12 -4l8 -8l-4 -39q-12 -51 -27 -64q-14 -8 -18 -10l-27 -14l-22 -25q-6 4 -35 9zM830 1540q-37 25 -37 64q0 14 4 32.5t47 53.5q51 35 80 35q33 0 65 -21q19 0 19 -26q0 -9 -4 -33l-10 -43q-3 -10 -37 -27q-35 -16 -43 -31h-31l-29 -2z" />
    <glyph glyph-name="multiply" horiz-adv-x="1706" 
d="M629 1170l377 -478l575 478l66 -82l-577 -477l375 -476l-99 -82l-375 476l-578 -476l-63 82l576 476l-373 477z" />
    <glyph glyph-name="Oslash" unicode="&#xd8;" horiz-adv-x="1100" 
d="M768 299q107 99 193 221q84 121 108 244l6 55q2 15 2 27v19l15 43q-10 12 -19 43q-2 20 -2 24q-2 4 -6 6q-45 -67 -110 -141l-123 -137l-150 -162l-88 -107q-74 -90 -117 -127q-59 -63 -113 -155q5 -23 70 -31l107 23q37 8 82 41q29 16 41 24q10 8 33 29zM504 555l70 92
q20 29 30 41q25 25 35 37q35 35 72 60q10 22 18 36q9 15 23 33q12 17 39 51q24 33 47 60l59 80l70 92q-47 27 -98 27q-62 0 -138 -33q-75 -35 -122 -82l-37 -27l-43 -35l-17 -22l-69 -172q-40 -92 -75 -193l-53 -168q-8 -63 -10 -96q0 -12 2 -20q19 12 89 104q18 25 61 78
q35 45 47 57zM215 -41q-32 -17 -51 -39l-45 -55q-29 -35 -39 -37q-25 0 -25 49q0 24 4 41q2 16 27 59q24 44 30 64q-12 31 -18 70t-6 74q0 45 12 104t19 88q30 62 39 107q57 151 108 264q52 110 123 196q25 25 72 90q45 64 86 99q39 33 98 78q60 43 107 73q139 93 188 93
q23 20 50 20q34 0 75 -14q39 -15 45 -17q7 -4 17 -14l37 49l36 43q21 16 39 16q13 0 27 -10q10 -4 10 -18v-8l-8 -68l-18 -88l-21 -43q53 -82 53 -205q0 -67 -18 -151q-49 -236 -209 -430.5t-399 -350.5q-209 -135 -367 -135l-22 2l-29 2z" />
    <glyph glyph-name="Ugrave" unicode="&#xd9;" horiz-adv-x="1065" 
d="M214 391q-6 11 -6 54l16 55l-2 49l14 35l15 41v10q0 47 41 246q34 151 54 176q17 82 29 129t33 119q8 26 38.5 53t53.5 27q12 0 20 -39q7 -41 21 -49q43 -25 43 -78q0 -19 -4 -37q-4 -21 -14 -47q-10 -29 -20 -53q-13 -27 -27 -68q-14 -43 -19 -57l-4 -29q-4 -20 -20 -55
l-27 -62q-4 -18 -10 -26l-8 -50l-8 -47l-19 -55q-4 -24 -10 -74.5t-6 -83.5v-59q0 -23 2 -31v-8q0 -58 12 -96q10 -43 39 -84q22 -25 36 -25q45 0 82 29q35 27 74 74q21 24 29 32q18 23 35 33q49 62 88 142l88 178q30 59 49 92q27 47 47 76q11 51 60 159l65 146q0 6 21 41
l24 43l13 28l16 25l23 23l-2 8q20 51 54 110q9 23 52 46.5t65 23.5q17 0 19 -16v-41l-8 -52q-8 -43 -14 -63q-15 -55 -37 -119q-23 -63 -27 -74q-14 -39 -31 -71l-84 -189l-90 -196q-135 -299 -200 -516l-5 -33l-2 -31q23 -14 23 -31q0 -4 -2 -8q-4 -14 -29 -37l-27 -33
l-45 -29l-45 -32q-16 -11 -41 -11q-34 0 -34 48q2 12 2 20l6 23l4 14q2 6 2 13q0 8 -4 16q55 143 74 223v6q0 15 -9 15q-6 -2 -10 -4q-6 -2 -13 -9l-24 -32l-17 -23q-30 -37 -57 -65q-29 -31 -55 -54q-51 -47 -115 -77q-35 -19 -67.5 -28.5t-71.5 -9.5q-35 0 -57.5 16.5
t-34.5 45.5l-19 57l-14 62q-6 35 -6 80q0 53 11 141l6 8zM933 1649q26 -21 90 -51q67 -29 90 -54q-2 -18 -21 -30q-21 -13 -31 -13l-55 17l-80 26q-18 9 -25 15q-8 4 -32 22q-19 2 -80 41q-55 41 -82 47l-10 31l-12 29q2 12 2 18v6l10 27q36 37 84 37h20q45 -101 132 -168z
" />
    <glyph glyph-name="Uacute" unicode="&#xda;" horiz-adv-x="1065" 
d="M214 391q-6 11 -6 54l16 55l-2 49l14 35l15 41v10q0 47 41 246q34 151 54 176q17 82 29 129t33 119q8 26 38.5 53t53.5 27q12 0 20 -39q7 -41 21 -49q43 -25 43 -78q0 -19 -4 -37q-4 -21 -14 -47q-10 -29 -20 -53q-13 -27 -27 -68q-14 -43 -19 -57l-4 -29q-4 -20 -20 -55
l-27 -62q-4 -18 -10 -26l-8 -50l-8 -47l-19 -55q-4 -24 -10 -74.5t-6 -83.5v-59q0 -23 2 -31v-8q0 -58 12 -96q10 -43 39 -84q22 -25 36 -25q45 0 82 29q35 27 74 74q21 24 29 32q18 23 35 33q49 62 88 142l88 178q30 59 49 92q27 47 47 76q11 51 60 159l65 146q0 6 21 41
l24 43l13 28l16 25l23 23l-2 8q20 51 54 110q9 23 52 46.5t65 23.5q17 0 19 -16v-41l-8 -52q-8 -43 -14 -63q-15 -55 -37 -119q-23 -63 -27 -74q-14 -39 -31 -71l-84 -189l-90 -196q-135 -299 -200 -516l-5 -33l-2 -31q23 -14 23 -31q0 -4 -2 -8q-4 -14 -29 -37l-27 -33
l-45 -29l-45 -32q-16 -11 -41 -11q-34 0 -34 48q2 12 2 20l6 23l4 14q2 6 2 13q0 8 -4 16q55 143 74 223v6q0 15 -9 15q-6 -2 -10 -4q-6 -2 -13 -9l-24 -32l-17 -23q-30 -37 -57 -65q-29 -31 -55 -54q-51 -47 -115 -77q-35 -19 -67.5 -28.5t-71.5 -9.5q-35 0 -57.5 16.5
t-34.5 45.5l-19 57l-14 62q-6 35 -6 80q0 53 11 141l6 8zM963 1649q35 22 69 47q19 14 54 43q32 27 82 82q41 0 65 -16q27 -13 27 -35q0 -6 -2 -13q-4 -20 -30 -47l-31 -37l-70 -34l-72 -41q-31 -13 -53 -13l-76 -39l-90 -26l-64 -19q-38 9 -38 48q22 16 68 30l86 31
q22 10 38 18q17 9 37 21z" />
    <glyph glyph-name="Ucircumflex" unicode="&#xdb;" horiz-adv-x="1065" 
d="M214 391q-6 11 -6 54l16 55l-2 49l14 35l15 41v10q0 47 41 246q34 151 54 176q17 82 29 129t33 119q8 26 38.5 53t53.5 27q12 0 20 -39q7 -41 21 -49q43 -25 43 -78q0 -19 -4 -37q-4 -21 -14 -47q-10 -29 -20 -53q-13 -27 -27 -68q-14 -43 -19 -57l-4 -29q-4 -20 -20 -55
l-27 -62q-4 -18 -10 -26l-8 -50l-8 -47l-19 -55q-4 -24 -10 -74.5t-6 -83.5v-59q0 -23 2 -31v-8q0 -58 12 -96q10 -43 39 -84q22 -25 36 -25q45 0 82 29q35 27 74 74q21 24 29 32q18 23 35 33q49 62 88 142l88 178q30 59 49 92q27 47 47 76q11 51 60 159l65 146q0 6 21 41
l24 43l13 28l16 25l23 23l-2 8q20 51 54 110q9 23 52 46.5t65 23.5q17 0 19 -16v-41l-8 -52q-8 -43 -14 -63q-15 -55 -37 -119q-23 -63 -27 -74q-14 -39 -31 -71l-84 -189l-90 -196q-135 -299 -200 -516l-5 -33l-2 -31q23 -14 23 -31q0 -4 -2 -8q-4 -14 -29 -37l-27 -33
l-45 -29l-45 -32q-16 -11 -41 -11q-34 0 -34 48q2 12 2 20l6 23l4 14q2 6 2 13q0 8 -4 16q55 143 74 223v6q0 15 -9 15q-6 -2 -10 -4q-6 -2 -13 -9l-24 -32l-17 -23q-30 -37 -57 -65q-29 -31 -55 -54q-51 -47 -115 -77q-35 -19 -67.5 -28.5t-71.5 -9.5q-35 0 -57.5 16.5
t-34.5 45.5l-19 57l-14 62q-6 35 -6 80q0 53 11 141l6 8zM729 1512q-20 6 -20 34v11l4 16q21 33 41 47l80 43q22 13 37 21q22 14 41 32q16 5 53 25l45 21q31 0 80 -41q14 -15 68.5 -39.5t62.5 -44.5q21 -15 21 -50q0 -10 -5 -38q-4 -13 -8 -25l-16 -12l-68 37q-20 12 -47 22
q-29 10 -41 14q-59 52 -84 52q-14 0 -61 -27q-45 -31 -62 -35q-18 -6 -29 -10q-10 -6 -40 -27z" />
    <glyph glyph-name="Udieresis" unicode="&#xdc;" horiz-adv-x="1065" 
d="M214 391q-6 11 -6 54l16 55l-2 49l14 35l15 41v10q0 47 41 246q34 151 54 176q17 82 29 129t33 119q8 26 38.5 53t53.5 27q12 0 20 -39q7 -41 21 -49q43 -25 43 -78q0 -19 -4 -37q-4 -21 -14 -47q-10 -29 -20 -53q-13 -27 -27 -68q-14 -43 -19 -57l-4 -29q-4 -20 -20 -55
l-27 -62q-4 -18 -10 -26l-8 -50l-8 -47l-19 -55q-4 -24 -10 -74.5t-6 -83.5v-59q0 -23 2 -31v-8q0 -58 12 -96q10 -43 39 -84q22 -25 36 -25q45 0 82 29q35 27 74 74q21 24 29 32q18 23 35 33q49 62 88 142l88 178q30 59 49 92q27 47 47 76q11 51 60 159l65 146q0 6 21 41
l24 43l13 28l16 25l23 23l-2 8q20 51 54 110q9 23 52 46.5t65 23.5q17 0 19 -16v-41l-8 -52q-8 -43 -14 -63q-15 -55 -37 -119q-23 -63 -27 -74q-14 -39 -31 -71l-84 -189l-90 -196q-135 -299 -200 -516l-5 -33l-2 -31q23 -14 23 -31q0 -4 -2 -8q-4 -14 -29 -37l-27 -33
l-45 -29l-45 -32q-16 -11 -41 -11q-34 0 -34 48q2 12 2 20l6 23l4 14q2 6 2 13q0 8 -4 16q55 143 74 223v6q0 15 -9 15q-6 -2 -10 -4q-6 -2 -13 -9l-24 -32l-17 -23q-30 -37 -57 -65q-29 -31 -55 -54q-51 -47 -115 -77q-35 -19 -67.5 -28.5t-71.5 -9.5q-35 0 -57.5 16.5
t-34.5 45.5l-19 57l-14 62q-6 35 -6 80q0 53 11 141l6 8zM1024 1544q-22 0 -41 21q-14 24 -14 47q17 35 41 53q49 60 96 60q15 0 29 -9q15 -8 23 -8l16 -4l15 -4l8 -8l-4 -39q-13 -51 -27 -64q-15 -8 -19 -10l-26 -14l-25 -25q-4 4 -35 9zM713 1540q-36 25 -36 64
q0 14 4 32.5t48 53.5q45 35 78 35t66 -21q19 0 19 -26q0 -9 -4 -33l-11 -43q-2 -10 -37 -27q-35 -16 -43 -31h-33l-26 -2z" />
    <glyph glyph-name="Yacute" 
d="M205 -37q6 29 21 60q12 28 18 43q33 61 57 86q17 47 31 76q12 28 33 57l49 70l22 57q-24 16 -43 55q-4 8 -8 27q-6 18 -22 78q-10 51 -10 53q-7 20 -13 35v16q1 5 1 12q0 6 -1 15q-4 28 -4 35l-4 120q0 23 2 70t2 74q6 73 19 131q-9 0 -9 59l2 31l2 29l19 51
q8 28 26.5 46.5t47.5 18.5l20 4q49 25 82 25q29 0 47 -31q10 -22 10 -41q0 -10 -2 -20q-6 -31 -16 -80q-12 -49 -35 -125q-8 -59 -10 -106q-2 -48 -2 -105l-4 -74v-65q-2 -33 -2 -64q0 -28 6 -51q6 -22 16 -43q23 6 47 43l97 141q69 107 86 121q22 43 43 80q20 35 51 78
q31 41 61 80q53 63 82 100l129 166q37 47 66 47q20 -6 32 -37q-55 -258 -198 -424q-2 -14 -23 -55q-22 -35 -37 -47q-2 -12 -92 -104l-59 -78q-49 -68 -80 -99l-53 -82l-56 -81q-59 -101 -108 -156l-43 -105q-14 -28 -31 -69q-16 -41 -20 -60l4 -10l6 -18l2 -15
q-12 -27 -39 -43q-29 -18 -51 -21q-2 -8 -27 -18q-24 -10 -53 -10q-37 0 -63 12q-23 8 -23 27q0 4 2 8zM948 1649q50 35 68 47q29 20 49 39q33 27 88 86q39 0 64 -16q26 -13 26 -35q0 -6 -2 -13q-4 -20 -30 -47l-31 -37l-68 -34l-73 -41q-29 -13 -54 -13l-75 -39l-89 -26
l-65 -19q-39 9 -39 48q6 4 33 16q24 10 35 14l86 31q39 14 77 39z" />
    <glyph glyph-name="Thorn" 
d="M629 961q-14 -15 -45 -109l-57 -186l-37 -133q32 6 57 20l74 37l55 31l109 61l65 43l92 92l29 39q-41 125 -266 125q-58 0 -76 -20zM1208 961q-20 -99 -129 -191q-108 -94 -274 -186l-233 -129q-56 -29 -105 -59q-14 -9 -35 -23l-28 -96q-8 -43 -8 -82q0 -47 20 -47
l31 22q12 13 24 21q2 0 6 2h9l18 -13q-16 -14 -63 -79q-50 -66 -91 -107q-43 -41 -100 -41q-27 0 -35 14v58l13 121q10 75 10 100v6l-72 -39q2 8 2 15q0 12 -6 18l-33 23q-22 8 -30.5 22t-8.5 33q13 29 33 47q23 14 33 20q8 7 35 17l57 28l37 17q39 178 156 512
q-21 0 -52.5 -6t-52.5 -11l-104 -16q-21 0 -21 21q10 26 17 34q4 9 20 37q16 29 37 37l98 41l78 21l37 10l35 112l26 86q23 60 152 80q65 -24 65 -67v-8l-37 -86l-41 -91l121 5l56 12q84 0 164 -19q77 -20 131 -69q40 -35 40 -97q0 -20 -2 -30z" />
    <glyph glyph-name="germandbls" unicode="&#xdf;" horiz-adv-x="756" 
d="M365 43l-31 -12q-27 -12 -49 -14l-19 6l-28 10q-4 4 -4 6q-6 8 -12 19q-8 8 -12 14t-6 12l4 6q151 90 251.5 188.5t126.5 225.5q7 31 7 68q0 32 -15 59l-30 59l-29 54q-4 14 -4 28q0 9 2 17q6 30 20 53l49 47l109 84q8 12 29 35q18 20 45 47q24 25 43 45q16 18 30 41
q31 39 43 102q3 9 3 15q0 35 -46 35q-72 0 -145 -60q-76 -59 -125 -137q-56 -78 -72 -148l-147 -370l-125 -316q-62 -170 -123 -338q-49 -139 -58 -164q-30 -92 -51 -160l-21 -57l-26 -55q-15 -25 -31 -37q-17 -14 -37 -14q-38 0 -38 57q0 22 10 67q8 43 20 95q13 51 31 110
l76 238l88 258q41 111 69 213q33 60 91 222q55 161 98 264q41 102 104 192q15 33 39 66l56 57l69 53l64 48q8 6 38.5 22t51.5 23l98 18l45 2q68 0 115 -25q45 -26 64 -77q12 -29 12 -66q0 -29 -4 -45q-23 -94 -92 -168q-25 -33 -62 -61l-98 -68q-22 -14 -45 -31
q-25 -16 -49 -39q-31 -30 -37 -61v-8q0 -35 37 -74q35 -37 47 -53q6 -8 17.5 -31.5t11.5 -60.5v-41q-6 -21 -9 -29q-26 -139 -143 -248q-119 -110 -291 -213z" />
    <glyph glyph-name="agrave" unicode="&#xe0;" horiz-adv-x="832" 
d="M46 197l4 29l6 30q18 88 182 189q41 53 151 127l203 145l141 80q50 22 93 22q28 -6 41 -43q-7 -20 -31 -55q-27 -35 -76 -49q-35 -41 -113 -96q-10 -4 -22 -13q-19 -16 -29 -26q-28 -31 -55 -41q-18 -27 -36 -43l-29 -21l-21 -12q-12 -14 -34.5 -35.5t-51.5 -44.5
l-63 -55l-16 -25l-15 -18l-6 -10l4 -4q41 10 73 30l97 76q32 27 55 43q20 14 39 23q18 20 42.5 42.5t51.5 36.5q53 33 107 33q18 0 20 -16l8 -35v-41l-26 -63q-2 -9 -2 -25q0 -25 8 -39q18 -27 49 -29q51 9 115 60q6 -4 6 -8l-4 -25l-4 -31l-15 -28q-6 -35 -45 -68
q-18 -18 -43 -33q-24 -14 -39 -20q-41 -19 -71 -23l-9 4l-14 5l-31 -5q-41 0 -65 37q-23 29 -23 60q0 6 2 12l2 43l2 35v4q1 1 1 2t-1 2l-6 6l-41 -24l-53 -46l-14 -10l-15 -4q-75 -74 -121 -92q-10 -16 -30.5 -33.5t-50.5 -34.5q-56 -36 -95 -36l-36 -13q-76 0 -76 101
l10 20q5 16 17 33l14 22v4q0 11 -16 17zM791 1045q28 -23 94 -49q63 -29 88 -56q-6 -20 -22 -30q-19 -13 -31 -13l-53 17l-78 26q-31 13 -62 37q-22 4 -80 45q-57 39 -77 43l-13 31l-12 29q2 8 2 14t-2 10l10 27q41 37 86 37h19q45 -101 131 -168z" />
    <glyph glyph-name="aacute" unicode="&#xe1;" horiz-adv-x="832" 
d="M46 197l4 29l6 30q18 88 182 189q41 53 151 127l203 145l141 80q50 22 93 22q28 -6 41 -43q-7 -20 -31 -55q-27 -35 -76 -49q-35 -41 -113 -96q-10 -4 -22 -13q-19 -16 -29 -26q-28 -31 -55 -41q-18 -27 -36 -43l-29 -21l-21 -12q-12 -14 -34.5 -35.5t-51.5 -44.5
l-63 -55l-16 -25l-15 -18l-6 -10l4 -4q41 10 73 30l97 76q32 27 55 43q20 14 39 23q18 20 42.5 42.5t51.5 36.5q53 33 107 33q18 0 20 -16l8 -35v-41l-26 -63q-2 -9 -2 -25q0 -25 8 -39q18 -27 49 -29q51 9 115 60q6 -4 6 -8l-4 -25l-4 -31l-15 -28q-6 -35 -45 -68
q-18 -18 -43 -33q-24 -14 -39 -20q-41 -19 -71 -23l-9 4l-14 5l-31 -5q-41 0 -65 37q-22 29 -22 60q0 6 2 12l2 43l2 35v4q1 1 1 2t-1 2q-5 4 -7 6l-41 -24l-53 -46l-14 -10l-15 -4q-75 -74 -121 -92q-10 -16 -30.5 -33.5t-50.5 -34.5q-56 -36 -95 -36l-36 -13
q-76 0 -76 101l10 20q5 16 17 33l14 22v4q0 11 -16 17zM819 1041l117 86q33 26 88 86q37 0 64 -17q26 -12 26 -35q0 -6 -2 -12q-4 -20 -30 -47l-31 -37q-19 -6 -68 -35l-73 -41q-21 -8 -56 -12q-16 -10 -24 -14q-23 -12 -49 -25l-89 -26l-65 -19q-39 8 -39 47q6 4 33 17
q24 10 35 14l86 31q39 14 77 39z" />
    <glyph glyph-name="acircumflex" unicode="&#xe2;" horiz-adv-x="832" 
d="M46 197l4 29l6 30q18 88 182 189q41 53 151 127l203 145l141 80q50 22 93 22q28 -6 41 -43q-6 -20 -31.5 -55t-74.5 -49q-35 -41 -113 -96q-10 -4 -23 -13q-18 -16 -28 -26q-29 -31 -56 -41q-18 -27 -36 -43l-29 -21l-21 -12q-12 -14 -34.5 -35.5t-51.5 -44.5l-63 -55
l-16 -25l-15 -18l-6 -10l4 -4q41 10 73 30l97 76q32 27 55 43q20 14 39 23q18 20 42.5 42.5t51.5 36.5q53 33 107 33q18 0 20 -16l9 -35v-41l-27 -63q-2 -9 -2 -25q0 -25 8 -39q18 -27 49 -29q51 9 115 60q6 -4 6 -8l-4 -25l-4 -31l-14 -28q-7 -35 -46 -68q-18 -18 -43 -33
q-24 -14 -39 -20q-41 -19 -71 -23l-9 4l-14 5l-31 -5q-41 0 -65 37q-22 29 -22 60q0 6 2 12l2 43l2 35v4q1 1 1 2t-1 2q-5 4 -7 6l-41 -24l-53 -46l-14 -10l-15 -4q-75 -74 -121 -92q-10 -16 -30.5 -33.5t-50.5 -34.5q-56 -36 -95 -36l-36 -13q-76 0 -76 101l10 20
q5 16 17 33l14 22v4q0 11 -16 17zM484 903q-22 7 -22 37v8l6 17q16 29 41 47l77 43q53 27 80 53q16 4 53 24.5t45 20.5q29 0 78 -41q10 -8 35 -18q22 -12 35 -19q51 -20 64 -47q20 -14 20 -55q0 -8 -4 -33l-9 -24l-16 -13l-68 37q-53 31 -90 37q-57 51 -82 51q-22 0 -61 -26
l-55 -33q-29 -8 -76 -37z" />
    <glyph glyph-name="atilde" unicode="&#xe3;" horiz-adv-x="832" 
d="M46 197l4 29l6 30q18 88 182 189q41 53 151 127l203 145l141 80q50 22 93 22q28 -6 41 -43q-6 -20 -31.5 -55t-74.5 -49q-35 -41 -113 -96q-10 -4 -23 -13q-18 -16 -28 -26q-29 -31 -56 -41q-18 -27 -36 -43l-29 -21l-21 -12q-12 -14 -34.5 -35.5t-51.5 -44.5l-63 -55
l-16 -25l-15 -18l-6 -10l4 -4q41 10 73 30l97 76q32 27 55 43q20 14 39 23q18 20 42.5 42.5t51.5 36.5q53 33 107 33q18 0 20 -16l9 -35v-41l-27 -63q-2 -9 -2 -25q0 -25 8 -39q18 -27 49 -29q51 9 115 60q6 -4 6 -8l-4 -25l-4 -31l-14 -28q-7 -35 -46 -68q-18 -18 -43 -33
q-24 -14 -39 -20q-41 -19 -71 -23l-9 4l-14 5l-31 -5q-41 0 -65 37q-22 29 -22 60q0 6 2 12l2 43l2 35v4q1 1 1 2t-1 2q-5 4 -7 6l-41 -24l-53 -46l-14 -10l-15 -4q-75 -74 -121 -92q-10 -16 -30.5 -33.5t-50.5 -34.5q-56 -36 -95 -36l-36 -13q-76 0 -76 101l10 20
q5 16 17 33l14 22v4q0 11 -16 17zM557 987l-82 -28l-75 -31l-8 16l12 37q27 39 76 51q14 9 57 27q63 27 80 33l112 41h13q57 0 94 -45l-20 -60l2 -8l12 -12l123 37l55 22q41 21 72 21q10 -4 10 -8q-12 -60 -51 -80q-21 -13 -48.5 -21t-66.5 -16q-76 -17 -103 -27l-59 -16
l-49 -12l-14 8q-7 8 -13 59q-8 49 -34 49q-27 0 -46 -12z" />
    <glyph glyph-name="adieresis" unicode="&#xe4;" horiz-adv-x="832" 
d="M46 197l4 29l6 30q18 88 182 189q41 53 151 127l203 145l141 80q50 22 93 22q28 -6 41 -43q-6 -20 -31.5 -55t-74.5 -49q-35 -41 -113 -96q-10 -4 -23 -13q-18 -16 -28 -26q-29 -31 -56 -41q-18 -27 -36 -43l-29 -21l-21 -12q-12 -14 -34.5 -35.5t-51.5 -44.5l-63 -55
l-16 -25l-15 -18l-6 -10l4 -4q41 10 73 30l97 76q32 27 55 43q20 14 39 23q18 20 42.5 42.5t51.5 36.5q53 33 107 33q18 0 20 -16l9 -35v-41l-27 -63q-2 -9 -2 -25q0 -25 8 -39q18 -27 49 -29q51 9 115 60q6 -4 6 -8l-4 -25l-4 -31l-14 -28q-7 -35 -46 -68q-18 -18 -43 -33
q-24 -14 -39 -20q-41 -19 -71 -23l-9 4l-14 5l-31 -5q-41 0 -65 37q-22 29 -22 60q0 6 2 12l2 43l2 35v4q1 1 1 2t-1 2q-5 4 -7 6l-41 -24l-53 -46l-14 -10l-15 -4q-75 -74 -121 -92q-10 -16 -30.5 -33.5t-50.5 -34.5q-56 -36 -95 -36l-36 -13q-76 0 -76 101l10 20
q5 16 17 33l14 22v4q0 11 -16 17zM875 920q-23 0 -39 19.5t-16 47.5q14 33 41 54q49 59 96 59q16 0 34 -10l34 -10l16 -5l6 -8l-4 -39q-13 -51 -27 -63l-20 -10l-25 -15q-8 -2 -25 -24q-2 8 -34 8q-25 0 -37 -4zM561 916q-34 24 -34 63q0 15 4 35t47 53t80 33t63 -20
q21 0 21 -27l-4 -33l-11 -43q-4 -12 -37 -26q-32 -17 -45 -31h-30l-27 -2z" />
    <glyph glyph-name="aring" unicode="&#xe5;" horiz-adv-x="832" 
d="M46 197l4 29l6 30q18 88 182 189q41 53 151 127l203 145l141 80q50 22 93 22q28 -6 41 -43q-6 -20 -31.5 -55t-74.5 -49q-35 -41 -113 -96q-10 -4 -23 -13q-18 -16 -28 -26q-29 -31 -56 -41q-18 -27 -36 -43l-29 -21l-21 -12q-12 -14 -34.5 -35.5t-51.5 -44.5l-63 -55
l-16 -25l-15 -18l-6 -10l4 -4q41 10 73 30l97 76q32 27 55 43q20 14 39 23q18 20 42.5 42.5t51.5 36.5q53 33 107 33q18 0 20 -16l9 -35v-41l-27 -63q-2 -9 -2 -25q0 -25 8 -39q18 -27 49 -29q51 9 115 60q6 -4 6 -8l-4 -25l-4 -31l-14 -28q-7 -35 -46 -68q-18 -18 -43 -33
q-24 -14 -39 -20q-41 -19 -71 -23l-9 4l-14 5l-31 -5q-41 0 -65 37q-22 29 -22 60q0 6 2 12l2 43l2 35v4q1 1 1 2t-1 2q-5 4 -7 6l-41 -24l-53 -46l-14 -10l-15 -4q-75 -74 -121 -92q-10 -16 -30.5 -33.5t-50.5 -34.5q-56 -36 -95 -36l-36 -13q-76 0 -76 101l10 20
q5 16 17 33l14 22v4q0 11 -16 17zM693 1061q53 60 102 87.5t110 27.5q19 0 33 -8l38 -21l28 -22l-4 -33l-2 -31q-4 -16 -20 -45l-19 -39q-25 -45 -66 -65l-47 -17l-53 -18l-19 -4q-53 10 -94 35q-42 22 -42 65l20 39q14 33 35 49zM732 987q0 -12 6 -16l22 -6l25 -4
q47 8 80 24q32 17 43 56q2 8 2 14q0 33 -48 33q-32 0 -36 -4q-78 -29 -94 -97z" />
    <glyph glyph-name="ae" unicode="&#xe6;" horiz-adv-x="1176" 
d="M63 180v3q0 4 -4 8q-8 2 -18 2l8 43q16 65 33 88q2 4 14 16q12 13 35 31l69 45q29 16 50 45l34 31l28 22q8 8 16 11q6 2 8 4q12 8 20.5 18t22.5 16l55 35l74 49l45 33l17 19q16 16 26 18l60 35l86 49q41 18 65 18q10 0 37 -16t27 -27q-11 -36 -41 -63q-31 -31 -70 -41
q-18 -27 -63 -61l-84 -60q-48 -33 -68 -59q-7 -2 -13 -8q-20 -17 -33 -27q-28 -29 -45 -37q-26 -35 -92 -92q-65 -53 -94 -92l5 -4q18 0 65 30l62 35l20 23l27 24q49 39 75 49q27 9 66 46l61 51q21 14 46 14q14 0 43 -12q51 98 202 205q2 2 22.5 14t28.5 16l41 25
q5 10 31 20q27 9 39 9h16q46 0 76 -31q23 -23 23 -53q0 -15 -2 -21q-19 -88 -117 -184q-102 -92 -211 -156l-31 -18l-24 -19q-4 -24 -4 -37q0 -69 73 -86l13 -4q22 0 57 11l72 24l63 21q10 10 33 20l35 21l24 10l21 20l20 19q2 2 8 4q5 0 11 2q12 0 16 -2v-2q1 -2 1 -4
t-1 -4l-4 -13l-4 -10q-21 -96 -43 -104q-55 -21 -139 -72q-29 -14 -82 -43q-43 -23 -68 -33q-61 -24 -127 -24q-47 0 -104 34q-51 37 -77 82q-14 23 -14 84q0 37 6 84l10 35l-137 -80q-22 -14 -39 -37l-8 -2q-10 0 -29 -12l-40 -37l-35 -33q-69 -57 -213 -123l-14 -4l-12 -4
q-79 0 -79 70q0 20 4 38.5t21 45.5zM938 537q-20 -19 -41 -41q-22 -25 -32 -39q6 -14 10 -16l16 4q14 4 33 20l20 23q68 41 76 80l2 16q-18 0 -43 -19z" />
    <glyph glyph-name="ccedilla" unicode="&#xe7;" horiz-adv-x="680" 
d="M471 144q41 16 98 45q16 8 90 51l33 20l33 29l19 27l8 14l16 6l8 -16l8 -17l-8 -20l-8 -23q-19 -80 -144 -147q-143 -88 -249 -121q-22 -37 -37.5 -66t-21.5 -43l-62 -80q-33 -47 -37 -65.5t-32 -18.5q-23 0 -39 12q-13 9 -13 21v8q9 43 47 111q33 63 70 104
q-72 0 -123 48q-37 37 -37 90q0 16 2 27q0 14 -2 20l2 31l-4 24l-12 -4q-8 -4 -20 -14l-23 -21v13l25 118l20 19l33 22l41 27l67 37q7 31 107 92l67 45l80 53l66 35l14 4l8 6q115 84 215 84q12 0 12 -14l-2 -29l-4 -55q-16 -29 -78.5 -72t-124.5 -65q-2 -12 -73 -55
l-110 -68q-33 -27 -41.5 -33t-30.5 -37l-25 -43q-8 -39 -8 -67q0 -17 2 -33t51 -29q15 27 19 35q4 6 12 14q6 29 49 64q41 33 76 33q32 0 32 -21v-8q-6 -20 -33 -47l-14 -25z" />
    <glyph glyph-name="egrave" unicode="&#xe8;" horiz-adv-x="609" 
d="M92 80q0 17 -9 43q-15 23 -15 70q0 30 4 59q2 27 11 72l12 37l29 51l32 51l35 53l47 60q35 51 61 61q60 62 152 103q10 16 41 28q28 13 61 13q60 0 85 -37q12 -4 12 -25q0 -16 -6 -47q-15 -72 -39 -80q0 -8 -51 -63l-105 -99q-57 -45 -98 -61l-39 -35l-41 -27l-14 -26
q0 -53 22 -72.5t74 -32.5q137 13 249 93q13 2 45 30q31 29 43 29q7 0 9 -4v-4q0 -6 -2 -17l-2 -18q-10 -39 -12 -47q-13 -37 -25 -49l-123 -68l-133 -74q-17 -6 -27 -8q-12 -4 -25 -6l-59 -10l-57 -10l-33 4q-57 6 -109 63zM449 588q-35 0 -84 -47t-67 -88q6 -4 7 -6
q2 -2 4 -2l37 16q21 12 29 23q25 6 48 34q22 23 30 50v4q0 8 -4 16zM599 1045q26 -21 90 -51q35 -15 57 -27q21 -14 35 -27q-6 -18 -23.5 -30.5t-30.5 -12.5l-55 17l-78 26q-37 17 -59 37q-23 4 -80 45q-57 39 -79 43l-13 31l-10 29q2 8 2 14t-2 10l10 27q41 37 84 37h20
q45 -101 132 -168z" />
    <glyph glyph-name="eacute" unicode="&#xe9;" horiz-adv-x="609" 
d="M92 80q0 17 -9 43q-15 23 -15 70q0 30 4 59q2 27 11 72l12 37l29 51l32 51l35 53l47 60q35 51 61 61q60 62 152 103q10 16 41 28q28 13 61 13q60 0 85 -37q12 -4 12 -25q0 -16 -6 -47q-15 -72 -39 -80q0 -8 -51 -63l-105 -99q-57 -45 -98 -61l-39 -35l-41 -27l-14 -26
q0 -53 22 -72.5t74 -32.5q137 13 249 93q13 2 45 30q31 29 43 29q7 0 9 -4v-4q0 -6 -2 -17l-2 -18q-10 -39 -12 -47q-13 -37 -25 -49l-123 -68l-133 -74q-17 -6 -27 -8q-12 -4 -25 -6l-59 -10l-57 -10l-33 4q-57 6 -109 63zM449 588q-35 0 -84 -47t-67 -88q6 -4 7 -6
q2 -2 4 -2l37 16q21 12 29 23q25 6 48 34q22 23 30 50v4q0 8 -4 16zM707 1041l119 86q36 30 86 86q39 0 65 -17q27 -12 27 -35q0 -6 -2 -12q-4 -20 -30 -47l-31 -37q-10 -2 -25 -10q-14 -8 -45 -25l-72 -41q-23 -8 -55 -12q-29 -20 -76 -39l-88 -26l-64 -19q-38 8 -38 47
q22 17 68 31l86 31q22 10 38 18q17 8 37 21z" />
    <glyph glyph-name="ecircumflex" unicode="&#xea;" horiz-adv-x="609" 
d="M92 80q0 17 -9 43q-15 23 -15 70q0 30 4 59q2 27 11 72l12 37l29 51l32 51l35 53l47 60q35 51 61 61q60 62 152 103q10 16 41 28q28 13 61 13q60 0 85 -37q12 -4 12 -25q0 -16 -6 -47q-15 -72 -39 -80q0 -8 -51 -63l-105 -99q-57 -45 -98 -61l-39 -35l-41 -27l-14 -26
q0 -53 22 -72.5t74 -32.5q137 13 249 93q13 2 45 30q31 29 43 29q7 0 9 -4v-4q0 -6 -2 -17l-2 -18q-10 -39 -12 -47q-13 -37 -25 -49l-123 -68l-133 -74q-17 -6 -27 -8q-12 -4 -25 -6l-59 -10l-57 -10l-33 4q-57 6 -109 63zM449 588q-35 0 -84 -47t-67 -88q6 -4 7 -6
q2 -2 4 -2l37 16q21 12 29 23q25 6 48 34q22 23 30 50v4q0 8 -4 16zM369 908q-20 8 -20 36v9l6 16q16 31 39 47l79 43q54 25 78 53q14 2 53 25l45 20q31 0 80 -41q13 -12 68 -36q54 -21 64 -48q20 -12 20 -53q0 -22 -2 -37q-2 -14 -10 -22q-9 -10 -17 -12l-67 36
q-54 31 -88 37q-60 51 -84 51q-21 0 -62 -26l-53 -33q-27 -8 -78 -37z" />
    <glyph glyph-name="edieresis" unicode="&#xeb;" horiz-adv-x="609" 
d="M92 80q0 17 -9 43q-15 23 -15 70q0 30 4 59q2 27 11 72l12 37l29 51l32 51l35 53l47 60q35 51 61 61q60 62 152 103q10 16 41 28q28 13 61 13q60 0 84 -37q12 -4 12 -25q0 -16 -6 -47q-14 -72 -39 -80q0 -8 -51 -63l-104 -99q-57 -45 -98 -61l-39 -35l-41 -27l-14 -26
q0 -53 22 -72.5t74 -32.5q137 13 249 93q13 2 45 30q31 29 43 29q7 0 9 -4v-4q0 -6 -2 -17l-2 -18q-11 -39 -13 -47q-12 -37 -24 -49l-123 -68l-133 -74q-17 -6 -27 -8q-12 -4 -25 -6l-59 -10l-57 -10l-33 4q-57 6 -109 63zM449 588q-35 0 -84 -47t-67 -88q6 -4 7 -6
q2 -2 4 -2l37 16q21 12 29 23q25 6 48 34q22 23 30 50v4q0 8 -4 16zM760 920q-22 0 -37 20q-14 19 -18 47q14 33 41 54q49 59 96 59q18 0 35 -10l35 -10l14 -5l6 -8l-4 -39q-12 -51 -27 -63l-18 -10l-25 -15q-12 -2 -24 -24q-6 8 -37 8q-25 0 -37 -4zM449 916q-37 22 -37 63
q0 10 2 21q7 34 49 67q43 33 80 33t66 -20q18 0 18 -27l-4 -33l-10 -43q-7 -6 -11 -8q-18 -14 -28 -21q-33 -14 -41 -28h-33l-27 -2z" />
    <glyph glyph-name="igrave" unicode="&#xec;" horiz-adv-x="609" 
d="M31 180v17l3 16l14 43l16 60l49 41q35 32 59 43l72 71q47 45 68 54l34 38q9 9 27 9q43 0 70 -23q20 -22 25 -45q4 -25 4 -47q0 -14 -4 -39q0 -31 -4 -49q-4 -21 -4 -29v-12q-1 -4 -1 -8q0 -17 9 -35q9 -31 32 -45q25 0 96 24q48 56 91 64q-2 -12 -4 -27q-2 -14 -13 -37
l-14 -59q-7 -12 -11 -16q-110 -101 -241 -129q-125 26 -125 159q-15 19 -21 46.5t-12 39.5q-8 11 -27 11q-24 -7 -120 -93q-16 -4 -37 -22q-8 -6 -26 -16q-2 0 -5 -5zM599 1045q26 -21 90 -51q35 -15 57 -27q21 -14 35 -27q-6 -18 -23.5 -30.5t-30.5 -12.5l-55 17l-78 26
q-37 17 -59 37q-23 4 -80 45q-57 39 -79 43l-13 31l-10 29q2 8 2 14t-2 10l10 27q41 37 84 37h20q45 -101 132 -168z" />
    <glyph glyph-name="iacute" unicode="&#xed;" horiz-adv-x="609" 
d="M31 180v17l3 16l14 43l16 60l49 41q35 32 59 43l72 71q47 45 68 54l34 38q9 9 27 9q43 0 70 -23q20 -22 25 -45q4 -25 4 -47q0 -14 -4 -39q0 -31 -4 -49q-4 -21 -4 -29v-12q-1 -4 -1 -8q0 -17 9 -35q9 -31 32 -45q25 0 96 24q48 56 91 64q-2 -12 -4 -27q-2 -14 -13 -37
l-14 -59q-7 -12 -11 -16q-110 -101 -241 -129q-125 26 -125 159q-15 19 -21 46.5t-12 39.5q-8 11 -27 11q-24 -7 -120 -93q-16 -4 -37 -22q-8 -6 -26 -16q-2 0 -5 -5zM703 1045l118 86q37 30 87 86q40 0 69 -17q25 -14 25 -36q0 -5 -2 -11q-8 -24 -31 -47l-32 -37
q-11 -4 -31 -14q-23 -12 -39 -21l-72 -40q-31 -13 -53 -13l-74 -39l-90 -26l-66 -19q-38 8 -38 47q22 17 67 31l86 31q37 14 39 16q17 8 37 23z" />
    <glyph glyph-name="icircumflex" unicode="&#xee;" horiz-adv-x="609" 
d="M31 180v17l3 16l14 43l16 60l49 41q35 32 59 43l72 71q47 45 68 54l34 38q9 9 27 9q43 0 70 -23q20 -22 24 -45q4 -25 4 -47q0 -14 -4 -39v-12q0 -23 -3 -37q-4 -21 -4 -29v-12q-1 -4 -1 -8q0 -17 9 -35q9 -31 32 -45q25 0 96 24q47 56 90 64q-2 -12 -4 -27
q-2 -14 -12 -37l-14 -59q-7 -12 -11 -16q-110 -101 -241 -129q-125 26 -125 159q-15 19 -21 46.5t-12 39.5q-8 11 -27 11q-24 -7 -120 -93q-16 -4 -37 -22q-8 -6 -26 -16q-2 0 -5 -5zM377 908q-20 8 -20 36v9l6 16q17 31 39 47l80 43q53 25 77 53q15 2 54 25l45 20
q30 0 80 -41q12 -12 67 -36q53 -21 64 -48q20 -14 20 -49q0 -10 -4 -35q-4 -24 -10 -30q-6 -8 -15 -10l-67 36q-53 31 -88 37q-60 51 -84 51q-21 0 -62 -26l-53 -33q-33 -10 -78 -37z" />
    <glyph glyph-name="idieresis" unicode="&#xef;" horiz-adv-x="609" 
d="M31 180v17l3 16l14 43l16 60l49 41q35 32 59 43l72 71q47 45 68 54l34 38q9 9 27 9q43 0 70 -23q20 -22 25 -45q4 -25 4 -47q0 -14 -4 -39q0 -31 -4 -49q-4 -21 -4 -29v-12q-1 -4 -1 -8q0 -17 9 -35q9 -31 32 -45q25 0 96 24q47 56 90 64q-2 -12 -4 -27q-2 -14 -12 -37
l-14 -59q-7 -12 -11 -16q-110 -101 -241 -129q-125 26 -125 159q-15 19 -21 46.5t-12 39.5q-8 11 -27 11q-24 -7 -120 -93q-16 -4 -37 -22q-8 -6 -26 -16q-2 0 -5 -5zM766 924q-20 0 -41 20q-14 21 -14 47q10 33 39 54q49 59 98 59q17 0 35 -10l31 -10l16 -4l6 -9v-2
q0 -10 -4 -41q-8 -43 -24 -59l-23 -10l-23 -15l-26 -24q-2 8 -35 8q-25 0 -35 -4zM451 920q-32 26 -32 69v15q6 33 49.5 66.5t80.5 33.5q35 0 64 -20q18 0 18 -27q0 -20 -4 -33l-8 -43q-2 -8 -39 -28q-33 -15 -41 -29h-33l-27 -2z" />
    <glyph glyph-name="eth" horiz-adv-x="832" 
d="M559 709h33q41 0 51 -12q3 -9 3 -13q-10 -14 -17 -20l-18 -27l2 -8l51 16q35 15 59 15q72 0 98 -51q66 165 74 215q13 45 19 114l17 103l-97 -41l-88 -39q-25 6 -47 45q-20 31 -20 53q0 6 2 12l86 31q32 8 59 19q25 10 37 16l27 8l28 8q-23 62 -45 84q-15 25 -49 31
q-29 0 -72 -25l-53 -26l-19 8q-5 7 -5 10v2l-5 15q74 192 137 192q101 0 174 -61q76 -56 109 -150q14 4 35 14q18 11 55 31q58 35 88 45q41 33 74 33q-8 -37 -53 -131q-8 -12 -35 -29l-70 -35l-90 -40q-10 -109 -26 -189q-29 -125 -70 -207l-39 -90l-41 -90l-154 -225
q-94 -133 -229 -230.5t-269 -97.5q-77 0 -79 33q-41 12 -43 33l-14 82l30 71l25 70q-25 -4 -51 -25l-60 -45q-32 -24 -47 -26l25 112l2 10l172 138l100 75q8 11 35 33q24 21 73 58zM443 365q-86 -70 -113 -193l2 -32q6 -9 27 -15q32 0 102 37t111 78q47 24 57 67
q43 56 58 113q2 12 2 33q0 16 -7 31q-6 12 -24 12q-49 0 -88 -25q-41 -24 -62 -55q-35 -45 -65 -51zM910 328q16 0 18 -16l5 -37l2 -23q-7 -29 -33 -53q-8 -6 -31 -19q-22 -14 -39 -22q-47 -25 -68 -41l-55 -33q-45 -28 -55 -28q-15 0 -18 16q24 31 67 65l78 66q32 27 51 61
q49 35 78 64z" />
    <glyph glyph-name="ntilde" unicode="&#xf1;" horiz-adv-x="983" 
d="M252 -41q-16 -31 -90 -31q-37 0 -45 8v23q2 2 10 28q2 9 2 15t-2 11l29 65q24 41 29 57l47 88q6 13 12 25q4 10 6 27l10 24q21 25 29 54v4q0 12 -14 12q-31 0 -54 -25l-75 -71l-68 -60l-43 -33q-2 9 -2 13l14 55l13 55q10 33 37 50q38 57 116 120q45 37 68 58
q20 18 35 32q22 21 57 50q33 28 51 39q41 32 94 32q56 0 56 -61q0 -19 -9 -53q-8 -35 -34 -91l-29 -51l-51 -100q-45 -76 -51 -105l18 9l27 26l32 35q41 39 121 94q56 56 107 90q49 35 104 35q31 0 62 -12l18 -43q14 -37 16 -49l17 -70q6 -51 24 -65l15 -9l10 -4q23 6 59 39
q35 31 47 33q-18 -86 -18 -113q0 -6 2 -10q-70 -67 -119 -100q-51 -33 -94 -33q-43 10 -55 25q-4 4 -12.5 18t-16.5 29l-24 65q-13 33 -29 43q-6 43 -35 43q-22 0 -86 -51q-31 -22 -59 -43q-31 -22 -56 -37q-22 -35 -55 -65l-92 -78zM703 987l-80 -28l-78 -31l-6 16l12 37
q25 39 74 51q16 11 57 27q62 25 82 33l113 41h10q61 0 94 -45l-20 -60l4 -8q6 -10 10 -12l123 37l55 22q41 21 72 21l10 -8q-12 -60 -51 -80q-20 -13 -47 -21q-29 -8 -68 -16q-75 -17 -102 -27l-59 -16l-50 -12l-14 8q-6 8 -12 59q-8 49 -35 49q-23 0 -45 -12z" />
    <glyph glyph-name="ograve" unicode="&#xf2;" horiz-adv-x="832" 
d="M187 25q-53 20 -53 88v18q6 19 14 37q6 19 10 37l27 76q-12 0 -35 -12l-51 -39l-43 -35q-14 -10 -25 -10l3 12l20 55l-2 10l-2 7l6 34l131 113l139 104q12 17 26.5 32.5t32.5 29.5l90 65l82 58l31 4q31 0 45 -6q12 -6 12 -15v-4l-18 -24l-18 -31q8 0 26 6q19 4 35 8
q43 17 65 17q80 0 113 -64l2 -33q4 -16 4 -26q0 -12 -4 -33q-14 -74 -57 -151l-55 -68q-39 -39 -46 -57l-34 -27q-31 -25 -45 -45l-127 -94q-37 -27 -90 -49q-56 -26 -109 -26q-94 0 -100 38zM613 273q18 14 45 75q8 13 14 43q4 29 4 35q0 49 -51 49q-29 0 -51 -12l-62 -47
q-39 -51 -78 -51q-32 -33 -54 -70q-25 -37 -41 -86q-6 -29 -6 -43t2.5 -24.5t31.5 -16.5q127 37 246 148zM654 56q-13 0 -19 16q12 16 27 33q14 14 33 28l77 68q41 39 60 63q37 23 78 64q14 -8 14 -14l4 -35l2 -27q-6 -29 -31 -49q-24 -23 -63 -43l-53 -31l-68 -41
q-53 -32 -61 -32zM715 1045q29 -23 94 -49q64 -29 88 -56q-6 -18 -22 -30q-19 -13 -31 -13l-53 17l-78 26q-31 13 -61 37q-23 4 -80 45q-57 39 -80 43l-10 31l-12 29q2 8 2 14t-2 10l10 27q40 37 83 37h21q45 -101 131 -168z" />
    <glyph glyph-name="oacute" unicode="&#xf3;" horiz-adv-x="832" 
d="M187 25q-53 20 -53 88v18q6 19 14 37q6 19 10 37l27 76q-12 0 -35 -12l-51 -39l-43 -35q-14 -10 -25 -10l3 12l20 55l-2 10l-2 7l6 34l131 113l139 104q12 17 26.5 32.5t32.5 29.5l90 65l82 58l31 4q31 0 44.5 -6t13.5 -15v-4l-19 -24l-18 -31q8 0 27 6q18 4 34 8
q43 17 65 17q80 0 114 -64l2 -33q4 -16 4 -26q0 -12 -4 -33q-15 -74 -58 -151l-55 -68q-39 -39 -46 -57l-34 -27q-31 -25 -45 -45l-127 -94q-37 -27 -90 -49q-56 -26 -109 -26q-94 0 -100 38zM613 273q19 14 45 75q8 13 13.5 42.5t5.5 35.5q0 49 -52 49q-29 0 -51 -12
l-62 -47q-39 -51 -78 -51q-32 -33 -54 -70q-25 -37 -41 -86q-6 -29 -6 -43t2.5 -24.5t31.5 -16.5q127 37 246 148zM654 56q-13 0 -18 16q12 16 26 33q15 14 33 28l77 68q41 39 60 63q37 23 78 64q14 -8 14 -14l4 -35l3 -27q-7 -29 -31 -49q-25 -23 -64 -43l-53 -31l-68 -41
q-53 -32 -61 -32zM842 1041l119 86q37 30 86 86q39 0 65 -17q27 -12 27 -35q0 -6 -2 -12q-4 -20 -30 -47l-31 -37q-21 -4 -70 -35l-72 -41q-20 -8 -55 -12q-29 -20 -76 -39l-88 -26l-63 -19q-39 8 -39 47q23 17 68 31l86 31z" />
    <glyph glyph-name="ocircumflex" unicode="&#xf4;" horiz-adv-x="832" 
d="M187 25q-53 20 -53 88v18q6 19 14 37q6 19 10 37l27 76q-12 0 -35 -12l-51 -39l-43 -35q-14 -10 -25 -10l3 12l20 55l-2 10l-2 7l6 34l131 113l139 104q12 17 26.5 32.5t32.5 29.5l90 65l82 58l31 4q31 0 44.5 -6t13.5 -15v-4l-19 -24l-18 -31q8 0 27 6q18 4 34 8
q43 17 65 17q80 0 114 -64l2 -33q4 -16 4 -26q0 -12 -4 -33q-15 -74 -58 -151l-55 -68q-39 -39 -46 -57l-34 -27q-31 -25 -45 -45l-127 -94q-37 -27 -90 -49q-56 -26 -109 -26q-94 0 -100 38zM613 273q19 14 45 75q8 13 13.5 42.5t5.5 35.5q0 49 -52 49q-29 0 -51 -12
l-62 -47q-39 -51 -78 -51q-32 -33 -54 -70q-25 -37 -41 -86q-6 -29 -6 -43t2.5 -24.5t31.5 -16.5q127 37 246 148zM654 56q-13 0 -18 16q12 16 26 33q15 14 33 28l77 68q41 39 60 63q37 23 78 64q14 -8 14 -14l4 -35l3 -27q-7 -29 -31 -49q-25 -23 -64 -43l-53 -31l-68 -41
q-53 -32 -61 -32zM488 903q-22 7 -22 37v8l6 17q16 29 41 47l77 43q53 27 80 53q16 4 53 24.5t45 20.5q29 0 78 -41q19 -14 70 -35q49 -22 64 -49q20 -14 20 -55q0 -8 -4 -33l-9 -24l-16 -13l-68 37q-53 31 -90 37q-59 51 -82 51q-22 0 -61 -26l-55 -33q-29 -8 -76 -37z" />
    <glyph glyph-name="otilde" unicode="&#xf5;" horiz-adv-x="832" 
d="M187 25q-53 20 -53 88v18q6 19 14 37q6 19 10 37l27 76q-12 0 -35 -12l-51 -39l-43 -35q-14 -10 -25 -10l3 12l20 55l-2 10l-2 7l6 34l131 113l139 104q12 17 26.5 32.5t32.5 29.5l90 65l82 58l31 4q31 0 45 -6q12 -6 12 -15v-4l-18 -24l-18 -31q8 0 26 6q19 4 35 8
q43 17 65 17q80 0 113 -64l2 -33q4 -16 4 -26q0 -12 -4 -33q-14 -74 -57 -151l-55 -68q-39 -39 -46 -57l-34 -27q-31 -25 -45 -45l-127 -94q-37 -27 -90 -49q-56 -26 -109 -26q-94 0 -100 38zM613 273q18 14 45 75q8 13 14 43q4 29 4 35q0 49 -51 49q-29 0 -51 -12l-62 -47
q-39 -51 -78 -51q-32 -33 -54 -70q-25 -37 -41 -86q-6 -29 -6 -43t2.5 -24.5t31.5 -16.5q127 37 246 148zM654 56q-13 0 -19 16q12 16 27 33q14 14 33 28l77 68q41 39 60 63q37 23 78 64q14 -8 14 -14l4 -35l2 -27q-6 -29 -31 -49q-24 -23 -63 -43l-53 -31l-68 -41
q-53 -32 -61 -32zM656 991l-80 -28l-78 -31l-8 16l13 37q22 39 75 52q41 24 139 59l111 41h12q59 0 92 -45l-20 -60l4 -8l10 -12l125 37l53 22q43 21 72 21l10 -8q-12 -62 -51 -80q-21 -13 -47 -21q-29 -8 -68 -16q-78 -16 -98 -27l-62 -16l-49 -12l-16 8q-2 10 -6 26
q-4 17 -6 33q-11 49 -33 49q-33 -4 -47 -12z" />
    <glyph glyph-name="odieresis" unicode="&#xf6;" horiz-adv-x="832" 
d="M187 25q-53 20 -53 88v18q6 19 14 37q6 19 10 37l27 76q-12 0 -35 -12l-51 -39l-43 -35q-14 -10 -25 -10l3 12l20 55l-2 10l-2 7l6 34l131 113l139 104q12 17 26.5 32.5t32.5 29.5l90 65l82 58l31 4q31 0 44.5 -6t13.5 -15v-4l-19 -24l-18 -31q8 0 27 6q18 4 34 8
q43 17 65 17q80 0 114 -64l2 -33q4 -16 4 -26q0 -12 -4 -33q-15 -74 -58 -151l-55 -68q-39 -39 -46 -57l-34 -27q-31 -25 -45 -45l-127 -94q-37 -27 -90 -49q-56 -26 -109 -26q-94 0 -100 38zM613 273q19 14 45 75q8 13 13.5 42.5t5.5 35.5q0 49 -52 49q-29 0 -51 -12
l-62 -47q-39 -51 -78 -51q-32 -33 -54 -70q-25 -37 -41 -86q-6 -29 -6 -43t2.5 -24.5t31.5 -16.5q127 37 246 148zM654 56q-13 0 -18 16q12 16 26 33q15 14 33 28l77 68q41 39 60 63q37 23 78 64q14 -8 14 -14l4 -35l3 -27q-7 -29 -31 -49q-25 -23 -64 -43l-53 -31l-68 -41
q-53 -32 -61 -32zM871 920q-23 0 -39 19.5t-16 47.5q14 33 41 54q48 59 96 59q16 0 34 -10l34 -10l16 -5l6 -8l-4 -39q-13 -51 -27 -63l-21 -10q-18 -11 -22 -15q-10 -2 -27 -24q-2 8 -34 8q-25 0 -37 -4zM557 916q-34 24 -34 63q0 15 4 35t47 53t80 33q36 0 63 -20
q21 0 21 -27l-4 -33l-11 -43q-4 -12 -37 -26q-32 -17 -45 -31h-30l-27 -2z" />
    <glyph glyph-name="divide" unicode="&#xf7;" horiz-adv-x="1706" 
d="M932 365q47 0 74 -33q19 -25 19 -59q0 -15 -2 -23q-8 -45 -52 -80q-43 -35 -88 -35q-49 0 -76 33q-16 23 -16 55q0 17 6 46q4 28 45 63q14 10 31 18q28 15 59 15zM398 669h1198l-27 -116h-1198zM1086 1086q45 0 73 -35q19 -25 19 -57q0 -15 -2 -23q-12 -51 -51 -82
q-39 -33 -88 -33q-50 0 -76 33q-18 25 -18 55q0 11 8 43q6 31 47 66q39 33 88 33z" />
    <glyph glyph-name="oslash" unicode="&#xf8;" horiz-adv-x="832" 
d="M345 223l33 27l28 23l76 69l92 82q18 15 32 25q13 8 43 22h-32q-47 0 -68 -22q-29 -23 -41 -37l-39 -35q-16 -12 -35 -12q-22 -19 -46 -56q-27 -38 -43 -86zM150 47q-8 13 -12 35q-4 23 -4 49l8 35l8 31q13 14 21 32.5t12 43.5l2 8q-12 0 -35 -12l-49 -37l-47 -35
q-16 -12 -27 -12l11 30l6 15l6 18v16l-4 5l8 38l111 78l108 88l127 107l51 45l76 63q32 21 57 21q33 0 49 -6q12 -4 12 -15v-4l-16 -22l-18 -25l2 -8l36 14q46 17 82 17q41 0 70 -17l41 35l47 31q23 12 45 12l17 -2l10 -2l12 -4l12 -8q-4 -21 -8 -29q-10 -24 -33 -45
q-24 -27 -88 -78v-16l-4 -29q-24 -106 -117 -227q-28 -35 -55 -60q-26 -24 -35 -28q-14 -19 -36.5 -39.5t-45.5 -32.5q-127 -129 -297 -129q-36 0 -43 8l-32 -21l-45 -39q-33 -30 -47 -37q-19 -12 -33 -12l-8 6l-2 6q6 33 6 48q0 10 -2 12l43 41zM678 404q-37 -19 -69 -45
l-78 -74l-67 -66q-23 -20 -43 -39q-31 -28 -50 -51q58 6 125 49q35 21 62 43q26 23 57 60q47 57 63 123zM660 105q12 16 14 18q16 19 43 37l70 53q32 25 45 51l39 33q18 17 34 27q3 2 9 4q16 0 16 -31l-6 -53q-6 -37 -49 -64q-43 -20 -113 -63q-31 -20 -63 -37
q-35 -18 -45 -24l-9 4l-10 8z" />
    <glyph glyph-name="ugrave" unicode="&#xf9;" 
d="M187 13q-27 22 -29 43q-2 18 -2 43q0 22 2 34l11 86q4 15 6 33q0 17 2 25l-47 -25l-51 -37l-23 -18l-18 -14l-17 -7q0 13 2 27q0 12 8 53q7 39 48 68q22 14 50.5 38.5t55.5 51.5q24 25 53 53q12 15 59 70l103 115q53 45 112 45q21 0 21 -25q0 -12 -4 -29q-4 -16 -8 -28.5
t-16 -32.5q-11 -25 -19 -43q-10 -19 -29 -47l-45 -78l-24 -61l-17 -54l-14 -47q-8 -39 -8 -69q0 -15 4 -27l4 -4l36 18l39 23l70 65l66 62l61 73q14 19 35 41q18 23 47 48q37 30 74 30q45 0 51 -24q4 -25 4 -39q0 -13 -8 -49q-8 -39 -8 -70q0 -61 45 -61q18 0 41 12l49 31
l37 24q6 0 6 -16q0 -21 -8 -51l-6 -29q-13 -55 -95 -94q-84 -41 -139 -41t-76 20q-20 17 -31 43l-8 60q-2 16 -2 22q-2 4 -6 10q-4 0 -6 -2q-19 -12 -37 -32l-51 -54l-66 -61l-71 -64q-29 -22 -72 -43q-27 -10 -39 -12q-14 -5 -35 -5q-20 0 -67 26zM726 1045q26 -21 90 -51
q35 -15 57 -27q21 -14 35 -27q-6 -18 -23.5 -30.5t-30.5 -12.5l-55 17l-78 26q-37 17 -59 37q-23 4 -80 45q-57 39 -79 43l-13 31l-10 29q2 8 2 14t-2 10l10 27q41 37 84 37h20q45 -101 132 -168z" />
    <glyph glyph-name="uacute" unicode="&#xfa;" 
d="M187 13q-27 22 -29 43q-2 18 -2 43q0 22 2 34l11 86q4 15 6 33q0 17 2 25l-47 -25l-51 -37l-23 -18l-18 -14l-17 -7q0 13 2 27q0 12 8 53q7 39 48 68q22 14 50.5 38.5t55.5 51.5q24 25 53 53q12 15 59 70l103 115q53 45 112 45q21 0 21 -25q0 -12 -4 -29q-4 -16 -8 -28.5
t-16 -32.5q-11 -25 -19 -43q-10 -19 -29 -47l-45 -78l-24 -61l-17 -54l-14 -47q-8 -39 -8 -69q0 -15 4 -27l4 -4l36 18l39 23l70 65l66 62l61 73q14 19 35 41q18 23 47 48q37 30 74 30q45 0 51 -24q4 -25 4 -39q0 -13 -8 -49q-8 -39 -8 -70q0 -61 45 -61q18 0 41 12l49 31
l37 24q6 0 6 -16q0 -21 -8 -51l-6 -29q-13 -55 -95 -94q-84 -41 -139 -41t-76 20q-20 17 -31 43l-8 60q-2 16 -2 22q-2 4 -6 10q-4 0 -6 -2q-19 -12 -37 -32l-51 -54l-66 -61l-71 -64q-29 -22 -72 -43q-27 -10 -39 -12q-14 -5 -35 -5q-20 0 -67 26zM883 1045l119 86
q37 30 86 86q41 0 69 -17q25 -14 25 -36q0 -5 -2 -11q-8 -24 -30 -47l-33 -37q-23 -6 -70 -35l-72 -40q-31 -13 -53 -13l-76 -39l-90 -26l-64 -19q-38 8 -38 47q23 17 68 31l86 31q37 14 39 16q16 8 36 23z" />
    <glyph glyph-name="ucircumflex" unicode="&#xfb;" 
d="M187 13q-27 22 -29 43q-2 18 -2 43q0 22 2 34l11 86q4 15 6 33q0 17 2 25l-47 -25l-51 -37l-23 -18l-18 -14l-17 -7q0 13 2 27q0 12 8 53q7 39 48 68q22 14 50.5 38.5t55.5 51.5q24 25 53 53q12 15 59 70l103 115q53 45 112 45q21 0 21 -25q0 -12 -4 -29q-4 -16 -8 -28.5
t-16 -32.5q-11 -25 -19 -43q-10 -19 -29 -47l-45 -78l-24 -61l-17 -54l-14 -47q-8 -39 -8 -69q0 -15 4 -27l4 -4l36 18l39 23l70 65l66 62l61 73q14 19 35 41q18 23 47 48q37 30 74 30q45 0 51 -24q4 -25 4 -39q0 -13 -8 -49q-8 -39 -8 -70q0 -61 45 -61q18 0 41 12l49 31
l37 24q6 0 6 -16q0 -21 -8 -51l-6 -29q-13 -55 -95 -94q-84 -41 -139 -41t-76 20q-20 17 -31 43l-8 60q-2 16 -2 22q-2 4 -6 10q-4 0 -6 -2q-19 -12 -37 -32l-51 -54l-66 -61l-71 -64q-29 -22 -72 -43q-27 -10 -39 -12q-14 -5 -35 -5q-20 0 -67 26zM525 903q-22 7 -22 37v8
l6 17q16 29 41 47l77 43q53 27 80 53q16 4 53 24.5t45 20.5q29 0 78 -41q10 -8 35 -18q22 -12 35 -19q51 -20 64 -47q20 -14 20 -55q0 -8 -4 -33l-9 -24l-16 -13l-68 37q-53 31 -90 37q-57 51 -82 51q-22 0 -61 -26l-55 -33q-29 -8 -76 -37z" />
    <glyph glyph-name="udieresis" unicode="&#xfc;" 
d="M187 13q-27 22 -29 43q-2 18 -2 43q0 22 2 34l11 86q4 15 6 33q0 17 2 25l-47 -25l-51 -37l-23 -18l-18 -14l-17 -7q0 13 2 27q0 12 8 53q7 39 48 68q22 14 50.5 38.5t55.5 51.5q24 25 53 53q12 15 59 70l103 115q53 45 112 45q21 0 21 -25q0 -12 -4 -29q-4 -16 -8 -28.5
t-16 -32.5q-11 -25 -19 -43q-10 -19 -29 -47l-45 -78l-24 -61l-17 -54l-14 -47q-8 -39 -8 -69q0 -15 4 -27l4 -4l36 18l39 23l70 65l66 62l61 73q14 19 35 41q18 23 47 48q37 30 74 30q45 0 51 -24q4 -25 4 -39q0 -13 -8 -49q-8 -39 -8 -70q0 -61 45 -61q18 0 41 12l49 31
l37 24q6 0 6 -16q0 -21 -8 -51l-6 -29q-13 -55 -95 -94q-84 -41 -139 -41t-76 20q-20 17 -31 43l-8 60q-2 16 -2 22q-2 4 -6 10q-4 0 -6 -2q-19 -12 -37 -32l-51 -54l-66 -61l-71 -64q-29 -22 -72 -43q-27 -10 -39 -12q-14 -5 -35 -5q-20 0 -67 26zM908 920q-23 0 -39 19.5
t-16 47.5q14 33 41 54q48 59 95 59q17 0 35 -10l34 -10l16 -5l6 -8l-4 -39q-13 -51 -27 -63l-21 -10l-22 -15q-10 -2 -27 -24q-2 8 -35 8q-24 0 -36 -4zM594 916q-34 24 -34 63q0 15 4 35t47 53t79 33q37 0 64 -20q21 0 21 -27l-4 -33l-11 -43l-4 -4q-18 -16 -41 -27
q-25 -12 -37 -26h-31l-26 -2z" />
    <glyph glyph-name="yacute" 
d="M518 228l-43 -33l-55 -41q-20 -14 -47 -19q-37 -49 -72 -63q-37 -16 -104 -31l-47 17q-8 4 -8 43l23 59v29l4 30q6 25 6 39q0 15 -9 15q-10 -9 -18 -13q-35 -22 -54 -34l-73 -54q-4 2 -6 13q23 36 29 53q2 10 2 20v11l2 28q10 17 84 70q34 22 59 43q22 18 35 31l57 53
l39 39q12 10 37 26q30 25 63 25q27 0 43 -19q13 -14 13 -30q0 -6 -2 -15q-8 -18 -12 -30q-7 -15 -29 -54l-49 -94l-31 -73q-2 -13 -2 -19q0 -10 4 -14l22 4q6 12 51 37l66 39q33 22 102 86l92 86q11 8 33 22q23 12 41 23l55 43q5 4 23 18q16 12 39 27q22 12 55 12
q44 0 44 -31q0 -4 -2 -10q-4 -33 -64 -127l-22 -51l-31 -53l-47 -84l-45 -78l-17 -35l6 -8l37 31q29 28 55 45q15 4 70 51q65 49 78 49l8 -2l-6 -31l-4 -39l-4 -37l-2 -8q-51 -47 -158 -116q-51 -35 -100 -70q-39 -29 -80 -62q-66 -49 -127 -131l-105 -119q-39 -41 -72 -82
q-32 -41 -53 -67q-37 -23 -104 -86q-27 -27 -58.5 -54.5t-50.5 -40.5q-43 -30 -103 -30q-32 0 -35 8q-4 6 -7 39q10 26 49 71l45 54q17 2 46 35q22 32 34 32q37 49 111 123l22 23l21 14l104 111q58 51 88 69q11 25 56 101t71 103l25 65l29 68l6 18l4 12v6q0 7 -3 15l-45 -27
q-39 -20 -57 -37q-21 -12 -25 -32zM750 1037l117 86q41 30 86 86q38 0 69 -17q25 -14 25 -37q0 -4 -2 -10q-4 -20 -30 -47l-33 -37q-10 -4 -31 -14q-23 -13 -39 -21l-72 -41l-53 -12q-35 -22 -76 -37l-90 -28l-64 -19q-38 8 -38 47q22 17 67 31l89 31q22 10 38 18
q17 8 37 21z" />
    <glyph glyph-name="thorn" horiz-adv-x="797" 
d="M178 408q33 47 60 86q24 39 51 86l104 174l117 209l107 186l78 139q20 39 55 72q18 21 35 21q24 0 41 -23l22 -61l-6 -31l-2 -27l-29 -73l-43 -95q-6 -12 -26 -49q-29 -51 -47 -82l-115 -182q-17 -27 -47 -80q-17 -29 -33 -57q-12 -29 -29 -53q-16 -27 -41 -60l-69 -92
q-27 -35 -56 -109q11 7 29 27l35 43l33 43l223 221q201 152 274 152q74 0 74 -60q0 -16 -2 -24q-31 -131 -184 -322l-29 -43l-16 -24l-23 -23q-33 -37 -74 -67l-75 -58q-21 -16 -33 -26l-29 -29q-37 -18 -104 -68q-29 -22 -60.5 -43t-52.5 -31q-45 -22 -100 -22l-27 2l-33 2
l-69 -117q-41 -82 -70 -125l-56 -88q-8 -27 -16 -47q-10 -21 -33 -51l-41 -62q-74 -137 -137 -159q-8 -9 -27 -9q-32 0 -32 17v4q2 14 53 102l57 107q17 43 37 80q18 36 41 67q16 37 29 64q10 26 32 65l72 139q8 15 35 66q25 50 39 80q13 31 27 68q12 37 20 74
q-43 -47 -69 -47l16 32l8 23l4 26l2 23q3 14 19 33q16 16 43 31l43 30zM238 88q49 0 88 23q51 22 90 53l80 72l78 76l45 51q18 22 33 37l12 12l49 59q39 47 45 82q-51 0 -94 -37q-25 -18 -51 -43q-29 -26 -64 -61l-45 -45q-35 -37 -41 -51l-53 -39l-70 -54q-6 -4 -20.5 -16
t-40.5 -39l-19 -22q-22 -25 -24 -41zM676 156l53 47q52 39 66 61l39 29l41 39q12 -8 12 -14l4 -37l2 -29q-6 -29 -35 -51l-73 -51q-52 -31 -56 -37q-12 -2 -22 -8q-12 -6 -37 -21q-37 -24 -53 -24q-8 0 -19 12q37 49 78 84z" />
    <glyph glyph-name="ydieresis" unicode="&#xff;" 
d="M518 228l-43 -33l-55 -41q-20 -14 -47 -19q-37 -49 -72 -63q-37 -16 -104 -31l-47 17q-8 4 -8 43l23 59v29l4 30q6 25 6 39q0 15 -9 15q-10 -9 -18 -13q-35 -22 -54 -34l-73 -54q-4 2 -6 13q23 36 29 53q2 10 2 20v11l2 28q10 17 84 70q34 22 59 43q22 18 35 31l57 53
l39 39q12 10 37 26q30 25 63 25q27 0 43 -19q13 -14 13 -30q0 -6 -2 -15q-8 -18 -12 -30q-7 -15 -29 -54l-49 -94l-31 -73q-2 -13 -2 -19q0 -10 4 -14l22 4q6 12 51 37l66 39q33 22 102 86l92 86q11 8 33 22q23 12 41 23l55 43q5 4 23 18q16 12 39 27q22 12 55 12
q44 0 44 -31q0 -4 -2 -10q-4 -33 -64 -127l-22 -51l-31 -53l-47 -84l-45 -78l-17 -35l6 -8l37 31q29 28 55 45q15 4 70 51q65 49 78 49l8 -2l-6 -31l-4 -39l-4 -37l-2 -8q-51 -47 -158 -116q-51 -35 -100 -70q-39 -29 -80 -62q-66 -49 -127 -131l-105 -119q-39 -41 -72 -82
q-32 -41 -53 -67q-37 -23 -104 -86q-27 -27 -58.5 -54.5t-50.5 -40.5q-43 -30 -103 -30q-32 0 -35 8q-4 6 -7 39q10 26 49 71l45 54q17 2 46 35q22 32 34 32q37 49 111 123l22 23l21 14l104 111q58 51 88 69q11 25 56 101t71 103l25 65l29 68l6 18l4 12v6q0 7 -3 15l-45 -27
q-39 -20 -57 -37q-21 -12 -25 -32zM908 920q-23 0 -39 19.5t-16 47.5q14 33 41 54q48 59 95 59q17 0 35 -10l34 -10l16 -5l6 -8l-4 -39q-13 -51 -27 -63l-21 -10l-22 -15q-10 -2 -27 -24q-2 8 -35 8q-24 0 -36 -4zM594 916q-34 24 -34 63q0 15 4 35t47 53t79 33q37 0 64 -20
q21 0 21 -27l-4 -33l-11 -43l-4 -4q-18 -16 -41 -27q-25 -12 -37 -26h-31l-26 -2z" />
    <glyph glyph-name="dotoperator" horiz-adv-x="475" 
d="M293 412q-41 0 -70 37q-24 24 -24 59q0 17 2 25q14 53 53 82q35 32 88 32q47 0 74 -34q18 -25 18 -60q0 -16 -2 -24q-8 -43 -53 -80t-86 -37z" />
    <glyph glyph-name=".null" horiz-adv-x="0" 
 />
    <glyph glyph-name=".null" horiz-adv-x="0" 
 />
    <glyph glyph-name="BS" horiz-adv-x="0" 
 />
    <glyph glyph-name="HT" unicode="&#x9;" horiz-adv-x="475" 
 />
    <glyph glyph-name="nonmarkingreturn" unicode="&#xd;" horiz-adv-x="475" 
 />
    <glyph glyph-name="GS" horiz-adv-x="0" 
 />
  </font>
</defs>
</svg>
