<svg xmlns="http://www.w3.org/2000/svg" xmlns:xlink="http://www.w3.org/1999/xlink" viewBox="813.5 400 206.999 200.75"><defs><style>.a,.e{fill:none;}.a,.c{stroke:#fff;}.b,.c{fill:#fff;}.d{stroke:none;}.f{filter:url(#g);}.g{filter:url(#e);}.h{filter:url(#c);}.i{filter:url(#a);}</style><filter id="a" x="814.25" y="400" width="205.5" height="62.75" filterUnits="userSpaceOnUse"><feOffset dy="2" input="SourceAlpha"/><feGaussianBlur stdDeviation="0.25" result="b"/><feFlood/><feComposite operator="in" in2="b"/><feComposite in="SourceGraphic"/></filter><filter id="c" x="814.25" y="538" width="205.5" height="62.75" filterUnits="userSpaceOnUse"><feOffset dy="2" input="SourceAlpha"/><feGaussianBlur stdDeviation="0.25" result="d"/><feFlood/><feComposite operator="in" in2="d"/><feComposite in="SourceGraphic"/></filter><filter id="e" x="826.639" y="408.891" width="182.761" height="45.712" filterUnits="userSpaceOnUse"><feOffset dy="2" input="SourceAlpha"/><feGaussianBlur stdDeviation="0.5" result="f"/><feFlood/><feComposite operator="in" in2="f"/><feComposite in="SourceGraphic"/></filter><filter id="g" x="813.5" y="459" width="206.999" height="83.5" filterUnits="userSpaceOnUse"><feOffset dy="2" input="SourceAlpha"/><feGaussianBlur stdDeviation="0.5" result="h"/><feFlood flood-opacity="0.161"/><feComposite operator="in" in2="h"/><feComposite in="SourceGraphic"/></filter></defs><g class="i" transform="matrix(1, 0, 0, 1, 0, 0)"><g class="a" transform="translate(815 400)"><rect class="d" width="204" height="60"/><rect class="e" x="0.5" y="0.5" width="203" height="59"/></g></g><g class="h" transform="matrix(1, 0, 0, 1, 0, 0)"><g class="a" transform="translate(815 538)"><rect class="d" width="204" height="60"/><rect class="e" x="0.5" y="0.5" width="203" height="59"/></g></g><g class="g" transform="matrix(1, 0, 0, 1, 0, 0)"><path class="b" d="M48.74,54.956c-.163-.032-.26-.081-.292-.146a1.672,1.672,0,0,1-.171-.1l.073-1,.049-1.05.342-.854.44-.806.464-1.66.439-1.587,1.1-2.857,1.269-3.052,1.709-4.3a15.436,15.436,0,0,0,.879-2.613l-3.93.708a20.3,20.3,0,0,0-4.517.854,6.258,6.258,0,0,1-2.783.684l-1.147.806a4.417,4.417,0,0,0-.952.855l-1.27,4.2a11.989,11.989,0,0,0-.244,2.3q0,1.05.391,1.05l.391-.147.464-.391.342-.464.147-.049.268-.049a1.727,1.727,0,0,1,.489.049.2.2,0,0,1,.049.147v.122q-.9,1.293-1.2,1.733a16.566,16.566,0,0,1-1.9,2.3,4.342,4.342,0,0,1-3.2,1.514q-.537,0-.659-.293a.94.94,0,0,1-.147-.489,2.632,2.632,0,0,1,.1-.561q.049-.416.22-1.514a13.693,13.693,0,0,0,.147-1.856q0-.9.049-1.44a11.447,11.447,0,0,1,.244-1.441,5.724,5.724,0,0,0,.147-1v-.171l.244-.733.269-.659a19.9,19.9,0,0,1-.513-2.2,8.077,8.077,0,0,1-.2-1.708q.2-.343.439-.733a8.349,8.349,0,0,1,.855-1.05A9.548,9.548,0,0,0,39,33.2q1.733-4.516,3.735-11.254l.708-2.3a14.442,14.442,0,0,1,.439-1.465,4.09,4.09,0,0,1,.366-.806l1.831-1.44a2.638,2.638,0,0,1,1.465-.342,1.949,1.949,0,0,1,1.391.391,1.522,1.522,0,0,1,.391,1,5.834,5.834,0,0,1-.049.61,5.311,5.311,0,0,1-.244.745q-.147.354-.391.891-.66,1.758-1.514,3.809-1.05,2.588-1.391,3.393l-1.246,3.247-.9,2.563-.1.147q0,.293.586.489a8.961,8.961,0,0,1,2.905-.635l1.294.147,1.464-.2,1.1-.147,1.953.2a9.4,9.4,0,0,0,1.9-.146,16.932,16.932,0,0,0,1.636-.464l.659-1.147q.2-.39.391-.806a2.674,2.674,0,0,0,.2-.683l.22-.9A39.249,39.249,0,0,0,59.849,21l.244-1.2,1.246-1.367,1.049-1.148,1.148-1.05.659-.439a3.963,3.963,0,0,1,.635-.342l1-.415h.415q.2.147.2.708a10.287,10.287,0,0,1-.2,1.587q-.244,1.1-.634,2.368-.416,1.246-1.172,3.345l-.147.2-.049.707L64,24.487,63.8,25a35.252,35.252,0,0,1-3.2,7.3,7.888,7.888,0,0,1-.318,1.1q-.244.586-.537,1.2l-1.122,2.539a8.483,8.483,0,0,0-.831,2.319,3.506,3.506,0,0,1-.562.878,3.611,3.611,0,0,0-.488.855,10.017,10.017,0,0,1-.757,2.368L54.38,46.8q-.586,1.1-.951,1.9-.343.782-.635,1.611l-.854,1.88a11.465,11.465,0,0,1-1.1,2.1l-.562.366L49.5,55.1Zm8.2-2.1a3.451,3.451,0,0,1,.049-.61l.342-1L57.847,50l.44-1a8.643,8.643,0,0,1,1.22-2.2,8.393,8.393,0,0,1,.391-1.049q.293-.709.708-1.514a11.594,11.594,0,0,0,1.049-2.149,1.252,1.252,0,0,0-.61.1q-.513-.049-.634-.342a.283.283,0,0,1-.049-.2,4.17,4.17,0,0,1,.1-.757A8.062,8.062,0,0,1,61.9,37.744a3.166,3.166,0,0,1,2.71-1.391c.1-.179.179-.318.244-.415q.537-.855.805-1.2A11.961,11.961,0,0,1,67.1,32.5l.878-2a18.979,18.979,0,0,1,1.856-3.052,18.687,18.687,0,0,0,1.343-2.587,15.409,15.409,0,0,1,1.514-3A5.611,5.611,0,0,1,74.546,20l.244-.244-.244-.416a1.437,1.437,0,0,1-.22-.683,10.591,10.591,0,0,1,1.049-1.27,3.2,3.2,0,0,1,1.123-.439,2.5,2.5,0,0,0,1.343-.806,3.986,3.986,0,0,0,.805-1.294l.952-.293,1.1-.757,1.05-.66a1.536,1.536,0,0,1,.83-.244,1.849,1.849,0,0,1,.952.292c.276.212.415.383.415.513v.049c-.1.229-.171.391-.22.489a13.863,13.863,0,0,1-.781,1.464l-.9,1.588v.1a.352.352,0,0,0,.147.318,4.943,4.943,0,0,0,.9.537l1.049.512a1.589,1.589,0,0,1,.635.586,2.876,2.876,0,0,1,.66,1.807,2.8,2.8,0,0,1-.049.512L84.9,25.1l-.049.293-.269.854-.2.708.049.634a1.718,1.718,0,0,1,.049.415,3,3,0,0,1-.1.733q-.146.709-.244,1.221-.147.487-.513,1.489l-.292,2.344a1.49,1.49,0,0,0,.342.464.353.353,0,0,1,.121.292v.2a2.467,2.467,0,0,1-.366.952l-.952.757-.439,1.49-.464,1.709a7.9,7.9,0,0,0-.781,2.392q-.269.953-.416,1.514a3.793,3.793,0,0,1-.391.879v.854a7.211,7.211,0,0,0-1,2q-.342,1-.512,1.417a2.37,2.37,0,0,1-.391.683l-.2.416q-.293,1.245-2.344,1.953-.414,0-.415-.513a1.447,1.447,0,0,1,.049-.342l.464-1.806.488-2.246.416-1.611.391-1.587q0-.05.244-1.551t.366-2.258l.488-2.344-1.66.341a13.619,13.619,0,0,1-1.978.342,17.11,17.11,0,0,0-2.807.757l-2.1.757L67.54,40.5a3.11,3.11,0,0,1-.708.147,5.488,5.488,0,0,1-.9.049q-.243.586-.391.952a15.965,15.965,0,0,1-.952,1.685l-.659.854-.537.611q-.707,1.855-1.049,2.539l-.708,1.2-.244.318a25.738,25.738,0,0,1-1.294,2.905q-.756,1.293-1.1,1.391a5.607,5.607,0,0,1-1.66.366C57.074,53.516,56.944,53.3,56.944,52.856Zm19.849-29.15a6.7,6.7,0,0,0-1.05,1.441l-.806,1.391-.9,1.147q-.293.366-.537.707a4.345,4.345,0,0,0-.366.489,22.774,22.774,0,0,1-1.636,2.857.5.5,0,0,0-.1.2,2.477,2.477,0,0,0-.244.463,2.27,2.27,0,0,1-.513.806,6.174,6.174,0,0,0-1.685,2.345l.439.146.586.147.952-.244,1.147-.147,1.2-.1H74.5l1.1-.1a8.725,8.725,0,0,1,3.149-.61l.049-.2a6.471,6.471,0,0,0,.586-1.856l.049-1.538.415-.952a5.064,5.064,0,0,1-.049-.659l.1-1.05.537-2.148-.2-.244-.147-.513a3.438,3.438,0,0,0-.806-1.635,1.786,1.786,0,0,0-1.391-.806A1.474,1.474,0,0,0,76.793,23.706Zm85.229,28.906a1.834,1.834,0,0,1-1-.708.972.972,0,0,1-.268-.756,2.277,2.277,0,0,1,.049-.44,1.563,1.563,0,0,1,.366-.757l.757-.659.781-.439.854-.513L167,46.8l3.149-1.416h.416c.325,0,.488.17.488.512a.928.928,0,0,1-.049.293.694.694,0,0,1-.342.464l-.708.293-.683.292a.849.849,0,0,0-.415.513l.049.1.147.2a1.9,1.9,0,0,0,1-.512l1.27-1,.878-.831v-.415a1.471,1.471,0,0,1,.342-.488l.61-.513.635-.537.366-.708a2.311,2.311,0,0,0,.049-.536,3.858,3.858,0,0,0-.757-2.051q-1.246-2-2.49-3.711a30.165,30.165,0,0,0-2.393-2.759,1.451,1.451,0,0,1-.464-1.1,1.106,1.106,0,0,1,.073-.391q-.269,0-.757-.9a3.894,3.894,0,0,1-.562-2.1A6.156,6.156,0,0,0,167,27.954a17.559,17.559,0,0,1,3.906-6.469,33.584,33.584,0,0,1,3.956-2.93,40.113,40.113,0,0,1,4.59-2.515q.61-.293,2.258-.988t2.295-.952a3.911,3.911,0,0,1,1.453-.257,1.368,1.368,0,0,1,1.245.61,2.232,2.232,0,0,1,.2,1,3.893,3.893,0,0,1-.049.635,4.286,4.286,0,0,0-.147.561c-.065.163-.162.408-.292.733a4.929,4.929,0,0,1-.464.757c0,.032-.032.066-.1.1a35.441,35.441,0,0,1-8.447,5l-.439.1a.593.593,0,0,1-.562-.635.862.862,0,0,1,.049-.269,1.982,1.982,0,0,1,.757-.951l1.246-.782a1.3,1.3,0,0,0,.707-.9.4.4,0,0,0-.244-.147l-.2.1a12.088,12.088,0,0,0-3.76,2.685,9.563,9.563,0,0,0-2.294,3.712,9.124,9.124,0,0,0,.854,3.638q.39.8.83,1.611.464.806,1.075,1.758l2.319,3.443a8.25,8.25,0,0,1,.952,2.686,5.329,5.329,0,0,1,.1,1.22v1.05c-.1.358-.163.6-.2.733a.626.626,0,0,1,.708.707,2.263,2.263,0,0,1-.049.439,1.477,1.477,0,0,1-.464.855,3.54,3.54,0,0,1-1,.562,2.474,2.474,0,0,0-.586.292,6.262,6.262,0,0,1-.61.293,6.238,6.238,0,0,0-.952.806l-.684.708-1.538,1.245-2.563,1.391a16.1,16.1,0,0,0-1.635.976q-.61.392-1.172.806L166.71,52l-1.856.757a4.9,4.9,0,0,1-1.636.293Zm-21.167-1a.948.948,0,0,1-.512-.708l.2-.806a3.026,3.026,0,0,1-1.1-.281c-.1-.089-.147-.329-.147-.72l.2-.464.147-.781.268-1.269q1.246-4.077,1.392-4.541.707-2.246,1.489-4.443l.366-1.2.293-.9.512-.952.049-.2.147-.757,1.391-3.808q.463-1.295.9-2.54a15.9,15.9,0,0,1,.708-1.708,25.74,25.74,0,0,1,1.88-3.442,11.186,11.186,0,0,1,2.563-2.857q1.2-.855,2.758-1.856,1.49-1,2.49-1.538a11.389,11.389,0,0,1,2.051-.9,7.956,7.956,0,0,1,2.148-.293l1.2-.1,1.392-.1.854.049.9.049h.757l1.343.732a1.367,1.367,0,0,1,.146.66,4.8,4.8,0,0,1-.1.659l-.439,1.343-.245.806a2.786,2.786,0,0,1-.562,1.1,4.112,4.112,0,0,1-1.293.537l-.415-.1a9.321,9.321,0,0,0-3.833-.732l-2.246.244-2.222.2a1.763,1.763,0,0,0-1.245.537,4.811,4.811,0,0,0-.586.659q-.1.147-.562.806l-.854,1.441v.415l-.391,1.1c-.066.13-.163.325-.293.586q-.269.463-.464.756l-.586,1.147a46.044,46.044,0,0,0-2.515,5.86A2.751,2.751,0,0,0,150.4,32.5a9.306,9.306,0,0,1,1.685-1.05l1.049-.342,1.66-.512,1.148-.147,1.953-.1,1.9-.1q2.051,0,2.05,1.538a9.08,9.08,0,0,1-.1.9,5.841,5.841,0,0,1-.61,1.562,1.856,1.856,0,0,1-.391.586l-.2.2q-2.955-.293-5.615-.293a7.165,7.165,0,0,0-1.392.2q-.952.2-1.66.366l-2.148.44a11.344,11.344,0,0,0-1.9.707,4.09,4.09,0,0,0-1.294,1.733l-1,2.564-1.294,3.1-.757,2.344-.049.854a2.448,2.448,0,0,1,1,.2,6.713,6.713,0,0,1,2.1-.2,25.473,25.473,0,0,0,11.6-2.71,1.8,1.8,0,0,1,.757-.2q.489,0,.489.562a1.269,1.269,0,0,1-.049.391q-.342,1.806-4.589,3.76A22.876,22.876,0,0,1,151.5,50a27.725,27.725,0,0,1-9.766,1.758A2.049,2.049,0,0,1,140.855,51.611Zm-26.269-.562a.941.941,0,0,1-.634-.147,1.447,1.447,0,0,1-.415-.537l-.049-.927v-.586a8.247,8.247,0,0,0,.415-1.514q.636-2.149,4.444-12.208l.391-1.343.415-1.391a.432.432,0,0,0,.049-.2,1.833,1.833,0,0,0-.562-1.147A18.766,18.766,0,0,0,119.884,28q.317-1.049.561-1.709.244-.61.635-1.391l1.22-2.759a19.986,19.986,0,0,1,1.782-3.394l1.05-1.709a8.269,8.269,0,0,1,1.269-1.587,2.094,2.094,0,0,1,1.538-.707,4.333,4.333,0,0,1,1.294-.391q.269,0,.61.488a1.7,1.7,0,0,1,.2.854,1.718,1.718,0,0,1-.049.489l-.854,2.563-1.147,2.784-1.2,2.759q-.39,1.392-.707,2.344a8.266,8.266,0,0,1-.44,1.148,3,3,0,0,0-.365.855,3.278,3.278,0,0,1-.782,1.245,8.719,8.719,0,0,1-.365,1.123q-.343.83-.781,1.88L122.2,35.352,120.884,38.7l-1.391,3.443-.9,2.857a6.338,6.338,0,0,0,.1,1.343.8.8,0,0,0,.342.61,3.513,3.513,0,0,1,1.318-.245l1.587-.121a18.26,18.26,0,0,0,5.957-1.832,2.985,2.985,0,0,1,1.611-.61l.147.244V44.8l-.562,1.293.049.562-.049.781a1.06,1.06,0,0,1-.341.61l-.611.391-.805.416a10.678,10.678,0,0,1-1.88,1,21.1,21.1,0,0,1-2.758.9l-2.051.611-2.148.2-2.1.2A2.01,2.01,0,0,1,114.585,51.05Zm15.894-.733V50l.415-4.712q.342-1.05.586-1.953.219-.83.366-1.294a1.656,1.656,0,0,1,.244-.586,3.626,3.626,0,0,0,.2-.317v-.147l.147-.537.2-1.1.415-1.269q.1-.392.391-1.294.244-.855.708-2.148.39-.952.756-2,.293-1.049.44-1.7a5.339,5.339,0,0,0,.147-1.159,5.648,5.648,0,0,0-.049-.684q-.049-.414-.391-.415V28.3l.1-.562.391-1.049.464-1.2a.432.432,0,0,0,.049-.2.873.873,0,0,0-.1-.391l1.1-2.148,1.538-3.1a14.015,14.015,0,0,1,1.953-2.905,3.291,3.291,0,0,1,2.344-.952,5.528,5.528,0,0,1,2.1-.757q.635,0,.635.757a5.421,5.421,0,0,1-.147.867,8.153,8.153,0,0,1-.439,1.38q-.1.244-.708,1.343l-.9,2a9.637,9.637,0,0,1-.684,2.148,7.271,7.271,0,0,1-.525,1.331q-.378.768-.623,1.379l-1.1,2.344.1.1a48.336,48.336,0,0,0-3.735,10.767l-.9,2.881-1,2.661a11.742,11.742,0,0,0-.318,2.71v.781a6.406,6.406,0,0,1,.1.9,1.746,1.746,0,0,1-.879.928,4.4,4.4,0,0,0-1.27.928,3.25,3.25,0,0,1-1.148.22Q130.479,51.465,130.479,50.317Zm-39.6,1.1-.2-.049q-.244-.074-.244-1.27a4.8,4.8,0,0,1,.1-1.1q.049-.414.147-.952.049-.512.049-1.1l.513-1.343L91.2,44.239l.341-.9.342-.83.464-3.15a7.389,7.389,0,0,0,.536-1.562L94.3,33.35l1.44-4.81a10.751,10.751,0,0,1,.9-2.2,33.328,33.328,0,0,1,1-3.345q.244-.855.525-1.708a11.09,11.09,0,0,0,.379-1.392,1.5,1.5,0,0,0-.366-.415.976.976,0,0,0-.586-.147l-1.1.221-1.147.244A14.959,14.959,0,0,0,91.2,21l-1.05.2q-.414,0-.512-.586a4.928,4.928,0,0,1,.756-1.465,4.51,4.51,0,0,1,.293-1q.1-.244.415-.854a4.932,4.932,0,0,1,.879-1.294,2.335,2.335,0,0,1,1.1-.952q.66-.2,1.318-.342a6.734,6.734,0,0,1,1.1-.1l1.733-.244.708.2a10.549,10.549,0,0,1,3.662-.513l2.148.1,2.148.1,1.294.22a4.209,4.209,0,0,0,.659.1.763.763,0,0,1,.293.2l.292-.049.293-.049q.536,0,.536.9a5.97,5.97,0,0,1-.146,1.148l-.391.9.049.391-.1.66q-.146.683-.536.683a15.988,15.988,0,0,1-3.443-.586q-2.759,0-2.93.586l.464.513L102.818,21a1.7,1.7,0,0,1,.2.854,5.226,5.226,0,0,0-.049.586,14.132,14.132,0,0,1-.44,1.465q-.39,1.05-1.2,3.052-1.245,2.881-3,7.348-1.733,4.493-3.247,8.447l-.245.683-.292.806a5.094,5.094,0,0,1-.147,1.245l-.757,3.052q-.194.9-.244,1.27a3.9,3.9,0,0,1-.2.61c-.114.13-.2.2-.268.2l-.586.244-.611.2a.541.541,0,0,1-.536.415Zm-83.3-.9v-.366a12.632,12.632,0,0,0-.1-1.44l-.293-1.758V45.606l.512-1.05q-.414-.317-.415-1.953a9.288,9.288,0,0,1,.049-1.147q0-.366.366-2.71l.1-2.759v-2.1l.1-.781q.049-.464.049-.708v-.244a2.934,2.934,0,0,0-.146-.806,1.287,1.287,0,0,0-.66-.708l.489-3.686a40.166,40.166,0,0,1,2.759-8.4A18.456,18.456,0,0,1,11.729,14.8a2.782,2.782,0,0,1,2.515-1.9,2.143,2.143,0,0,1,1.807,1.66,5.618,5.618,0,0,1,.341,2,8.541,8.541,0,0,1-.1,1.049q-.147.684-1.465,4.443v.806l-.586,2.05-.708,2.246a5.751,5.751,0,0,1-.049.757q-.194.976-.342,1.685l-.464,2.246-.342,2.246a6.032,6.032,0,0,0-.147,1.172v.2a2.2,2.2,0,0,1,.05.586v.757l-.293,2.3-.268,2.1a8.588,8.588,0,0,0,.171,2.661q.635,0,1.343-1.465l1-1.245q.439-.586.671-.892a3.517,3.517,0,0,0,.281-.4l1.685-2.955a6.137,6.137,0,0,1,.512-.683q.244-.317.537-.659l2-3.907q.806-1.44,1.246-2.3.269-.463.952-1.953A15.874,15.874,0,0,0,23.4,23.95a7.189,7.189,0,0,1,.536-1.611,7.228,7.228,0,0,1,.806-1.441l.391-.61.562-.536a6.29,6.29,0,0,1,1.587-.806,5.3,5.3,0,0,1,1.611-.292h.489q.366.2.366.9a3.279,3.279,0,0,1-.05.635l-.562,1.855-.951,2.54-.806,2.05-.83,2.246L25.5,31.69l-.708,2.294a16.179,16.179,0,0,0-.439,2.857v.245l-.366,1.1-.342,1.172-.293,2.027a7.966,7.966,0,0,0-.268,1.611.659.659,0,0,0,.1.439q.512,0,1.269-1.343l2.539-4.248,2.2-3.857.757-1.1.659-.952a8.331,8.331,0,0,1,.733-2.051l1.758-3.3,1.856-3.443q.243-.659.536-1.294A7.645,7.645,0,0,0,35.85,20.7q.83-3.906,3.638-4.809a3.334,3.334,0,0,1,.1.391,3.4,3.4,0,0,1-.1.707,40.016,40.016,0,0,1-2.857,9.058q-3.051,6.982-4.492,8.594a6.662,6.662,0,0,1-.5,1.4,16.785,16.785,0,0,1-.989,1.745l-1.611,2.759a32.208,32.208,0,0,1-3.711,5.883,6.919,6.919,0,0,1-4.785,2.758,4.866,4.866,0,0,1-1.294-.61,1.517,1.517,0,0,1-.366-1.147,29.132,29.132,0,0,1,.366-4.687,2.4,2.4,0,0,0,.244-.757v-1.44l.245-1.465a5.4,5.4,0,0,0,.1-.586,3.2,3.2,0,0,1,.049-.61.432.432,0,0,0-.049-.2l-.1-.1-.2.1a.47.47,0,0,0-.245.2l-.659,1.049-.61.9-2.393,3.491a16.5,16.5,0,0,1-2,3.052l-.854,1.319-.587.781-.341.366a2.97,2.97,0,0,1-1.123,1.758,3.221,3.221,0,0,1-1.782.537Q7.75,51.148,7.579,50.513Z" transform="translate(821 396)"/></g><g class="f" transform="matrix(1, 0, 0, 1, 0, 0)"><path class="c" d="M203.5,79.857H.5v-79h203ZM124.047,41.513h0a21.113,21.113,0,0,1-1.195,3.552l-2.325,5.844L118.8,55.06l-1.494,3.885-.6,2.158-.631,2.257-.6,1.1-.465,1.162-.067,1.428-.1,1.361a2.391,2.391,0,0,0,.232.133c.044.088.178.155.4.2l1.029.2,1.063-.6.763-.5a15.684,15.684,0,0,0,1.495-2.856l1.162-2.557c.263-.744.553-1.481.863-2.191.328-.722.764-1.593,1.3-2.59l2.191-4.416a13.66,13.66,0,0,0,1.029-3.22,4.969,4.969,0,0,1,.664-1.162,4.821,4.821,0,0,0,.764-1.2,10.878,10.878,0,0,1,.464-1.66,11.008,11.008,0,0,1,.664-1.494l1.527-3.453q.4-.83.731-1.627a10.676,10.676,0,0,0,.431-1.494A48.1,48.1,0,0,0,135.967,28l.266-.7.332-.73.067-.963.2-.265q1.03-2.855,1.594-4.55c.353-1.144.643-2.227.864-3.22a14,14,0,0,0,.266-2.158c0-.506-.089-.83-.266-.963h-.565l-1.361.564a5.366,5.366,0,0,0-.863.465l-.9.6-1.56,1.427-1.428,1.561-1.693,1.859-.332,1.627a53.7,53.7,0,0,1-2.789,9.662l-.3,1.229a3.7,3.7,0,0,1-.266.93q-.266.566-.532,1.1l-.9,1.561a22.794,22.794,0,0,1-2.225.631,12.825,12.825,0,0,1-2.589.2l-2.657-.265-1.494.2-1.992.266-1.76-.2a12.246,12.246,0,0,0-3.951.863c-.529-.176-.8-.4-.8-.664l.132-.2,1.229-3.487,1.694-4.415q.464-1.1,1.893-4.615c.766-1.838,1.459-3.581,2.058-5.18q.332-.732.531-1.212a7.2,7.2,0,0,0,.332-1.013,7.736,7.736,0,0,0,.067-.831,2.084,2.084,0,0,0-.531-1.361,2.662,2.662,0,0,0-1.893-.531,3.605,3.605,0,0,0-1.993.464l-2.49,1.959a5.569,5.569,0,0,0-.5,1.1,19.684,19.684,0,0,0-.6,1.993l-.963,3.121c-1.808,6.084-3.517,11.234-5.08,15.306a13.077,13.077,0,0,1-1.859,2.856,11.417,11.417,0,0,0-1.163,1.427c-.221.355-.42.686-.6,1a11.11,11.11,0,0,0,.266,2.324,27.658,27.658,0,0,0,.7,2.989l-.365.9-.332,1v.233a7.819,7.819,0,0,1-.2,1.361,15.711,15.711,0,0,0-.332,1.959c-.044.488-.067,1.147-.067,1.959a18.51,18.51,0,0,1-.2,2.523q-.232,1.494-.3,2.059a3.617,3.617,0,0,0-.133.763,1.285,1.285,0,0,0,.2.664c.11.265.412.4.9.4A5.931,5.931,0,0,0,103.1,61.5a22.624,22.624,0,0,0,2.589-3.121q.4-.6,1.627-2.358v-.166a.269.269,0,0,0-.067-.2,2.35,2.35,0,0,0-.663-.066l-.365.066-.2.067-.464.631-.631.531-.531.2c-.353,0-.532-.481-.532-1.428a16.371,16.371,0,0,1,.332-3.12l1.727-5.711a6.071,6.071,0,0,1,1.294-1.162l1.561-1.1a8.557,8.557,0,0,0,3.785-.93,27.709,27.709,0,0,1,6.143-1.162l5.345-.963Zm37.486-22.976a4.016,4.016,0,0,0-3.287,1.427,11.142,11.142,0,0,0-1.76,3.885l-.2,1.626q-.464.764-.763,1.362c-.175.438-.443,1.2-.8,2.258-1.761,5.723-5.123,15.051-9.994,27.724l-2.624,6.408-.266.763-.4,1.362-.133.8a.8.8,0,0,0,.117.473.406.406,0,0,0,.348.158l.5-.132.4-.166.763-.2.6-.265,1.627-2.722a9.047,9.047,0,0,0,1.527-2.989l.2-.963q1.129-2.191,2.657-5.18c.943-1.93,1.993-4.164,3.121-6.64l3.32-6.873c1.256-2.49,2.016-3.752,2.257-3.752a3.413,3.413,0,0,1,.6,1.494l.764,3.254.731,3.088.963,3.453.8,4.415.963,4.748a21.057,21.057,0,0,0,.83,2.457,11.719,11.719,0,0,0,.8,1.993c.595,1.168,1.165,1.759,1.693,1.759A11.459,11.459,0,0,0,169.8,62.7l2.125-.831a4.634,4.634,0,0,0,.963-1.294,5.231,5.231,0,0,0,.531-.831c.132-.221.288-.487.464-.8l.7-1.428A73.868,73.868,0,0,0,177.5,50.71c.814-2.067,1.8-4.86,2.921-8.3q1.229-3.884,2.657-8.433c.948-3.023,1.708-5.559,2.257-7.538a28.847,28.847,0,0,0,1.162-3.884l1-3.32,1.03-3.487a9.365,9.365,0,0,0,.2-1.694c0-.551-.089-.83-.266-.83a11.85,11.85,0,0,0-3.22,1.926q-.8,1.295-1.561,2.589a25.184,25.184,0,0,0-1.3,2.557,26.72,26.72,0,0,0-1.826,5.313,134.739,134.739,0,0,1-4.084,15.107c-3.151,9.011-5.162,14.06-5.977,15.007a2.1,2.1,0,0,1-1.1-1.427,8.69,8.69,0,0,1-.531-1.826,13.428,13.428,0,0,1-.332-1.694L167.709,46a38.063,38.063,0,0,0-1.1-4.748,11.415,11.415,0,0,1-.266-1.561,17.225,17.225,0,0,1-.266-1.826q0-.963-.067-1.992-.134-1-.266-1.627l-.631-3.586a21.6,21.6,0,0,1-.332-2.39,15.6,15.6,0,0,1-.133-2.125,11.209,11.209,0,0,1,.8-2.158l1.394-2.39,1.362-2.158a6.381,6.381,0,0,0,.6-1.627.812.812,0,0,0,.067-.3.905.905,0,0,0-.266-.664,1.389,1.389,0,0,0-.962-.4c-.6,0-1.377.5-2.325,1.494a6.7,6.7,0,0,1-1.826,1.693l-.531-.564-.7-.4Zm-10.027-4.084a7.558,7.558,0,0,0-2.856,1.03h0a4.5,4.5,0,0,0-3.187,1.294,19.193,19.193,0,0,0-2.656,3.952l-2.092,4.216-1.494,2.922a1.184,1.184,0,0,1,.132.531.591.591,0,0,1-.066.265l-.631,1.627-.532,1.427-.132.764v.531c.308,0,.487.19.531.564a7.663,7.663,0,0,1,.067.93,7.225,7.225,0,0,1-.2,1.577q-.2.88-.6,2.308c-.329.944-.675,1.86-1.029,2.723-.416,1.159-.74,2.142-.963,2.921q-.4,1.229-.531,1.76l-.565,1.727-.266,1.494-.2.731v.2a4.906,4.906,0,0,1-.266.432,2.249,2.249,0,0,0-.332.8q-.2.63-.5,1.759c-.22.815-.488,1.709-.8,2.657L131.783,62v.431c0,1.036.436,1.561,1.3,1.561a4.44,4.44,0,0,0,1.561-.3,6.014,6.014,0,0,1,1.726-1.262,2.38,2.38,0,0,0,1.2-1.261,8.7,8.7,0,0,0-.132-1.229V58.879a16.035,16.035,0,0,1,.431-3.686l1.362-3.619,1.229-3.919a66.061,66.061,0,0,1,5.08-14.642l-.132-.133,1.494-3.187c.223-.557.508-1.189.847-1.876a10,10,0,0,0,.714-1.809,13.179,13.179,0,0,0,.93-2.922l1.229-2.722c.549-.989.873-1.6.963-1.826a11.188,11.188,0,0,0,.6-1.877,7.54,7.54,0,0,0,.2-1.178C152.369,14.8,152.079,14.453,151.506,14.453ZM90.18,20.3a1.33,1.33,0,0,1,.8.2,2.069,2.069,0,0,1,.5.565,15.024,15.024,0,0,1-.515,1.892q-.382,1.162-.715,2.325a45.5,45.5,0,0,0-1.361,4.549,14.694,14.694,0,0,0-1.229,2.989L85.7,39.355,83.771,45.4a10.086,10.086,0,0,1-.73,2.125l-.631,4.283-.465,1.129-.464,1.229.067,1.859-.7,1.826c0,.526-.022,1.029-.067,1.494q-.132.732-.2,1.3a6.5,6.5,0,0,0-.133,1.494c0,1.08.112,1.661.332,1.727l.265.067.432.066a.74.74,0,0,0,.731-.564l.83-.265.8-.332c.089,0,.212-.089.365-.265a5.3,5.3,0,0,0,.266-.83c.044-.331.156-.912.332-1.727l1.03-4.15a7.018,7.018,0,0,0,.2-1.694l.4-1.1.332-.93q2.059-5.38,4.415-11.488c1.581-4.018,2.955-7.381,4.084-9.994q1.1-2.722,1.627-4.15a19.038,19.038,0,0,0,.6-1.993,7.113,7.113,0,0,1,.067-.8,2.33,2.33,0,0,0-.266-1.162l-.8-1.561-.631-.7c.154-.529,1.495-.8,3.984-.8a21.862,21.862,0,0,0,4.682.8c.352,0,.6-.313.731-.93l.132-.9-.066-.531.531-1.229a8.163,8.163,0,0,0,.2-1.561c0-.815-.246-1.229-.73-1.229l-.4.067-.4.066a1.045,1.045,0,0,0-.4-.266,5.726,5.726,0,0,1-.9-.132l-1.759-.3-2.921-.133-2.922-.133a14.436,14.436,0,0,0-4.981.7l-.963-.266-2.357.332a9.093,9.093,0,0,0-1.494.133q-.9.2-1.793.464a3.2,3.2,0,0,0-1.495,1.3,6.778,6.778,0,0,0-1.2,1.76q-.431.83-.564,1.162a6.232,6.232,0,0,0-.4,1.362,6.733,6.733,0,0,0-1.029,1.992c.088.529.322.8.7.8l1.427-.265a20.431,20.431,0,0,1,5.645-1.627l1.561-.332,1.494-.3ZM78.592,14.453a7.548,7.548,0,0,0-2.855,1.03h0a4.5,4.5,0,0,0-3.187,1.294,19.2,19.2,0,0,0-2.657,3.952L67.8,24.945l-1.494,2.922a1.185,1.185,0,0,1,.133.531.592.592,0,0,1-.067.265l-.631,1.627-.531,1.427-.133.764v.531c.308,0,.487.19.531.564a7.483,7.483,0,0,1,.067.93,7.274,7.274,0,0,1-.2,1.577q-.2.88-.6,2.308c-.331.949-.677,1.865-1.03,2.723-.42,1.172-.744,2.154-.963,2.921q-.4,1.229-.531,1.76l-.564,1.727-.265,1.494-.2.731v.2a4.692,4.692,0,0,1-.266.432,2.283,2.283,0,0,0-.332.8q-.2.63-.5,1.759c-.222.82-.49,1.714-.8,2.657L58.869,62v.431c0,1.036.436,1.561,1.3,1.561a4.432,4.432,0,0,0,1.561-.3,6.028,6.028,0,0,1,1.726-1.262,2.373,2.373,0,0,0,1.2-1.261,8.693,8.693,0,0,0-.132-1.229V58.879a16.034,16.034,0,0,1,.432-3.686l1.361-3.619,1.229-3.919a66.069,66.069,0,0,1,5.08-14.642l-.133-.133,1.494-3.187c.219-.548.5-1.179.847-1.876a9.941,9.941,0,0,0,.714-1.809,13.179,13.179,0,0,0,.93-2.922L77.7,20.363c.56-1.008.875-1.605.963-1.826a11.105,11.105,0,0,0,.6-1.877,7.392,7.392,0,0,0,.2-1.178C79.455,14.8,79.164,14.453,78.592,14.453ZM29.651,11.531c-1.454,0-2.6.871-3.42,2.59A25.137,25.137,0,0,0,24.4,19.235c-1.123,2.071-2.386,5.913-3.752,11.421l-.664,5.014a1.757,1.757,0,0,1,.9.963,3.989,3.989,0,0,1,.2,1.1v.331q0,.332-.067.963l-.133,1.063v2.856l-.132,3.752c-.336,2.147-.5,3.352-.5,3.686a12.721,12.721,0,0,0-.066,1.561c0,1.476.19,2.369.564,2.656l-.7,1.427v1.826l.4,2.391a17.208,17.208,0,0,1,.132,1.958v.5c.154.573.78.863,1.859.863a4.4,4.4,0,0,0,2.424-.731,4.05,4.05,0,0,0,1.527-2.39l.465-.5.8-1.063,1.163-1.793a22.687,22.687,0,0,0,2.722-4.151L34.8,48.188l.831-1.228.9-1.428a.641.641,0,0,1,.332-.265l.265-.132.132.132a.6.6,0,0,1,.067.265,4.37,4.37,0,0,0-.067.831,7.327,7.327,0,0,1-.132.8l-.332,1.993v1.958a3.325,3.325,0,0,1-.332,1.03,39.758,39.758,0,0,0-.5,6.375,2.07,2.07,0,0,0,.5,1.561,6.639,6.639,0,0,0,1.759.83,9.452,9.452,0,0,0,6.508-3.751,43.994,43.994,0,0,0,5.047-8L51.963,45.4a23.363,23.363,0,0,0,1.345-2.374,9.153,9.153,0,0,0,.68-1.909c1.3-1.456,3.356-5.389,6.109-11.688a54.786,54.786,0,0,0,3.885-12.318,4.7,4.7,0,0,0,.132-.962,4.645,4.645,0,0,0-.132-.532c-2.533.815-4.2,3.015-4.947,6.541a10.551,10.551,0,0,1-.5,1.561c-.262.568-.508,1.16-.73,1.76l-2.524,4.682-2.39,4.483a11.3,11.3,0,0,0-1,2.789L51,38.724l-1.03,1.494-2.988,5.246-3.453,5.778c-.684,1.212-1.265,1.826-1.726,1.826a.906.906,0,0,1-.133-.6,10.874,10.874,0,0,1,.365-2.191l.4-2.756L42.9,45.93l.5-1.494V44.1a22.248,22.248,0,0,1,.6-3.885l.963-3.12,1.428-3.819,1.129-3.055,1.1-2.789,1.3-3.453.764-2.524a4.584,4.584,0,0,0,.067-.863c0-.639-.168-1.052-.5-1.229h-.664a7.243,7.243,0,0,0-2.192.4,8.588,8.588,0,0,0-2.158,1.1l-.763.731-.531.83a9.835,9.835,0,0,0-1.1,1.959,9.821,9.821,0,0,0-.73,2.191,21.7,21.7,0,0,1-1.794,4.682c-.615,1.34-1.05,2.234-1.294,2.656q-.6,1.162-1.694,3.121L34.6,42.344q-.4.464-.731.9a8.406,8.406,0,0,0-.7.93l-2.291,4.018a4.848,4.848,0,0,1-.382.547l-.913,1.212L28.223,51.64c-.64,1.322-1.254,1.993-1.827,1.993-.154-.088-.232-1.305-.232-3.619l.365-2.856.4-3.121v-1.03a3.06,3.06,0,0,0-.067-.8v-.265a8.237,8.237,0,0,1,.2-1.594l.465-3.055.631-3.055q.2-.963.464-2.291a7.845,7.845,0,0,0,.067-1.029l.963-3.055.8-2.789v-1.1c1.189-3.391,1.86-5.424,1.993-6.043a11.7,11.7,0,0,0,.132-1.428,7.681,7.681,0,0,0-.464-2.722A2.929,2.929,0,0,0,29.651,11.531Z" transform="translate(815 458.64)"/></g></svg>